<?xml version="1.0" standalone="no"?>
<!DOCTYPE svg PUBLIC "-//W3C//DTD SVG 1.1//EN" "http://www.w3.org/Graphics/SVG/1.1/DTD/svg11.dtd">
<svg width="100%" height="100%" viewBox="0 0 44 43" version="1.1" xmlns="http://www.w3.org/2000/svg" xmlns:xlink="http://www.w3.org/1999/xlink" xml:space="preserve" style="fill-rule:evenodd;clip-rule:evenodd;stroke-linejoin:round;stroke-miterlimit:1.41421;">
    <g transform="matrix(1,0,0,1,-514.979,-13007)">
        <g transform="matrix(1,0,0,1,-100,0)">
            <path d="M658,13009L658,13050L655.979,13050L655.979,13050L636.489,13039.7L617,13050L617,13050L614.979,13050L614.979,13009L615,13009L615,13007L658,13007L658,13009L658,13009ZM617,13009L617,13047.7L636.486,13037.5L636.494,13037.5L636.5,13037.5L655.979,13047.7L655.979,13009L617,13009Z" style="fill:white;fill-opacity:0.498039;"/>
        </g>
        <g transform="matrix(1,1.29074e-17,1.29074e-17,0.947301,-100,686.214)">
            <rect x="627.017" y="13016.8" width="18.984" height="2.111" style="fill:white;fill-opacity:0.498039;"/>
        </g>
    </g>
</svg>
