<?xml version="1.0" standalone="no"?>
<!DOCTYPE svg PUBLIC "-//W3C//DTD SVG 1.1//EN" "http://www.w3.org/Graphics/SVG/1.1/DTD/svg11.dtd">
<svg width="100%" height="100%" viewBox="0 0 45 45" version="1.1" xmlns="http://www.w3.org/2000/svg" xmlns:xlink="http://www.w3.org/1999/xlink" xml:space="preserve" style="fill-rule:evenodd;clip-rule:evenodd;stroke-linejoin:round;stroke-miterlimit:1.41421;">
    <g transform="matrix(1,0,0,1,-614,-13406)">
        <g>
            <path d="M636.5,13406C648.918,13406 659,13416.1 659,13428.5C659,13440.9 648.918,13451 636.5,13451C624.082,13451 614,13440.9 614,13428.5C614,13416.1 624.082,13406 636.5,13406ZM622.198,13443C625.877,13446.6 630.929,13448.9 636.5,13448.9C642.071,13448.9 647.123,13446.6 650.802,13443C646.999,13439.2 641.864,13437.1 636.5,13437.1C631.141,13437.1 626.005,13439.2 622.198,13443ZM620.76,13441.4C624.959,13437.3 630.607,13435 636.5,13435C642.398,13435 648.045,13437.3 652.24,13441.4C655.132,13437.9 656.868,13433.4 656.868,13428.5C656.868,13417.3 647.742,13408.1 636.5,13408.1C625.258,13408.1 616.132,13417.3 616.132,13428.5C616.132,13433.4 617.868,13437.9 620.76,13441.4Z" style="fill:white;fill-opacity:0.498039;"/>
            <g transform="matrix(1.09695,5.371e-19,5.371e-19,1.09476,-49.7612,-714.829)">
                <path d="M625.514,12923.2L625.421,12923.2L625.342,12923.2L625.264,12923.2L625.171,12923.2L625.078,12923.2L625,12923.2L624.908,12923.2L624.829,12923.2L624.737,12923.2L624.646,12923.2L624.568,12923.1L624.49,12923.1L624.399,12923.1L624.308,12923.1L624.231,12923.1L624.155,12923.1L624.078,12923.1L623.974,12923L623.898,12923L623.822,12923L623.733,12923L623.657,12922.9L623.569,12922.9L623.494,12922.9L623.419,12922.9L623.332,12922.8L623.257,12922.8L623.184,12922.8L623.097,12922.8L623.024,12922.7L622.952,12922.7L622.866,12922.7L622.794,12922.6L622.723,12922.6L622.639,12922.6L622.567,12922.5L622.497,12922.5L622.415,12922.4L622.344,12922.4L622.275,12922.4L622.205,12922.3L622.137,12922.3L622.057,12922.2L621.989,12922.2L621.922,12922.1L621.855,12922.1L621.788,12922.1L621.711,12922L621.646,12922L621.581,12921.9L621.516,12921.9L621.452,12921.8L621.388,12921.8L621.324,12921.7L621.253,12921.7L621.191,12921.6L621.138,12921.6L621.069,12921.5L621.008,12921.4L620.956,12921.4L620.889,12921.3L620.83,12921.3L620.772,12921.2L620.714,12921.2L620.658,12921.1L620.601,12921L620.553,12921L620.491,12920.9L620.437,12920.9L620.39,12920.8L620.33,12920.7L620.278,12920.7L620.232,12920.6L620.181,12920.5L620.126,12920.5L620.082,12920.4L620.033,12920.3L619.986,12920.3L619.943,12920.2L619.892,12920.1L619.846,12920.1L619.805,12920L619.762,12919.9L619.719,12919.9L619.676,12919.8L619.635,12919.7L619.598,12919.6L619.558,12919.6L619.519,12919.5L619.483,12919.4L619.446,12919.4L619.41,12919.3L619.374,12919.2L619.34,12919.1L619.309,12919L619.278,12919L619.246,12918.9L619.213,12918.8L619.186,12918.7L619.158,12918.7L619.13,12918.6L619.103,12918.5L619.077,12918.4L619.053,12918.3L619.03,12918.3L619.007,12918.2L618.985,12918.1L618.965,12918L618.945,12917.9L618.926,12917.8L618.909,12917.8L618.893,12917.7L618.877,12917.6L618.862,12917.5L618.849,12917.4L618.836,12917.3L618.825,12917.2L618.815,12917.2L618.805,12917.1L618.797,12917L618.79,12916.9L618.784,12916.8L618.779,12916.7L618.775,12916.6L618.772,12916.6L618.77,12916.5L618.77,12916.4L618.77,12916.3L618.772,12916.2L618.775,12916.1L618.779,12916L618.784,12915.9L618.79,12915.9L618.797,12915.8L618.805,12915.7L618.815,12915.6L618.825,12915.5L618.836,12915.4L618.849,12915.3L618.862,12915.3L618.877,12915.2L618.893,12915.1L618.909,12915L618.926,12914.9L618.945,12914.8L618.965,12914.7L618.985,12914.7L619.007,12914.6L619.03,12914.5L619.053,12914.4L619.077,12914.3L619.103,12914.3L619.13,12914.2L619.158,12914.1L619.186,12914L619.213,12913.9L619.246,12913.9L619.278,12913.8L619.309,12913.7L619.34,12913.6L619.374,12913.6L619.41,12913.5L619.446,12913.4L619.483,12913.3L619.519,12913.3L619.558,12913.2L619.598,12913.1L619.635,12913L619.676,12913L619.719,12912.9L619.762,12912.8L619.805,12912.8L619.846,12912.7L619.892,12912.6L619.943,12912.5L619.986,12912.5L620.033,12912.4L620.082,12912.3L620.126,12912.3L620.181,12912.2L620.232,12912.1L620.278,12912.1L620.33,12912L620.39,12912L620.437,12911.9L620.491,12911.8L620.553,12911.8L620.601,12911.7L620.658,12911.7L620.714,12911.6L620.772,12911.5L620.83,12911.5L620.889,12911.4L620.956,12911.4L621.008,12911.3L621.069,12911.3L621.138,12911.2L621.191,12911.1L621.253,12911.1L621.324,12911L621.388,12911L621.452,12910.9L621.516,12910.9L621.581,12910.8L621.646,12910.8L621.711,12910.7L621.788,12910.7L621.855,12910.7L621.922,12910.6L621.989,12910.6L622.057,12910.5L622.137,12910.5L622.205,12910.4L622.275,12910.4L622.344,12910.4L622.415,12910.3L622.497,12910.3L622.567,12910.2L622.639,12910.2L622.723,12910.2L622.794,12910.1L622.866,12910.1L622.952,12910.1L623.024,12910L623.097,12910L623.184,12910L623.257,12909.9L623.332,12909.9L623.419,12909.9L623.494,12909.9L623.569,12909.8L623.657,12909.8L623.733,12909.8L623.822,12909.8L623.898,12909.7L623.974,12909.7L624.078,12909.7L624.155,12909.7L624.231,12909.7L624.308,12909.7L624.399,12909.6L624.49,12909.6L624.568,12909.6L624.646,12909.6L624.737,12909.6L624.829,12909.6L624.908,12909.6L625,12909.6L625.078,12909.5L625.171,12909.5L625.264,12909.5L625.342,12909.5L625.421,12909.5L625.514,12909.5L625.7,12909.5L625.872,12909.5L626.043,12909.5L626.214,12909.6L626.306,12909.6L626.384,12909.6L626.477,12909.6L626.569,12909.6L626.646,12909.6L626.724,12909.6L626.815,12909.6L626.906,12909.7L626.983,12909.7L627.06,12909.7L627.136,12909.7L627.24,12909.7L627.316,12909.7L627.392,12909.8L627.481,12909.8L627.557,12909.8L627.645,12909.8L627.72,12909.9L627.795,12909.9L627.882,12909.9L627.956,12909.9L628.03,12910L628.117,12910L628.19,12910L628.263,12910.1L628.348,12910.1L628.42,12910.1L628.492,12910.2L628.575,12910.2L628.647,12910.2L628.718,12910.3L628.8,12910.3L628.87,12910.4L628.939,12910.4L629.008,12910.4L629.077,12910.5L629.157,12910.5L629.225,12910.6L629.292,12910.6L629.359,12910.7L629.426,12910.7L629.503,12910.7L629.568,12910.8L629.634,12910.8L629.698,12910.9L629.762,12910.9L629.826,12911L629.889,12911L629.961,12911.1L630.023,12911.1L630.076,12911.2L630.146,12911.3L630.206,12911.3L630.258,12911.4L630.326,12911.4L630.384,12911.5L630.442,12911.5L630.499,12911.6L630.556,12911.7L630.613,12911.7L630.661,12911.8L630.723,12911.8L630.778,12911.9L630.825,12912L630.884,12912L630.936,12912.1L630.982,12912.1L631.033,12912.2L631.088,12912.3L631.132,12912.3L631.181,12912.4L631.229,12912.5L631.271,12912.5L631.322,12912.6L631.368,12912.7L631.408,12912.8L631.452,12912.8L631.496,12912.9L631.538,12913L631.579,12913L631.616,12913.1L631.656,12913.2L631.695,12913.3L631.73,12913.3L631.768,12913.4L631.804,12913.5L631.839,12913.6L631.874,12913.6L631.906,12913.7L631.936,12913.8L631.968,12913.9L632.001,12913.9L632.029,12914L632.056,12914.1L632.084,12914.2L632.111,12914.3L632.137,12914.3L632.161,12914.4L632.184,12914.5L632.207,12914.6L632.229,12914.7L632.249,12914.7L632.269,12914.8L632.288,12914.9L632.305,12915L632.321,12915.1L632.337,12915.2L632.352,12915.3L632.365,12915.3L632.378,12915.4L632.389,12915.5L632.4,12915.6L632.409,12915.7L632.417,12915.8L632.424,12915.9L632.43,12915.9L632.435,12916L632.439,12916.1L632.442,12916.2L632.444,12916.3L632.444,12916.4L632.444,12916.5L632.442,12916.6L632.439,12916.6L632.435,12916.7L632.43,12916.8L632.424,12916.9L632.417,12917L632.409,12917.1L632.4,12917.2L632.389,12917.2L632.378,12917.3L632.365,12917.4L632.352,12917.5L632.337,12917.6L632.321,12917.7L632.305,12917.8L632.288,12917.8L632.269,12917.9L632.249,12918L632.229,12918.1L632.207,12918.2L632.184,12918.3L632.161,12918.3L632.137,12918.4L632.111,12918.5L632.084,12918.6L632.056,12918.7L632.029,12918.7L632.001,12918.8L631.968,12918.9L631.936,12919L631.906,12919L631.874,12919.1L631.839,12919.2L631.804,12919.3L631.768,12919.4L631.73,12919.4L631.695,12919.5L631.656,12919.6L631.616,12919.6L631.579,12919.7L631.538,12919.8L631.496,12919.9L631.452,12919.9L631.408,12920L631.368,12920.1L631.322,12920.1L631.271,12920.2L631.229,12920.3L631.181,12920.3L631.132,12920.4L631.088,12920.5L631.033,12920.5L630.982,12920.6L630.936,12920.7L630.884,12920.7L630.825,12920.8L630.778,12920.9L630.723,12920.9L630.661,12921L630.613,12921L630.556,12921.1L630.499,12921.2L630.442,12921.2L630.384,12921.3L630.326,12921.3L630.258,12921.4L630.206,12921.4L630.146,12921.5L630.076,12921.6L630.023,12921.6L629.961,12921.7L629.889,12921.7L629.826,12921.8L629.762,12921.8L629.698,12921.9L629.634,12921.9L629.568,12922L629.503,12922L629.426,12922.1L629.359,12922.1L629.292,12922.1L629.225,12922.2L629.157,12922.2L629.077,12922.3L629.008,12922.3L628.939,12922.4L628.87,12922.4L628.8,12922.4L628.718,12922.5L628.647,12922.5L628.575,12922.6L628.492,12922.6L628.42,12922.6L628.348,12922.7L628.263,12922.7L628.19,12922.7L628.117,12922.8L628.03,12922.8L627.956,12922.8L627.882,12922.8L627.795,12922.9L627.72,12922.9L627.645,12922.9L627.557,12922.9L627.481,12923L627.392,12923L627.316,12923L627.24,12923L627.136,12923.1L627.06,12923.1L626.983,12923.1L626.906,12923.1L626.815,12923.1L626.724,12923.1L626.646,12923.1L626.569,12923.2L626.477,12923.2L626.384,12923.2L626.306,12923.2L626.214,12923.2L626.136,12923.2L626.043,12923.2L625.95,12923.2L625.872,12923.2L625.793,12923.2L625.7,12923.2L625.514,12923.2ZM625.607,12921.4L625.672,12921.4L625.736,12921.4L625.801,12921.4L625.865,12921.4L625.929,12921.4L625.993,12921.4L626.056,12921.4L626.119,12921.4L626.182,12921.4L626.245,12921.4L626.308,12921.4L626.37,12921.3L626.432,12921.3L626.494,12921.3L626.556,12921.3L626.617,12921.3L626.678,12921.3L626.739,12921.3L626.799,12921.3L626.859,12921.2L626.919,12921.2L626.979,12921.2L627.038,12921.2L627.097,12921.2L627.156,12921.2L627.214,12921.1L627.272,12921.1L627.33,12921.1L627.388,12921.1L627.445,12921.1L627.501,12921L627.558,12921L627.614,12921L627.67,12921L627.725,12920.9L627.78,12920.9L627.835,12920.9L627.889,12920.9L627.943,12920.8L627.996,12920.8L628.049,12920.8L628.102,12920.7L628.154,12920.7L628.206,12920.7L628.258,12920.6L628.309,12920.6L628.359,12920.6L628.41,12920.5L628.459,12920.5L628.509,12920.5L628.558,12920.4L628.606,12920.4L628.654,12920.4L628.702,12920.3L628.749,12920.3L628.796,12920.3L628.842,12920.2L628.887,12920.2L628.933,12920.1L628.978,12920.1L629.022,12920.1L629.066,12920L629.109,12920L629.152,12919.9L629.194,12919.9L629.236,12919.8L629.277,12919.8L629.318,12919.8L629.358,12919.7L629.398,12919.7L629.437,12919.6L629.475,12919.6L629.513,12919.5L629.551,12919.5L629.588,12919.4L629.624,12919.4L629.66,12919.3L629.695,12919.3L629.73,12919.2L629.764,12919.2L629.798,12919.1L629.831,12919.1L629.863,12919L629.895,12919L629.926,12918.9L629.956,12918.9L629.986,12918.8L630.015,12918.8L630.044,12918.7L630.072,12918.7L630.099,12918.6L630.126,12918.6L630.152,12918.5L630.178,12918.4L630.203,12918.4L630.227,12918.3L630.25,12918.3L630.273,12918.2L630.295,12918.2L630.316,12918.1L630.337,12918L630.357,12918L630.377,12917.9L630.395,12917.9L630.413,12917.8L630.431,12917.8L630.447,12917.7L630.463,12917.6L630.478,12917.6L630.492,12917.5L630.506,12917.5L630.519,12917.4L630.531,12917.3L630.543,12917.3L630.553,12917.2L630.563,12917.1L630.572,12917.1L630.581,12917L630.588,12917L630.595,12916.9L630.601,12916.8L630.606,12916.8L630.611,12916.7L630.614,12916.6L630.617,12916.6L630.619,12916.5L630.62,12916.4L630.621,12916.4L630.62,12916.3L630.619,12916.2L630.617,12916.2L630.614,12916.1L630.611,12916.1L630.606,12916L630.601,12915.9L630.595,12915.9L630.588,12915.8L630.581,12915.7L630.572,12915.7L630.563,12915.6L630.553,12915.6L630.543,12915.5L630.531,12915.4L630.519,12915.4L630.506,12915.3L630.492,12915.2L630.478,12915.2L630.463,12915.1L630.447,12915.1L630.431,12915L630.413,12914.9L630.395,12914.9L630.377,12914.8L630.357,12914.8L630.337,12914.7L630.316,12914.6L630.295,12914.6L630.273,12914.5L630.25,12914.5L630.227,12914.4L630.203,12914.4L630.178,12914.3L630.152,12914.3L630.126,12914.2L630.099,12914.1L630.072,12914.1L630.044,12914L630.015,12914L629.986,12913.9L629.956,12913.9L629.926,12913.8L629.895,12913.8L629.863,12913.7L629.831,12913.7L629.798,12913.6L629.764,12913.6L629.73,12913.5L629.695,12913.5L629.66,12913.4L629.624,12913.4L629.588,12913.3L629.551,12913.3L629.513,12913.2L629.475,12913.2L629.437,12913.1L629.398,12913.1L629.358,12913L629.318,12913L629.277,12913L629.236,12912.9L629.194,12912.9L629.152,12912.8L629.109,12912.8L629.066,12912.7L629.022,12912.7L628.978,12912.7L628.933,12912.6L628.887,12912.6L628.842,12912.5L628.796,12912.5L628.749,12912.5L628.702,12912.4L628.654,12912.4L628.606,12912.4L628.558,12912.3L628.509,12912.3L628.459,12912.2L628.41,12912.2L628.359,12912.2L628.309,12912.1L628.258,12912.1L628.206,12912.1L628.154,12912.1L628.102,12912L628.049,12912L627.996,12912L627.943,12911.9L627.889,12911.9L627.835,12911.9L627.78,12911.8L627.725,12911.8L627.67,12911.8L627.614,12911.8L627.558,12911.7L627.501,12911.7L627.445,12911.7L627.388,12911.7L627.33,12911.7L627.272,12911.6L627.214,12911.6L627.156,12911.6L627.097,12911.6L627.038,12911.6L626.979,12911.5L626.919,12911.5L626.859,12911.5L626.799,12911.5L626.739,12911.5L626.678,12911.5L626.617,12911.5L626.556,12911.4L626.494,12911.4L626.432,12911.4L626.37,12911.4L626.308,12911.4L626.245,12911.4L626.182,12911.4L626.119,12911.4L626.056,12911.4L625.993,12911.4L625.929,12911.4L625.865,12911.4L625.801,12911.4L625.736,12911.4L625.672,12911.4L625.607,12911.4L625.542,12911.4L625.478,12911.4L625.413,12911.4L625.349,12911.4L625.285,12911.4L625.221,12911.4L625.158,12911.4L625.095,12911.4L625.032,12911.4L624.969,12911.4L624.906,12911.4L624.844,12911.4L624.782,12911.4L624.72,12911.4L624.658,12911.4L624.597,12911.5L624.536,12911.5L624.475,12911.5L624.415,12911.5L624.355,12911.5L624.295,12911.5L624.235,12911.5L624.176,12911.6L624.117,12911.6L624.058,12911.6L624,12911.6L623.942,12911.6L623.884,12911.7L623.826,12911.7L623.769,12911.7L623.713,12911.7L623.656,12911.7L623.6,12911.8L623.544,12911.8L623.489,12911.8L623.434,12911.8L623.379,12911.9L623.325,12911.9L623.271,12911.9L623.218,12912L623.165,12912L623.112,12912L623.06,12912.1L623.008,12912.1L622.956,12912.1L622.905,12912.1L622.855,12912.2L622.805,12912.2L622.755,12912.2L622.705,12912.3L622.656,12912.3L622.608,12912.4L622.56,12912.4L622.512,12912.4L622.465,12912.5L622.418,12912.5L622.372,12912.5L622.327,12912.6L622.281,12912.6L622.237,12912.7L622.192,12912.7L622.148,12912.7L622.105,12912.8L622.062,12912.8L622.02,12912.9L621.978,12912.9L621.937,12913L621.896,12913L621.856,12913L621.816,12913.1L621.777,12913.1L621.739,12913.2L621.701,12913.2L621.663,12913.3L621.626,12913.3L621.59,12913.4L621.554,12913.4L621.519,12913.5L621.484,12913.5L621.45,12913.6L621.416,12913.6L621.383,12913.7L621.351,12913.7L621.319,12913.8L621.288,12913.8L621.258,12913.9L621.228,12913.9L621.199,12914L621.17,12914L621.142,12914.1L621.115,12914.1L621.088,12914.2L621.062,12914.3L621.036,12914.3L621.012,12914.4L620.987,12914.4L620.964,12914.5L620.941,12914.5L620.919,12914.6L620.898,12914.6L620.877,12914.7L620.857,12914.8L620.837,12914.8L620.819,12914.9L620.801,12914.9L620.783,12915L620.767,12915.1L620.751,12915.1L620.736,12915.2L620.722,12915.2L620.708,12915.3L620.695,12915.4L620.683,12915.4L620.671,12915.5L620.661,12915.6L620.651,12915.6L620.642,12915.7L620.633,12915.7L620.626,12915.8L620.619,12915.9L620.613,12915.9L620.608,12916L620.603,12916.1L620.6,12916.1L620.597,12916.2L620.595,12916.2L620.594,12916.3L620.593,12916.4L620.594,12916.4L620.595,12916.5L620.597,12916.6L620.6,12916.6L620.603,12916.7L620.608,12916.8L620.613,12916.8L620.619,12916.9L620.626,12917L620.633,12917L620.642,12917.1L620.651,12917.1L620.661,12917.2L620.671,12917.3L620.683,12917.3L620.695,12917.4L620.708,12917.5L620.722,12917.5L620.736,12917.6L620.751,12917.6L620.767,12917.7L620.783,12917.8L620.801,12917.8L620.819,12917.9L620.837,12917.9L620.857,12918L620.877,12918L620.898,12918.1L620.919,12918.2L620.941,12918.2L620.964,12918.3L620.987,12918.3L621.012,12918.4L621.036,12918.4L621.062,12918.5L621.088,12918.6L621.115,12918.6L621.142,12918.7L621.17,12918.7L621.199,12918.8L621.228,12918.8L621.258,12918.9L621.288,12918.9L621.319,12919L621.351,12919L621.383,12919.1L621.416,12919.1L621.45,12919.2L621.484,12919.2L621.519,12919.3L621.554,12919.3L621.59,12919.4L621.626,12919.4L621.663,12919.5L621.701,12919.5L621.739,12919.6L621.777,12919.6L621.816,12919.7L621.856,12919.7L621.896,12919.8L621.937,12919.8L621.978,12919.8L622.02,12919.9L622.062,12919.9L622.105,12920L622.148,12920L622.192,12920.1L622.237,12920.1L622.281,12920.1L622.327,12920.2L622.372,12920.2L622.418,12920.3L622.465,12920.3L622.512,12920.3L622.56,12920.4L622.608,12920.4L622.656,12920.4L622.705,12920.5L622.755,12920.5L622.805,12920.5L622.855,12920.6L622.905,12920.6L622.956,12920.6L623.008,12920.7L623.06,12920.7L623.112,12920.7L623.165,12920.8L623.218,12920.8L623.271,12920.8L623.325,12920.9L623.379,12920.9L623.434,12920.9L623.489,12920.9L623.544,12921L623.6,12921L623.656,12921L623.713,12921L623.769,12921.1L623.826,12921.1L623.884,12921.1L623.942,12921.1L624,12921.1L624.058,12921.2L624.117,12921.2L624.176,12921.2L624.235,12921.2L624.295,12921.2L624.355,12921.2L624.415,12921.3L624.475,12921.3L624.536,12921.3L624.597,12921.3L624.658,12921.3L624.72,12921.3L624.782,12921.3L624.844,12921.3L624.906,12921.4L624.969,12921.4L625.032,12921.4L625.095,12921.4L625.158,12921.4L625.221,12921.4L625.285,12921.4L625.349,12921.4L625.413,12921.4L625.478,12921.4L625.542,12921.4L625.607,12921.4Z" style="fill:white;fill-opacity:0.501961;"/>
            </g>
        </g>
    </g>
</svg>
