<?xml version="1.0" standalone="no"?><!DOCTYPE svg PUBLIC "-//W3C//DTD SVG 1.1//EN" "http://www.w3.org/Graphics/SVG/1.1/DTD/svg11.dtd"><svg width="100%" height="100%" viewBox="0 0 50 50" version="1.1" xmlns="http://www.w3.org/2000/svg" xmlns:xlink="http://www.w3.org/1999/xlink" xml:space="preserve" style="fill-rule:evenodd;clip-rule:evenodd;stroke-linejoin:round;stroke-miterlimit:1.41421;"><path d="M49.955,32.858l0,17.142l-49.955,0l0,-17.142l5.595,0l0,11.53l38.712,0l0,-11.53l5.648,0ZM5.595,17.596l-5.595,0l0,-17.596l49.955,0l0,17.596l-5.648,0l0,-11.973l-38.712,0l0,11.973Z" style="fill:#fff;"/><path d="M41.846,8.411l-33.817,0l0,33.709l33.817,0l0,-33.709ZM24.692,28.873c0.146,0.962 0.251,1.443 0.46,1.945c0.439,1.192 1.213,2.091 2.259,2.677c1.129,0.648 2.885,1.024 4.663,1.024c2.447,0 4.287,-0.606 5.5,-1.777c0.962,-0.941 1.464,-2.279 1.464,-3.848c0,-1.924 -0.753,-3.325 -2.259,-4.266c-0.795,-0.502 -1.798,-0.857 -3.388,-1.192c-2.467,-0.502 -2.467,-0.502 -2.886,-0.69c-0.669,-0.314 -0.982,-0.753 -0.982,-1.338c0,-0.962 0.941,-1.652 2.216,-1.652c1.59,0 2.342,0.564 2.593,1.924l4.434,-0.481c-0.272,-1.192 -0.523,-1.82 -1.046,-2.51c-1.129,-1.568 -3.158,-2.384 -5.813,-2.384c-4.12,0 -6.713,2.029 -6.713,5.249c0,1.694 0.711,3.095 2.028,4.015c0.774,0.544 1.443,0.795 3.367,1.213c2.175,0.502 2.698,0.648 3.137,0.857c0.544,0.251 0.878,0.816 0.878,1.464c0,1.171 -0.962,1.882 -2.572,1.882c-1.066,0 -1.945,-0.355 -2.447,-0.983c-0.313,-0.418 -0.46,-0.794 -0.543,-1.547l-4.35,0.418ZM18.021,16.723c0.126,0.962 0.167,1.611 0.167,3.388l0,8.699c0,1.443 -0.648,2.134 -2.049,2.134c-1.338,0 -1.966,-0.586 -2.405,-2.217l-4.078,1.401c0.481,1.255 0.774,1.777 1.381,2.447c1.171,1.296 2.885,1.944 5.165,1.944c2.049,0 3.743,-0.606 4.809,-1.693c0.983,-0.983 1.443,-2.301 1.443,-4.016l0,-8.72c0,-1.819 0.021,-2.446 0.168,-3.367l-4.601,0Z" style="fill:#fff;"/></svg>