<?xml version="1.0" standalone="no"?>
<!DOCTYPE svg PUBLIC "-//W3C//DTD SVG 1.1//EN" "http://www.w3.org/Graphics/SVG/1.1/DTD/svg11.dtd">
<svg width="100%" height="100%" viewBox="0 0 47 47" version="1.1" xmlns="http://www.w3.org/2000/svg" xmlns:xlink="http://www.w3.org/1999/xlink" xml:space="preserve" style="fill-rule:evenodd;clip-rule:evenodd;stroke-linejoin:round;stroke-miterlimit:1.41421;">
    <g transform="matrix(1,0,0,1,-612.583,-13205.5)">
        <g transform="matrix(0.398892,1.95309e-19,1.95309e-19,0.398094,375.45,8086.06)">
            <path d="M625.607,12926.4L625.361,12926.4L625.114,12926.4L624.827,12926.4L624.58,12926.4L624.332,12926.3L624.085,12926.3L623.837,12926.3L623.59,12926.2L623.344,12926.2L623.098,12926.1L622.891,12926.1L622.646,12926L622.367,12925.9L622.126,12925.8L621.922,12925.7L621.718,12925.6L621.48,12925.5L621.247,12925.4L621.047,12925.3L620.847,12925.2L620.619,12925.1L620.393,12925L620.2,12924.8L620.009,12924.7L619.791,12924.6L619.578,12924.4L619.421,12924.3L619.238,12924.1L619.033,12924L618.858,12923.8L618.685,12923.6L618.513,12923.5L618.367,12923.3L618.202,12923.2L618.021,12922.9L617.865,12922.8L617.712,12922.6L617.578,12922.4L617.434,12922.2L617.293,12922L617.168,12921.8L617.035,12921.6L616.908,12921.4L616.796,12921.2L616.678,12921L616.566,12920.7L616.474,12920.5L616.371,12920.3L616.274,12920.1L616.188,12919.8L616.108,12919.6L616.032,12919.4L615.96,12919.1L615.895,12918.9L615.838,12918.6L615.783,12918.4L615.736,12918.1L615.694,12917.9L615.659,12917.6L615.631,12917.4L615.608,12917.1L615.592,12916.9L615.582,12916.6L615.579,12916.4L615.582,12916.1L615.592,12915.9L615.608,12915.6L615.631,12915.4L615.659,12915.1L615.694,12914.9L615.736,12914.6L615.783,12914.4L615.838,12914.1L615.895,12913.9L615.96,12913.6L616.032,12913.4L616.108,12913.2L616.188,12912.9L616.274,12912.7L616.371,12912.5L616.474,12912.2L616.566,12912L616.678,12911.8L616.796,12911.6L616.908,12911.4L617.035,12911.2L617.168,12910.9L617.293,12910.8L617.434,12910.6L617.578,12910.4L617.712,12910.2L617.865,12910L618.021,12909.8L618.202,12909.6L618.367,12909.4L618.513,12909.3L618.685,12909.1L618.858,12908.9L619.033,12908.8L619.238,12908.6L619.421,12908.5L619.578,12908.3L619.791,12908.2L620.009,12908L620.2,12907.9L620.393,12907.8L620.619,12907.7L620.847,12907.5L621.047,12907.4L621.247,12907.3L621.48,12907.2L621.718,12907.1L621.922,12907L622.126,12907L622.367,12906.9L622.646,12906.8L622.891,12906.7L623.098,12906.6L623.344,12906.6L623.59,12906.5L623.837,12906.5L624.085,12906.4L624.332,12906.4L624.58,12906.4L624.827,12906.4L625.114,12906.3L625.361,12906.3L625.607,12906.3L625.853,12906.3L626.1,12906.3L626.387,12906.4L626.634,12906.4L626.882,12906.4L627.129,12906.4L627.377,12906.5L627.624,12906.5L627.87,12906.6L628.116,12906.6L628.324,12906.7L628.568,12906.8L628.847,12906.9L629.088,12907L629.292,12907L629.496,12907.1L629.734,12907.2L629.968,12907.3L630.168,12907.4L630.367,12907.5L630.595,12907.7L630.821,12907.8L631.014,12907.9L631.205,12908L631.423,12908.2L631.636,12908.3L631.793,12908.5L631.976,12908.6L632.181,12908.8L632.356,12908.9L632.529,12909.1L632.701,12909.3L632.848,12909.4L633.012,12909.6L633.193,12909.8L633.349,12910L633.502,12910.2L633.636,12910.4L633.78,12910.6L633.921,12910.8L634.046,12910.9L634.179,12911.2L634.306,12911.4L634.419,12911.6L634.536,12911.8L634.648,12912L634.74,12912.2L634.843,12912.5L634.94,12912.7L635.026,12912.9L635.106,12913.2L635.182,12913.4L635.254,12913.6L635.319,12913.9L635.376,12914.1L635.431,12914.4L635.478,12914.6L635.52,12914.9L635.555,12915.1L635.584,12915.4L635.606,12915.6L635.622,12915.9L635.632,12916.1L635.635,12916.4L635.632,12916.6L635.622,12916.9L635.606,12917.1L635.584,12917.4L635.555,12917.6L635.52,12917.9L635.478,12918.1L635.431,12918.4L635.376,12918.6L635.319,12918.9L635.254,12919.1L635.182,12919.4L635.106,12919.6L635.026,12919.8L634.94,12920.1L634.843,12920.3L634.74,12920.5L634.648,12920.7L634.536,12921L634.419,12921.2L634.306,12921.4L634.179,12921.6L634.046,12921.8L633.921,12922L633.78,12922.2L633.636,12922.4L633.502,12922.6L633.349,12922.8L633.193,12922.9L633.012,12923.2L632.848,12923.3L632.701,12923.5L632.529,12923.6L632.356,12923.8L632.181,12924L631.976,12924.1L631.793,12924.3L631.636,12924.4L631.423,12924.6L631.205,12924.7L631.014,12924.8L630.821,12925L630.595,12925.1L630.367,12925.2L630.168,12925.3L629.968,12925.4L629.734,12925.5L629.496,12925.6L629.292,12925.7L629.088,12925.8L628.847,12925.9L628.568,12926L628.324,12926.1L628.116,12926.1L627.87,12926.2L627.624,12926.2L627.377,12926.3L627.129,12926.3L626.882,12926.3L626.634,12926.4L626.387,12926.4L626.1,12926.4L625.853,12926.4L625.607,12926.4ZM625.607,12921.4L625.736,12921.4L625.865,12921.4L625.993,12921.4L626.119,12921.4L626.245,12921.4L626.37,12921.3L626.494,12921.3L626.617,12921.3L626.739,12921.3L626.859,12921.2L626.979,12921.2L627.097,12921.2L627.214,12921.1L627.33,12921.1L627.445,12921.1L627.558,12921L627.67,12921L627.78,12920.9L627.889,12920.9L627.996,12920.8L628.102,12920.7L628.206,12920.7L628.309,12920.6L628.41,12920.5L628.509,12920.5L628.606,12920.4L628.702,12920.3L628.796,12920.3L628.887,12920.2L628.978,12920.1L629.066,12920L629.152,12919.9L629.236,12919.8L629.318,12919.8L629.398,12919.7L629.475,12919.6L629.551,12919.5L629.624,12919.4L629.695,12919.3L629.764,12919.2L629.831,12919.1L629.895,12919L629.956,12918.9L630.015,12918.8L630.072,12918.7L630.126,12918.6L630.178,12918.4L630.227,12918.3L630.273,12918.2L630.316,12918.1L630.357,12918L630.395,12917.9L630.431,12917.8L630.463,12917.6L630.492,12917.5L630.519,12917.4L630.543,12917.3L630.563,12917.1L630.581,12917L630.595,12916.9L630.606,12916.8L630.614,12916.6L630.619,12916.5L630.621,12916.4L630.619,12916.2L630.614,12916.1L630.606,12916L630.595,12915.9L630.581,12915.7L630.563,12915.6L630.543,12915.5L630.519,12915.4L630.492,12915.2L630.463,12915.1L630.431,12915L630.395,12914.9L630.357,12914.8L630.316,12914.6L630.273,12914.5L630.227,12914.4L630.178,12914.3L630.126,12914.2L630.072,12914.1L630.015,12914L629.956,12913.9L629.895,12913.8L629.831,12913.7L629.764,12913.6L629.695,12913.5L629.624,12913.4L629.551,12913.3L629.475,12913.2L629.398,12913.1L629.318,12913L629.236,12912.9L629.152,12912.8L629.066,12912.7L628.978,12912.7L628.887,12912.6L628.796,12912.5L628.702,12912.4L628.606,12912.4L628.509,12912.3L628.41,12912.2L628.309,12912.1L628.206,12912.1L628.102,12912L627.996,12912L627.889,12911.9L627.78,12911.8L627.67,12911.8L627.558,12911.7L627.445,12911.7L627.33,12911.7L627.214,12911.6L627.097,12911.6L626.979,12911.5L626.859,12911.5L626.739,12911.5L626.617,12911.5L626.494,12911.4L626.37,12911.4L626.245,12911.4L626.119,12911.4L625.993,12911.4L625.865,12911.4L625.736,12911.4L625.607,12911.4L625.478,12911.4L625.349,12911.4L625.221,12911.4L625.095,12911.4L624.969,12911.4L624.844,12911.4L624.72,12911.4L624.597,12911.5L624.475,12911.5L624.355,12911.5L624.235,12911.5L624.117,12911.6L624,12911.6L623.884,12911.7L623.769,12911.7L623.656,12911.7L623.544,12911.8L623.434,12911.8L623.325,12911.9L623.218,12912L623.112,12912L623.008,12912.1L622.905,12912.1L622.805,12912.2L622.705,12912.3L622.608,12912.4L622.512,12912.4L622.418,12912.5L622.327,12912.6L622.237,12912.7L622.148,12912.7L622.062,12912.8L621.978,12912.9L621.896,12913L621.816,12913.1L621.739,12913.2L621.663,12913.3L621.59,12913.4L621.519,12913.5L621.45,12913.6L621.383,12913.7L621.319,12913.8L621.258,12913.9L621.199,12914L621.142,12914.1L621.088,12914.2L621.036,12914.3L620.987,12914.4L620.941,12914.5L620.898,12914.6L620.857,12914.8L620.819,12914.9L620.783,12915L620.751,12915.1L620.722,12915.2L620.695,12915.4L620.671,12915.5L620.651,12915.6L620.633,12915.7L620.619,12915.9L620.608,12916L620.6,12916.1L620.595,12916.2L620.593,12916.4L620.595,12916.5L620.6,12916.6L620.608,12916.8L620.619,12916.9L620.633,12917L620.651,12917.1L620.671,12917.3L620.695,12917.4L620.722,12917.5L620.751,12917.6L620.783,12917.8L620.819,12917.9L620.857,12918L620.898,12918.1L620.941,12918.2L620.987,12918.3L621.036,12918.4L621.088,12918.6L621.142,12918.7L621.199,12918.8L621.258,12918.9L621.319,12919L621.383,12919.1L621.45,12919.2L621.519,12919.3L621.59,12919.4L621.663,12919.5L621.739,12919.6L621.816,12919.7L621.896,12919.8L621.978,12919.8L622.062,12919.9L622.148,12920L622.237,12920.1L622.327,12920.2L622.418,12920.3L622.512,12920.3L622.608,12920.4L622.705,12920.5L622.805,12920.5L622.905,12920.6L623.008,12920.7L623.112,12920.7L623.218,12920.8L623.325,12920.9L623.434,12920.9L623.544,12921L623.656,12921L623.769,12921.1L623.884,12921.1L624,12921.1L624.117,12921.2L624.235,12921.2L624.355,12921.2L624.475,12921.3L624.597,12921.3L624.72,12921.3L624.844,12921.3L624.969,12921.4L625.095,12921.4L625.221,12921.4L625.349,12921.4L625.478,12921.4L625.607,12921.4Z" style="fill:white;fill-opacity:0.501961;"/>
        </g>
        <g transform="matrix(0.398892,1.95309e-19,1.95309e-19,0.398094,386.45,8086.06)">
            <path d="M625.607,12926.4L625.361,12926.4L625.114,12926.4L624.827,12926.4L624.58,12926.4L624.332,12926.3L624.085,12926.3L623.837,12926.3L623.59,12926.2L623.344,12926.2L623.098,12926.1L622.891,12926.1L622.646,12926L622.367,12925.9L622.126,12925.8L621.922,12925.7L621.718,12925.6L621.48,12925.5L621.247,12925.4L621.047,12925.3L620.847,12925.2L620.619,12925.1L620.393,12925L620.2,12924.8L620.009,12924.7L619.791,12924.6L619.578,12924.4L619.421,12924.3L619.238,12924.1L619.033,12924L618.858,12923.8L618.685,12923.6L618.513,12923.5L618.367,12923.3L618.202,12923.2L618.021,12922.9L617.865,12922.8L617.712,12922.6L617.578,12922.4L617.434,12922.2L617.293,12922L617.168,12921.8L617.035,12921.6L616.908,12921.4L616.796,12921.2L616.678,12921L616.566,12920.7L616.474,12920.5L616.371,12920.3L616.274,12920.1L616.188,12919.8L616.108,12919.6L616.032,12919.4L615.96,12919.1L615.895,12918.9L615.838,12918.6L615.783,12918.4L615.736,12918.1L615.694,12917.9L615.659,12917.6L615.631,12917.4L615.608,12917.1L615.592,12916.9L615.582,12916.6L615.579,12916.4L615.582,12916.1L615.592,12915.9L615.608,12915.6L615.631,12915.4L615.659,12915.1L615.694,12914.9L615.736,12914.6L615.783,12914.4L615.838,12914.1L615.895,12913.9L615.96,12913.6L616.032,12913.4L616.108,12913.2L616.188,12912.9L616.274,12912.7L616.371,12912.5L616.474,12912.2L616.566,12912L616.678,12911.8L616.796,12911.6L616.908,12911.4L617.035,12911.2L617.168,12910.9L617.293,12910.8L617.434,12910.6L617.578,12910.4L617.712,12910.2L617.865,12910L618.021,12909.8L618.202,12909.6L618.367,12909.4L618.513,12909.3L618.685,12909.1L618.858,12908.9L619.033,12908.8L619.238,12908.6L619.421,12908.5L619.578,12908.3L619.791,12908.2L620.009,12908L620.2,12907.9L620.393,12907.8L620.619,12907.7L620.847,12907.5L621.047,12907.4L621.247,12907.3L621.48,12907.2L621.718,12907.1L621.922,12907L622.126,12907L622.367,12906.9L622.646,12906.8L622.891,12906.7L623.098,12906.6L623.344,12906.6L623.59,12906.5L623.837,12906.5L624.085,12906.4L624.332,12906.4L624.58,12906.4L624.827,12906.4L625.114,12906.3L625.361,12906.3L625.607,12906.3L625.853,12906.3L626.1,12906.3L626.387,12906.4L626.634,12906.4L626.882,12906.4L627.129,12906.4L627.377,12906.5L627.624,12906.5L627.87,12906.6L628.116,12906.6L628.324,12906.7L628.568,12906.8L628.847,12906.9L629.088,12907L629.292,12907L629.496,12907.1L629.734,12907.2L629.968,12907.3L630.168,12907.4L630.367,12907.5L630.595,12907.7L630.821,12907.8L631.014,12907.9L631.205,12908L631.423,12908.2L631.636,12908.3L631.793,12908.5L631.976,12908.6L632.181,12908.8L632.356,12908.9L632.529,12909.1L632.701,12909.3L632.848,12909.4L633.012,12909.6L633.193,12909.8L633.349,12910L633.502,12910.2L633.636,12910.4L633.78,12910.6L633.921,12910.8L634.046,12910.9L634.179,12911.2L634.306,12911.4L634.419,12911.6L634.536,12911.8L634.648,12912L634.74,12912.2L634.843,12912.5L634.94,12912.7L635.026,12912.9L635.106,12913.2L635.182,12913.4L635.254,12913.6L635.319,12913.9L635.376,12914.1L635.431,12914.4L635.478,12914.6L635.52,12914.9L635.555,12915.1L635.584,12915.4L635.606,12915.6L635.622,12915.9L635.632,12916.1L635.635,12916.4L635.632,12916.6L635.622,12916.9L635.606,12917.1L635.584,12917.4L635.555,12917.6L635.52,12917.9L635.478,12918.1L635.431,12918.4L635.376,12918.6L635.319,12918.9L635.254,12919.1L635.182,12919.4L635.106,12919.6L635.026,12919.8L634.94,12920.1L634.843,12920.3L634.74,12920.5L634.648,12920.7L634.536,12921L634.419,12921.2L634.306,12921.4L634.179,12921.6L634.046,12921.8L633.921,12922L633.78,12922.2L633.636,12922.4L633.502,12922.6L633.349,12922.8L633.193,12922.9L633.012,12923.2L632.848,12923.3L632.701,12923.5L632.529,12923.6L632.356,12923.8L632.181,12924L631.976,12924.1L631.793,12924.3L631.636,12924.4L631.423,12924.6L631.205,12924.7L631.014,12924.8L630.821,12925L630.595,12925.1L630.367,12925.2L630.168,12925.3L629.968,12925.4L629.734,12925.5L629.496,12925.6L629.292,12925.7L629.088,12925.8L628.847,12925.9L628.568,12926L628.324,12926.1L628.116,12926.1L627.87,12926.2L627.624,12926.2L627.377,12926.3L627.129,12926.3L626.882,12926.3L626.634,12926.4L626.387,12926.4L626.1,12926.4L625.853,12926.4L625.607,12926.4ZM625.607,12921.4L625.736,12921.4L625.865,12921.4L625.993,12921.4L626.119,12921.4L626.245,12921.4L626.37,12921.3L626.494,12921.3L626.617,12921.3L626.739,12921.3L626.859,12921.2L626.979,12921.2L627.097,12921.2L627.214,12921.1L627.33,12921.1L627.445,12921.1L627.558,12921L627.67,12921L627.78,12920.9L627.889,12920.9L627.996,12920.8L628.102,12920.7L628.206,12920.7L628.309,12920.6L628.41,12920.5L628.509,12920.5L628.606,12920.4L628.702,12920.3L628.796,12920.3L628.887,12920.2L628.978,12920.1L629.066,12920L629.152,12919.9L629.236,12919.8L629.318,12919.8L629.398,12919.7L629.475,12919.6L629.551,12919.5L629.624,12919.4L629.695,12919.3L629.764,12919.2L629.831,12919.1L629.895,12919L629.956,12918.9L630.015,12918.8L630.072,12918.7L630.126,12918.6L630.178,12918.4L630.227,12918.3L630.273,12918.2L630.316,12918.1L630.357,12918L630.395,12917.9L630.431,12917.8L630.463,12917.6L630.492,12917.5L630.519,12917.4L630.543,12917.3L630.563,12917.1L630.581,12917L630.595,12916.9L630.606,12916.8L630.614,12916.6L630.619,12916.5L630.621,12916.4L630.619,12916.2L630.614,12916.1L630.606,12916L630.595,12915.9L630.581,12915.7L630.563,12915.6L630.543,12915.5L630.519,12915.4L630.492,12915.2L630.463,12915.1L630.431,12915L630.395,12914.9L630.357,12914.8L630.316,12914.6L630.273,12914.5L630.227,12914.4L630.178,12914.3L630.126,12914.2L630.072,12914.1L630.015,12914L629.956,12913.9L629.895,12913.8L629.831,12913.7L629.764,12913.6L629.695,12913.5L629.624,12913.4L629.551,12913.3L629.475,12913.2L629.398,12913.1L629.318,12913L629.236,12912.9L629.152,12912.8L629.066,12912.7L628.978,12912.7L628.887,12912.6L628.796,12912.5L628.702,12912.4L628.606,12912.4L628.509,12912.3L628.41,12912.2L628.309,12912.1L628.206,12912.1L628.102,12912L627.996,12912L627.889,12911.9L627.78,12911.8L627.67,12911.8L627.558,12911.7L627.445,12911.7L627.33,12911.7L627.214,12911.6L627.097,12911.6L626.979,12911.5L626.859,12911.5L626.739,12911.5L626.617,12911.5L626.494,12911.4L626.37,12911.4L626.245,12911.4L626.119,12911.4L625.993,12911.4L625.865,12911.4L625.736,12911.4L625.607,12911.4L625.478,12911.4L625.349,12911.4L625.221,12911.4L625.095,12911.4L624.969,12911.4L624.844,12911.4L624.72,12911.4L624.597,12911.5L624.475,12911.5L624.355,12911.5L624.235,12911.5L624.117,12911.6L624,12911.6L623.884,12911.7L623.769,12911.7L623.656,12911.7L623.544,12911.8L623.434,12911.8L623.325,12911.9L623.218,12912L623.112,12912L623.008,12912.1L622.905,12912.1L622.805,12912.2L622.705,12912.3L622.608,12912.4L622.512,12912.4L622.418,12912.5L622.327,12912.6L622.237,12912.7L622.148,12912.7L622.062,12912.8L621.978,12912.9L621.896,12913L621.816,12913.1L621.739,12913.2L621.663,12913.3L621.59,12913.4L621.519,12913.5L621.45,12913.6L621.383,12913.7L621.319,12913.8L621.258,12913.9L621.199,12914L621.142,12914.1L621.088,12914.2L621.036,12914.3L620.987,12914.4L620.941,12914.5L620.898,12914.6L620.857,12914.8L620.819,12914.9L620.783,12915L620.751,12915.1L620.722,12915.2L620.695,12915.4L620.671,12915.5L620.651,12915.6L620.633,12915.7L620.619,12915.9L620.608,12916L620.6,12916.1L620.595,12916.2L620.593,12916.4L620.595,12916.5L620.6,12916.6L620.608,12916.8L620.619,12916.9L620.633,12917L620.651,12917.1L620.671,12917.3L620.695,12917.4L620.722,12917.5L620.751,12917.6L620.783,12917.8L620.819,12917.9L620.857,12918L620.898,12918.1L620.941,12918.2L620.987,12918.3L621.036,12918.4L621.088,12918.6L621.142,12918.7L621.199,12918.8L621.258,12918.9L621.319,12919L621.383,12919.1L621.45,12919.2L621.519,12919.3L621.59,12919.4L621.663,12919.5L621.739,12919.6L621.816,12919.7L621.896,12919.8L621.978,12919.8L622.062,12919.9L622.148,12920L622.237,12920.1L622.327,12920.2L622.418,12920.3L622.512,12920.3L622.608,12920.4L622.705,12920.5L622.805,12920.5L622.905,12920.6L623.008,12920.7L623.112,12920.7L623.218,12920.8L623.325,12920.9L623.434,12920.9L623.544,12921L623.656,12921L623.769,12921.1L623.884,12921.1L624,12921.1L624.117,12921.2L624.235,12921.2L624.355,12921.2L624.475,12921.3L624.597,12921.3L624.72,12921.3L624.844,12921.3L624.969,12921.4L625.095,12921.4L625.221,12921.4L625.349,12921.4L625.478,12921.4L625.607,12921.4Z" style="fill:white;fill-opacity:0.501961;"/>
        </g>
        <g transform="matrix(0.398892,1.95309e-19,1.95309e-19,0.398094,397.45,8086.06)">
            <path d="M625.607,12926.4L625.361,12926.4L625.114,12926.4L624.827,12926.4L624.58,12926.4L624.332,12926.3L624.085,12926.3L623.837,12926.3L623.59,12926.2L623.344,12926.2L623.098,12926.1L622.891,12926.1L622.646,12926L622.367,12925.9L622.126,12925.8L621.922,12925.7L621.718,12925.6L621.48,12925.5L621.247,12925.4L621.047,12925.3L620.847,12925.2L620.619,12925.1L620.393,12925L620.2,12924.8L620.009,12924.7L619.791,12924.6L619.578,12924.4L619.421,12924.3L619.238,12924.1L619.033,12924L618.858,12923.8L618.685,12923.6L618.513,12923.5L618.367,12923.3L618.202,12923.2L618.021,12922.9L617.865,12922.8L617.712,12922.6L617.578,12922.4L617.434,12922.2L617.293,12922L617.168,12921.8L617.035,12921.6L616.908,12921.4L616.796,12921.2L616.678,12921L616.566,12920.7L616.474,12920.5L616.371,12920.3L616.274,12920.1L616.188,12919.8L616.108,12919.6L616.032,12919.4L615.96,12919.1L615.895,12918.9L615.838,12918.6L615.783,12918.4L615.736,12918.1L615.694,12917.9L615.659,12917.6L615.631,12917.4L615.608,12917.1L615.592,12916.9L615.582,12916.6L615.579,12916.4L615.582,12916.1L615.592,12915.9L615.608,12915.6L615.631,12915.4L615.659,12915.1L615.694,12914.9L615.736,12914.6L615.783,12914.4L615.838,12914.1L615.895,12913.9L615.96,12913.6L616.032,12913.4L616.108,12913.2L616.188,12912.9L616.274,12912.7L616.371,12912.5L616.474,12912.2L616.566,12912L616.678,12911.8L616.796,12911.6L616.908,12911.4L617.035,12911.2L617.168,12910.9L617.293,12910.8L617.434,12910.6L617.578,12910.4L617.712,12910.2L617.865,12910L618.021,12909.8L618.202,12909.6L618.367,12909.4L618.513,12909.3L618.685,12909.1L618.858,12908.9L619.033,12908.8L619.238,12908.6L619.421,12908.5L619.578,12908.3L619.791,12908.2L620.009,12908L620.2,12907.9L620.393,12907.8L620.619,12907.7L620.847,12907.5L621.047,12907.4L621.247,12907.3L621.48,12907.2L621.718,12907.1L621.922,12907L622.126,12907L622.367,12906.9L622.646,12906.8L622.891,12906.7L623.098,12906.6L623.344,12906.6L623.59,12906.5L623.837,12906.5L624.085,12906.4L624.332,12906.4L624.58,12906.4L624.827,12906.4L625.114,12906.3L625.361,12906.3L625.607,12906.3L625.853,12906.3L626.1,12906.3L626.387,12906.4L626.634,12906.4L626.882,12906.4L627.129,12906.4L627.377,12906.5L627.624,12906.5L627.87,12906.6L628.116,12906.6L628.324,12906.7L628.568,12906.8L628.847,12906.9L629.088,12907L629.292,12907L629.496,12907.1L629.734,12907.2L629.968,12907.3L630.168,12907.4L630.367,12907.5L630.595,12907.7L630.821,12907.8L631.014,12907.9L631.205,12908L631.423,12908.2L631.636,12908.3L631.793,12908.5L631.976,12908.6L632.181,12908.8L632.356,12908.9L632.529,12909.1L632.701,12909.3L632.848,12909.4L633.012,12909.6L633.193,12909.8L633.349,12910L633.502,12910.2L633.636,12910.4L633.78,12910.6L633.921,12910.8L634.046,12910.9L634.179,12911.2L634.306,12911.4L634.419,12911.6L634.536,12911.8L634.648,12912L634.74,12912.2L634.843,12912.5L634.94,12912.7L635.026,12912.9L635.106,12913.2L635.182,12913.4L635.254,12913.6L635.319,12913.9L635.376,12914.1L635.431,12914.4L635.478,12914.6L635.52,12914.9L635.555,12915.1L635.584,12915.4L635.606,12915.6L635.622,12915.9L635.632,12916.1L635.635,12916.4L635.632,12916.6L635.622,12916.9L635.606,12917.1L635.584,12917.4L635.555,12917.6L635.52,12917.9L635.478,12918.1L635.431,12918.4L635.376,12918.6L635.319,12918.9L635.254,12919.1L635.182,12919.4L635.106,12919.6L635.026,12919.8L634.94,12920.1L634.843,12920.3L634.74,12920.5L634.648,12920.7L634.536,12921L634.419,12921.2L634.306,12921.4L634.179,12921.6L634.046,12921.8L633.921,12922L633.78,12922.2L633.636,12922.4L633.502,12922.6L633.349,12922.8L633.193,12922.9L633.012,12923.2L632.848,12923.3L632.701,12923.5L632.529,12923.6L632.356,12923.8L632.181,12924L631.976,12924.1L631.793,12924.3L631.636,12924.4L631.423,12924.6L631.205,12924.7L631.014,12924.8L630.821,12925L630.595,12925.1L630.367,12925.2L630.168,12925.3L629.968,12925.4L629.734,12925.5L629.496,12925.6L629.292,12925.7L629.088,12925.8L628.847,12925.9L628.568,12926L628.324,12926.1L628.116,12926.1L627.87,12926.2L627.624,12926.2L627.377,12926.3L627.129,12926.3L626.882,12926.3L626.634,12926.4L626.387,12926.4L626.1,12926.4L625.853,12926.4L625.607,12926.4ZM625.607,12921.4L625.736,12921.4L625.865,12921.4L625.993,12921.4L626.119,12921.4L626.245,12921.4L626.37,12921.3L626.494,12921.3L626.617,12921.3L626.739,12921.3L626.859,12921.2L626.979,12921.2L627.097,12921.2L627.214,12921.1L627.33,12921.1L627.445,12921.1L627.558,12921L627.67,12921L627.78,12920.9L627.889,12920.9L627.996,12920.8L628.102,12920.7L628.206,12920.7L628.309,12920.6L628.41,12920.5L628.509,12920.5L628.606,12920.4L628.702,12920.3L628.796,12920.3L628.887,12920.2L628.978,12920.1L629.066,12920L629.152,12919.9L629.236,12919.8L629.318,12919.8L629.398,12919.7L629.475,12919.6L629.551,12919.5L629.624,12919.4L629.695,12919.3L629.764,12919.2L629.831,12919.1L629.895,12919L629.956,12918.9L630.015,12918.8L630.072,12918.7L630.126,12918.6L630.178,12918.4L630.227,12918.3L630.273,12918.2L630.316,12918.1L630.357,12918L630.395,12917.9L630.431,12917.8L630.463,12917.6L630.492,12917.5L630.519,12917.4L630.543,12917.3L630.563,12917.1L630.581,12917L630.595,12916.9L630.606,12916.8L630.614,12916.6L630.619,12916.5L630.621,12916.4L630.619,12916.2L630.614,12916.1L630.606,12916L630.595,12915.9L630.581,12915.7L630.563,12915.6L630.543,12915.5L630.519,12915.4L630.492,12915.2L630.463,12915.1L630.431,12915L630.395,12914.9L630.357,12914.8L630.316,12914.6L630.273,12914.5L630.227,12914.4L630.178,12914.3L630.126,12914.2L630.072,12914.1L630.015,12914L629.956,12913.9L629.895,12913.8L629.831,12913.7L629.764,12913.6L629.695,12913.5L629.624,12913.4L629.551,12913.3L629.475,12913.2L629.398,12913.1L629.318,12913L629.236,12912.9L629.152,12912.8L629.066,12912.7L628.978,12912.7L628.887,12912.6L628.796,12912.5L628.702,12912.4L628.606,12912.4L628.509,12912.3L628.41,12912.2L628.309,12912.1L628.206,12912.1L628.102,12912L627.996,12912L627.889,12911.9L627.78,12911.8L627.67,12911.8L627.558,12911.7L627.445,12911.7L627.33,12911.7L627.214,12911.6L627.097,12911.6L626.979,12911.5L626.859,12911.5L626.739,12911.5L626.617,12911.5L626.494,12911.4L626.37,12911.4L626.245,12911.4L626.119,12911.4L625.993,12911.4L625.865,12911.4L625.736,12911.4L625.607,12911.4L625.478,12911.4L625.349,12911.4L625.221,12911.4L625.095,12911.4L624.969,12911.4L624.844,12911.4L624.72,12911.4L624.597,12911.5L624.475,12911.5L624.355,12911.5L624.235,12911.5L624.117,12911.6L624,12911.6L623.884,12911.7L623.769,12911.7L623.656,12911.7L623.544,12911.8L623.434,12911.8L623.325,12911.9L623.218,12912L623.112,12912L623.008,12912.1L622.905,12912.1L622.805,12912.2L622.705,12912.3L622.608,12912.4L622.512,12912.4L622.418,12912.5L622.327,12912.6L622.237,12912.7L622.148,12912.7L622.062,12912.8L621.978,12912.9L621.896,12913L621.816,12913.1L621.739,12913.2L621.663,12913.3L621.59,12913.4L621.519,12913.5L621.45,12913.6L621.383,12913.7L621.319,12913.8L621.258,12913.9L621.199,12914L621.142,12914.1L621.088,12914.2L621.036,12914.3L620.987,12914.4L620.941,12914.5L620.898,12914.6L620.857,12914.8L620.819,12914.9L620.783,12915L620.751,12915.1L620.722,12915.2L620.695,12915.4L620.671,12915.5L620.651,12915.6L620.633,12915.7L620.619,12915.9L620.608,12916L620.6,12916.1L620.595,12916.2L620.593,12916.4L620.595,12916.5L620.6,12916.6L620.608,12916.8L620.619,12916.9L620.633,12917L620.651,12917.1L620.671,12917.3L620.695,12917.4L620.722,12917.5L620.751,12917.6L620.783,12917.8L620.819,12917.9L620.857,12918L620.898,12918.1L620.941,12918.2L620.987,12918.3L621.036,12918.4L621.088,12918.6L621.142,12918.7L621.199,12918.8L621.258,12918.9L621.319,12919L621.383,12919.1L621.45,12919.2L621.519,12919.3L621.59,12919.4L621.663,12919.5L621.739,12919.6L621.816,12919.7L621.896,12919.8L621.978,12919.8L622.062,12919.9L622.148,12920L622.237,12920.1L622.327,12920.2L622.418,12920.3L622.512,12920.3L622.608,12920.4L622.705,12920.5L622.805,12920.5L622.905,12920.6L623.008,12920.7L623.112,12920.7L623.218,12920.8L623.325,12920.9L623.434,12920.9L623.544,12921L623.656,12921L623.769,12921.1L623.884,12921.1L624,12921.1L624.117,12921.2L624.235,12921.2L624.355,12921.2L624.475,12921.3L624.597,12921.3L624.72,12921.3L624.844,12921.3L624.969,12921.4L625.095,12921.4L625.221,12921.4L625.349,12921.4L625.478,12921.4L625.607,12921.4Z" style="fill:white;fill-opacity:0.501961;"/>
        </g>
        <g transform="matrix(0.398892,1.95309e-19,1.95309e-19,0.398094,375.45,8098.06)">
            <path d="M625.607,12926.4L625.361,12926.4L625.114,12926.4L624.827,12926.4L624.58,12926.4L624.332,12926.3L624.085,12926.3L623.837,12926.3L623.59,12926.2L623.344,12926.2L623.098,12926.1L622.891,12926.1L622.646,12926L622.367,12925.9L622.126,12925.8L621.922,12925.7L621.718,12925.6L621.48,12925.5L621.247,12925.4L621.047,12925.3L620.847,12925.2L620.619,12925.1L620.393,12925L620.2,12924.8L620.009,12924.7L619.791,12924.6L619.578,12924.4L619.421,12924.3L619.238,12924.1L619.033,12924L618.858,12923.8L618.685,12923.6L618.513,12923.5L618.367,12923.3L618.202,12923.2L618.021,12922.9L617.865,12922.8L617.712,12922.6L617.578,12922.4L617.434,12922.2L617.293,12922L617.168,12921.8L617.035,12921.6L616.908,12921.4L616.796,12921.2L616.678,12921L616.566,12920.7L616.474,12920.5L616.371,12920.3L616.274,12920.1L616.188,12919.8L616.108,12919.6L616.032,12919.4L615.96,12919.1L615.895,12918.9L615.838,12918.6L615.783,12918.4L615.736,12918.1L615.694,12917.9L615.659,12917.6L615.631,12917.4L615.608,12917.1L615.592,12916.9L615.582,12916.6L615.579,12916.4L615.582,12916.1L615.592,12915.9L615.608,12915.6L615.631,12915.4L615.659,12915.1L615.694,12914.9L615.736,12914.6L615.783,12914.4L615.838,12914.1L615.895,12913.9L615.96,12913.6L616.032,12913.4L616.108,12913.2L616.188,12912.9L616.274,12912.7L616.371,12912.5L616.474,12912.2L616.566,12912L616.678,12911.8L616.796,12911.6L616.908,12911.4L617.035,12911.2L617.168,12910.9L617.293,12910.8L617.434,12910.6L617.578,12910.4L617.712,12910.2L617.865,12910L618.021,12909.8L618.202,12909.6L618.367,12909.4L618.513,12909.3L618.685,12909.1L618.858,12908.9L619.033,12908.8L619.238,12908.6L619.421,12908.5L619.578,12908.3L619.791,12908.2L620.009,12908L620.2,12907.9L620.393,12907.8L620.619,12907.7L620.847,12907.5L621.047,12907.4L621.247,12907.3L621.48,12907.2L621.718,12907.1L621.922,12907L622.126,12907L622.367,12906.9L622.646,12906.8L622.891,12906.7L623.098,12906.6L623.344,12906.6L623.59,12906.5L623.837,12906.5L624.085,12906.4L624.332,12906.4L624.58,12906.4L624.827,12906.4L625.114,12906.3L625.361,12906.3L625.607,12906.3L625.853,12906.3L626.1,12906.3L626.387,12906.4L626.634,12906.4L626.882,12906.4L627.129,12906.4L627.377,12906.5L627.624,12906.5L627.87,12906.6L628.116,12906.6L628.324,12906.7L628.568,12906.8L628.847,12906.9L629.088,12907L629.292,12907L629.496,12907.1L629.734,12907.2L629.968,12907.3L630.168,12907.4L630.367,12907.5L630.595,12907.7L630.821,12907.8L631.014,12907.9L631.205,12908L631.423,12908.2L631.636,12908.3L631.793,12908.5L631.976,12908.6L632.181,12908.8L632.356,12908.9L632.529,12909.1L632.701,12909.3L632.848,12909.4L633.012,12909.6L633.193,12909.8L633.349,12910L633.502,12910.2L633.636,12910.4L633.78,12910.6L633.921,12910.8L634.046,12910.9L634.179,12911.2L634.306,12911.4L634.419,12911.6L634.536,12911.8L634.648,12912L634.74,12912.2L634.843,12912.5L634.94,12912.7L635.026,12912.9L635.106,12913.2L635.182,12913.4L635.254,12913.6L635.319,12913.9L635.376,12914.1L635.431,12914.4L635.478,12914.6L635.52,12914.9L635.555,12915.1L635.584,12915.4L635.606,12915.6L635.622,12915.9L635.632,12916.1L635.635,12916.4L635.632,12916.6L635.622,12916.9L635.606,12917.1L635.584,12917.4L635.555,12917.6L635.52,12917.9L635.478,12918.1L635.431,12918.4L635.376,12918.6L635.319,12918.9L635.254,12919.1L635.182,12919.4L635.106,12919.6L635.026,12919.8L634.94,12920.1L634.843,12920.3L634.74,12920.5L634.648,12920.7L634.536,12921L634.419,12921.2L634.306,12921.4L634.179,12921.6L634.046,12921.8L633.921,12922L633.78,12922.2L633.636,12922.4L633.502,12922.6L633.349,12922.8L633.193,12922.9L633.012,12923.2L632.848,12923.3L632.701,12923.5L632.529,12923.6L632.356,12923.8L632.181,12924L631.976,12924.1L631.793,12924.3L631.636,12924.4L631.423,12924.6L631.205,12924.7L631.014,12924.8L630.821,12925L630.595,12925.1L630.367,12925.2L630.168,12925.3L629.968,12925.4L629.734,12925.5L629.496,12925.6L629.292,12925.7L629.088,12925.8L628.847,12925.9L628.568,12926L628.324,12926.1L628.116,12926.1L627.87,12926.2L627.624,12926.2L627.377,12926.3L627.129,12926.3L626.882,12926.3L626.634,12926.4L626.387,12926.4L626.1,12926.4L625.853,12926.4L625.607,12926.4ZM625.607,12921.4L625.736,12921.4L625.865,12921.4L625.993,12921.4L626.119,12921.4L626.245,12921.4L626.37,12921.3L626.494,12921.3L626.617,12921.3L626.739,12921.3L626.859,12921.2L626.979,12921.2L627.097,12921.2L627.214,12921.1L627.33,12921.1L627.445,12921.1L627.558,12921L627.67,12921L627.78,12920.9L627.889,12920.9L627.996,12920.8L628.102,12920.7L628.206,12920.7L628.309,12920.6L628.41,12920.5L628.509,12920.5L628.606,12920.4L628.702,12920.3L628.796,12920.3L628.887,12920.2L628.978,12920.1L629.066,12920L629.152,12919.9L629.236,12919.8L629.318,12919.8L629.398,12919.7L629.475,12919.6L629.551,12919.5L629.624,12919.4L629.695,12919.3L629.764,12919.2L629.831,12919.1L629.895,12919L629.956,12918.9L630.015,12918.8L630.072,12918.7L630.126,12918.6L630.178,12918.4L630.227,12918.3L630.273,12918.2L630.316,12918.1L630.357,12918L630.395,12917.9L630.431,12917.8L630.463,12917.6L630.492,12917.5L630.519,12917.4L630.543,12917.3L630.563,12917.1L630.581,12917L630.595,12916.9L630.606,12916.8L630.614,12916.6L630.619,12916.5L630.621,12916.4L630.619,12916.2L630.614,12916.1L630.606,12916L630.595,12915.9L630.581,12915.7L630.563,12915.6L630.543,12915.5L630.519,12915.4L630.492,12915.2L630.463,12915.1L630.431,12915L630.395,12914.9L630.357,12914.8L630.316,12914.6L630.273,12914.5L630.227,12914.4L630.178,12914.3L630.126,12914.2L630.072,12914.1L630.015,12914L629.956,12913.9L629.895,12913.8L629.831,12913.7L629.764,12913.6L629.695,12913.5L629.624,12913.4L629.551,12913.3L629.475,12913.2L629.398,12913.1L629.318,12913L629.236,12912.9L629.152,12912.8L629.066,12912.7L628.978,12912.7L628.887,12912.6L628.796,12912.5L628.702,12912.4L628.606,12912.4L628.509,12912.3L628.41,12912.2L628.309,12912.1L628.206,12912.1L628.102,12912L627.996,12912L627.889,12911.9L627.78,12911.8L627.67,12911.8L627.558,12911.7L627.445,12911.7L627.33,12911.7L627.214,12911.6L627.097,12911.6L626.979,12911.5L626.859,12911.5L626.739,12911.5L626.617,12911.5L626.494,12911.4L626.37,12911.4L626.245,12911.4L626.119,12911.4L625.993,12911.4L625.865,12911.4L625.736,12911.4L625.607,12911.4L625.478,12911.4L625.349,12911.4L625.221,12911.4L625.095,12911.4L624.969,12911.4L624.844,12911.4L624.72,12911.4L624.597,12911.5L624.475,12911.5L624.355,12911.5L624.235,12911.5L624.117,12911.6L624,12911.6L623.884,12911.7L623.769,12911.7L623.656,12911.7L623.544,12911.8L623.434,12911.8L623.325,12911.9L623.218,12912L623.112,12912L623.008,12912.1L622.905,12912.1L622.805,12912.2L622.705,12912.3L622.608,12912.4L622.512,12912.4L622.418,12912.5L622.327,12912.6L622.237,12912.7L622.148,12912.7L622.062,12912.8L621.978,12912.9L621.896,12913L621.816,12913.1L621.739,12913.2L621.663,12913.3L621.59,12913.4L621.519,12913.5L621.45,12913.6L621.383,12913.7L621.319,12913.8L621.258,12913.9L621.199,12914L621.142,12914.1L621.088,12914.2L621.036,12914.3L620.987,12914.4L620.941,12914.5L620.898,12914.6L620.857,12914.8L620.819,12914.9L620.783,12915L620.751,12915.1L620.722,12915.2L620.695,12915.4L620.671,12915.5L620.651,12915.6L620.633,12915.7L620.619,12915.9L620.608,12916L620.6,12916.1L620.595,12916.2L620.593,12916.4L620.595,12916.5L620.6,12916.6L620.608,12916.8L620.619,12916.9L620.633,12917L620.651,12917.1L620.671,12917.3L620.695,12917.4L620.722,12917.5L620.751,12917.6L620.783,12917.8L620.819,12917.9L620.857,12918L620.898,12918.1L620.941,12918.2L620.987,12918.3L621.036,12918.4L621.088,12918.6L621.142,12918.7L621.199,12918.8L621.258,12918.9L621.319,12919L621.383,12919.1L621.45,12919.2L621.519,12919.3L621.59,12919.4L621.663,12919.5L621.739,12919.6L621.816,12919.7L621.896,12919.8L621.978,12919.8L622.062,12919.9L622.148,12920L622.237,12920.1L622.327,12920.2L622.418,12920.3L622.512,12920.3L622.608,12920.4L622.705,12920.5L622.805,12920.5L622.905,12920.6L623.008,12920.7L623.112,12920.7L623.218,12920.8L623.325,12920.9L623.434,12920.9L623.544,12921L623.656,12921L623.769,12921.1L623.884,12921.1L624,12921.1L624.117,12921.2L624.235,12921.2L624.355,12921.2L624.475,12921.3L624.597,12921.3L624.72,12921.3L624.844,12921.3L624.969,12921.4L625.095,12921.4L625.221,12921.4L625.349,12921.4L625.478,12921.4L625.607,12921.4Z" style="fill:white;fill-opacity:0.501961;"/>
        </g>
        <g transform="matrix(0.398892,1.95309e-19,1.95309e-19,0.398094,386.45,8098.06)">
            <path d="M625.607,12926.4L625.361,12926.4L625.114,12926.4L624.827,12926.4L624.58,12926.4L624.332,12926.3L624.085,12926.3L623.837,12926.3L623.59,12926.2L623.344,12926.2L623.098,12926.1L622.891,12926.1L622.646,12926L622.367,12925.9L622.126,12925.8L621.922,12925.7L621.718,12925.6L621.48,12925.5L621.247,12925.4L621.047,12925.3L620.847,12925.2L620.619,12925.1L620.393,12925L620.2,12924.8L620.009,12924.7L619.791,12924.6L619.578,12924.4L619.421,12924.3L619.238,12924.1L619.033,12924L618.858,12923.8L618.685,12923.6L618.513,12923.5L618.367,12923.3L618.202,12923.2L618.021,12922.9L617.865,12922.8L617.712,12922.6L617.578,12922.4L617.434,12922.2L617.293,12922L617.168,12921.8L617.035,12921.6L616.908,12921.4L616.796,12921.2L616.678,12921L616.566,12920.7L616.474,12920.5L616.371,12920.3L616.274,12920.1L616.188,12919.8L616.108,12919.6L616.032,12919.4L615.96,12919.1L615.895,12918.9L615.838,12918.6L615.783,12918.4L615.736,12918.1L615.694,12917.9L615.659,12917.6L615.631,12917.4L615.608,12917.1L615.592,12916.9L615.582,12916.6L615.579,12916.4L615.582,12916.1L615.592,12915.9L615.608,12915.6L615.631,12915.4L615.659,12915.1L615.694,12914.9L615.736,12914.6L615.783,12914.4L615.838,12914.1L615.895,12913.9L615.96,12913.6L616.032,12913.4L616.108,12913.2L616.188,12912.9L616.274,12912.7L616.371,12912.5L616.474,12912.2L616.566,12912L616.678,12911.8L616.796,12911.6L616.908,12911.4L617.035,12911.2L617.168,12910.9L617.293,12910.8L617.434,12910.6L617.578,12910.4L617.712,12910.2L617.865,12910L618.021,12909.8L618.202,12909.6L618.367,12909.4L618.513,12909.3L618.685,12909.1L618.858,12908.9L619.033,12908.8L619.238,12908.6L619.421,12908.5L619.578,12908.3L619.791,12908.2L620.009,12908L620.2,12907.9L620.393,12907.8L620.619,12907.7L620.847,12907.5L621.047,12907.4L621.247,12907.3L621.48,12907.2L621.718,12907.1L621.922,12907L622.126,12907L622.367,12906.9L622.646,12906.8L622.891,12906.7L623.098,12906.6L623.344,12906.6L623.59,12906.5L623.837,12906.5L624.085,12906.4L624.332,12906.4L624.58,12906.4L624.827,12906.4L625.114,12906.3L625.361,12906.3L625.607,12906.3L625.853,12906.3L626.1,12906.3L626.387,12906.4L626.634,12906.4L626.882,12906.4L627.129,12906.4L627.377,12906.5L627.624,12906.5L627.87,12906.6L628.116,12906.6L628.324,12906.7L628.568,12906.8L628.847,12906.9L629.088,12907L629.292,12907L629.496,12907.1L629.734,12907.2L629.968,12907.3L630.168,12907.4L630.367,12907.5L630.595,12907.7L630.821,12907.8L631.014,12907.9L631.205,12908L631.423,12908.2L631.636,12908.3L631.793,12908.5L631.976,12908.6L632.181,12908.8L632.356,12908.9L632.529,12909.1L632.701,12909.3L632.848,12909.4L633.012,12909.6L633.193,12909.8L633.349,12910L633.502,12910.2L633.636,12910.4L633.78,12910.6L633.921,12910.8L634.046,12910.9L634.179,12911.2L634.306,12911.4L634.419,12911.6L634.536,12911.8L634.648,12912L634.74,12912.2L634.843,12912.5L634.94,12912.7L635.026,12912.9L635.106,12913.2L635.182,12913.4L635.254,12913.6L635.319,12913.9L635.376,12914.1L635.431,12914.4L635.478,12914.6L635.52,12914.9L635.555,12915.1L635.584,12915.4L635.606,12915.6L635.622,12915.9L635.632,12916.1L635.635,12916.4L635.632,12916.6L635.622,12916.9L635.606,12917.1L635.584,12917.4L635.555,12917.6L635.52,12917.9L635.478,12918.1L635.431,12918.4L635.376,12918.6L635.319,12918.9L635.254,12919.1L635.182,12919.4L635.106,12919.6L635.026,12919.8L634.94,12920.1L634.843,12920.3L634.74,12920.5L634.648,12920.7L634.536,12921L634.419,12921.2L634.306,12921.4L634.179,12921.6L634.046,12921.8L633.921,12922L633.78,12922.2L633.636,12922.4L633.502,12922.6L633.349,12922.8L633.193,12922.9L633.012,12923.2L632.848,12923.3L632.701,12923.5L632.529,12923.6L632.356,12923.8L632.181,12924L631.976,12924.1L631.793,12924.3L631.636,12924.4L631.423,12924.6L631.205,12924.7L631.014,12924.8L630.821,12925L630.595,12925.1L630.367,12925.2L630.168,12925.3L629.968,12925.4L629.734,12925.5L629.496,12925.6L629.292,12925.7L629.088,12925.8L628.847,12925.9L628.568,12926L628.324,12926.1L628.116,12926.1L627.87,12926.2L627.624,12926.2L627.377,12926.3L627.129,12926.3L626.882,12926.3L626.634,12926.4L626.387,12926.4L626.1,12926.4L625.853,12926.4L625.607,12926.4ZM625.607,12921.4L625.736,12921.4L625.865,12921.4L625.993,12921.4L626.119,12921.4L626.245,12921.4L626.37,12921.3L626.494,12921.3L626.617,12921.3L626.739,12921.3L626.859,12921.2L626.979,12921.2L627.097,12921.2L627.214,12921.1L627.33,12921.1L627.445,12921.1L627.558,12921L627.67,12921L627.78,12920.9L627.889,12920.9L627.996,12920.8L628.102,12920.7L628.206,12920.7L628.309,12920.6L628.41,12920.5L628.509,12920.5L628.606,12920.4L628.702,12920.3L628.796,12920.3L628.887,12920.2L628.978,12920.1L629.066,12920L629.152,12919.9L629.236,12919.8L629.318,12919.8L629.398,12919.7L629.475,12919.6L629.551,12919.5L629.624,12919.4L629.695,12919.3L629.764,12919.2L629.831,12919.1L629.895,12919L629.956,12918.9L630.015,12918.8L630.072,12918.7L630.126,12918.6L630.178,12918.4L630.227,12918.3L630.273,12918.2L630.316,12918.1L630.357,12918L630.395,12917.9L630.431,12917.8L630.463,12917.6L630.492,12917.5L630.519,12917.4L630.543,12917.3L630.563,12917.1L630.581,12917L630.595,12916.9L630.606,12916.8L630.614,12916.6L630.619,12916.5L630.621,12916.4L630.619,12916.2L630.614,12916.1L630.606,12916L630.595,12915.9L630.581,12915.7L630.563,12915.6L630.543,12915.5L630.519,12915.4L630.492,12915.2L630.463,12915.1L630.431,12915L630.395,12914.9L630.357,12914.8L630.316,12914.6L630.273,12914.5L630.227,12914.4L630.178,12914.3L630.126,12914.2L630.072,12914.1L630.015,12914L629.956,12913.9L629.895,12913.8L629.831,12913.7L629.764,12913.6L629.695,12913.5L629.624,12913.4L629.551,12913.3L629.475,12913.2L629.398,12913.1L629.318,12913L629.236,12912.9L629.152,12912.8L629.066,12912.7L628.978,12912.7L628.887,12912.6L628.796,12912.5L628.702,12912.4L628.606,12912.4L628.509,12912.3L628.41,12912.2L628.309,12912.1L628.206,12912.1L628.102,12912L627.996,12912L627.889,12911.9L627.78,12911.8L627.67,12911.8L627.558,12911.7L627.445,12911.7L627.33,12911.7L627.214,12911.6L627.097,12911.6L626.979,12911.5L626.859,12911.5L626.739,12911.5L626.617,12911.5L626.494,12911.4L626.37,12911.4L626.245,12911.4L626.119,12911.4L625.993,12911.4L625.865,12911.4L625.736,12911.4L625.607,12911.4L625.478,12911.4L625.349,12911.4L625.221,12911.4L625.095,12911.4L624.969,12911.4L624.844,12911.4L624.72,12911.4L624.597,12911.5L624.475,12911.5L624.355,12911.5L624.235,12911.5L624.117,12911.6L624,12911.6L623.884,12911.7L623.769,12911.7L623.656,12911.7L623.544,12911.8L623.434,12911.8L623.325,12911.9L623.218,12912L623.112,12912L623.008,12912.1L622.905,12912.1L622.805,12912.2L622.705,12912.3L622.608,12912.4L622.512,12912.4L622.418,12912.5L622.327,12912.6L622.237,12912.7L622.148,12912.7L622.062,12912.8L621.978,12912.9L621.896,12913L621.816,12913.1L621.739,12913.2L621.663,12913.3L621.59,12913.4L621.519,12913.5L621.45,12913.6L621.383,12913.7L621.319,12913.8L621.258,12913.9L621.199,12914L621.142,12914.1L621.088,12914.2L621.036,12914.3L620.987,12914.4L620.941,12914.5L620.898,12914.6L620.857,12914.8L620.819,12914.9L620.783,12915L620.751,12915.1L620.722,12915.2L620.695,12915.4L620.671,12915.5L620.651,12915.6L620.633,12915.7L620.619,12915.9L620.608,12916L620.6,12916.1L620.595,12916.2L620.593,12916.4L620.595,12916.5L620.6,12916.6L620.608,12916.8L620.619,12916.9L620.633,12917L620.651,12917.1L620.671,12917.3L620.695,12917.4L620.722,12917.5L620.751,12917.6L620.783,12917.8L620.819,12917.9L620.857,12918L620.898,12918.1L620.941,12918.2L620.987,12918.3L621.036,12918.4L621.088,12918.6L621.142,12918.7L621.199,12918.8L621.258,12918.9L621.319,12919L621.383,12919.1L621.45,12919.2L621.519,12919.3L621.59,12919.4L621.663,12919.5L621.739,12919.6L621.816,12919.7L621.896,12919.8L621.978,12919.8L622.062,12919.9L622.148,12920L622.237,12920.1L622.327,12920.2L622.418,12920.3L622.512,12920.3L622.608,12920.4L622.705,12920.5L622.805,12920.5L622.905,12920.6L623.008,12920.7L623.112,12920.7L623.218,12920.8L623.325,12920.9L623.434,12920.9L623.544,12921L623.656,12921L623.769,12921.1L623.884,12921.1L624,12921.1L624.117,12921.2L624.235,12921.2L624.355,12921.2L624.475,12921.3L624.597,12921.3L624.72,12921.3L624.844,12921.3L624.969,12921.4L625.095,12921.4L625.221,12921.4L625.349,12921.4L625.478,12921.4L625.607,12921.4Z" style="fill:white;fill-opacity:0.501961;"/>
        </g>
        <g transform="matrix(0.398892,1.95309e-19,1.95309e-19,0.398094,397.45,8098.06)">
            <path d="M625.607,12926.4L625.361,12926.4L625.114,12926.4L624.827,12926.4L624.58,12926.4L624.332,12926.3L624.085,12926.3L623.837,12926.3L623.59,12926.2L623.344,12926.2L623.098,12926.1L622.891,12926.1L622.646,12926L622.367,12925.9L622.126,12925.8L621.922,12925.7L621.718,12925.6L621.48,12925.5L621.247,12925.4L621.047,12925.3L620.847,12925.2L620.619,12925.1L620.393,12925L620.2,12924.8L620.009,12924.7L619.791,12924.6L619.578,12924.4L619.421,12924.3L619.238,12924.1L619.033,12924L618.858,12923.8L618.685,12923.6L618.513,12923.5L618.367,12923.3L618.202,12923.2L618.021,12922.9L617.865,12922.8L617.712,12922.6L617.578,12922.4L617.434,12922.2L617.293,12922L617.168,12921.8L617.035,12921.6L616.908,12921.4L616.796,12921.2L616.678,12921L616.566,12920.7L616.474,12920.5L616.371,12920.3L616.274,12920.1L616.188,12919.8L616.108,12919.6L616.032,12919.4L615.96,12919.1L615.895,12918.9L615.838,12918.6L615.783,12918.4L615.736,12918.1L615.694,12917.9L615.659,12917.6L615.631,12917.4L615.608,12917.1L615.592,12916.9L615.582,12916.6L615.579,12916.4L615.582,12916.1L615.592,12915.9L615.608,12915.6L615.631,12915.4L615.659,12915.1L615.694,12914.9L615.736,12914.6L615.783,12914.4L615.838,12914.1L615.895,12913.9L615.96,12913.6L616.032,12913.4L616.108,12913.2L616.188,12912.9L616.274,12912.7L616.371,12912.5L616.474,12912.2L616.566,12912L616.678,12911.8L616.796,12911.6L616.908,12911.4L617.035,12911.2L617.168,12910.9L617.293,12910.8L617.434,12910.6L617.578,12910.4L617.712,12910.2L617.865,12910L618.021,12909.8L618.202,12909.6L618.367,12909.4L618.513,12909.3L618.685,12909.1L618.858,12908.9L619.033,12908.8L619.238,12908.6L619.421,12908.5L619.578,12908.3L619.791,12908.2L620.009,12908L620.2,12907.9L620.393,12907.8L620.619,12907.7L620.847,12907.5L621.047,12907.4L621.247,12907.3L621.48,12907.2L621.718,12907.1L621.922,12907L622.126,12907L622.367,12906.9L622.646,12906.8L622.891,12906.7L623.098,12906.6L623.344,12906.6L623.59,12906.5L623.837,12906.5L624.085,12906.4L624.332,12906.4L624.58,12906.4L624.827,12906.4L625.114,12906.3L625.361,12906.3L625.607,12906.3L625.853,12906.3L626.1,12906.3L626.387,12906.4L626.634,12906.4L626.882,12906.4L627.129,12906.4L627.377,12906.5L627.624,12906.5L627.87,12906.6L628.116,12906.6L628.324,12906.7L628.568,12906.8L628.847,12906.9L629.088,12907L629.292,12907L629.496,12907.1L629.734,12907.2L629.968,12907.3L630.168,12907.4L630.367,12907.5L630.595,12907.7L630.821,12907.8L631.014,12907.9L631.205,12908L631.423,12908.2L631.636,12908.3L631.793,12908.5L631.976,12908.6L632.181,12908.8L632.356,12908.9L632.529,12909.1L632.701,12909.3L632.848,12909.4L633.012,12909.6L633.193,12909.8L633.349,12910L633.502,12910.2L633.636,12910.4L633.78,12910.6L633.921,12910.8L634.046,12910.9L634.179,12911.2L634.306,12911.4L634.419,12911.6L634.536,12911.8L634.648,12912L634.74,12912.2L634.843,12912.5L634.94,12912.7L635.026,12912.9L635.106,12913.2L635.182,12913.4L635.254,12913.6L635.319,12913.9L635.376,12914.1L635.431,12914.4L635.478,12914.6L635.52,12914.9L635.555,12915.1L635.584,12915.4L635.606,12915.6L635.622,12915.9L635.632,12916.1L635.635,12916.4L635.632,12916.6L635.622,12916.9L635.606,12917.1L635.584,12917.4L635.555,12917.6L635.52,12917.9L635.478,12918.1L635.431,12918.4L635.376,12918.6L635.319,12918.9L635.254,12919.1L635.182,12919.4L635.106,12919.6L635.026,12919.8L634.94,12920.1L634.843,12920.3L634.74,12920.5L634.648,12920.7L634.536,12921L634.419,12921.2L634.306,12921.4L634.179,12921.6L634.046,12921.8L633.921,12922L633.78,12922.2L633.636,12922.4L633.502,12922.6L633.349,12922.8L633.193,12922.9L633.012,12923.2L632.848,12923.3L632.701,12923.5L632.529,12923.6L632.356,12923.8L632.181,12924L631.976,12924.1L631.793,12924.3L631.636,12924.4L631.423,12924.6L631.205,12924.7L631.014,12924.8L630.821,12925L630.595,12925.1L630.367,12925.2L630.168,12925.3L629.968,12925.4L629.734,12925.5L629.496,12925.6L629.292,12925.7L629.088,12925.8L628.847,12925.9L628.568,12926L628.324,12926.1L628.116,12926.1L627.87,12926.2L627.624,12926.2L627.377,12926.3L627.129,12926.3L626.882,12926.3L626.634,12926.4L626.387,12926.4L626.1,12926.4L625.853,12926.4L625.607,12926.4ZM625.607,12921.4L625.736,12921.4L625.865,12921.4L625.993,12921.4L626.119,12921.4L626.245,12921.4L626.37,12921.3L626.494,12921.3L626.617,12921.3L626.739,12921.3L626.859,12921.2L626.979,12921.2L627.097,12921.2L627.214,12921.1L627.33,12921.1L627.445,12921.1L627.558,12921L627.67,12921L627.78,12920.9L627.889,12920.9L627.996,12920.8L628.102,12920.7L628.206,12920.7L628.309,12920.6L628.41,12920.5L628.509,12920.5L628.606,12920.4L628.702,12920.3L628.796,12920.3L628.887,12920.2L628.978,12920.1L629.066,12920L629.152,12919.9L629.236,12919.8L629.318,12919.8L629.398,12919.7L629.475,12919.6L629.551,12919.5L629.624,12919.4L629.695,12919.3L629.764,12919.2L629.831,12919.1L629.895,12919L629.956,12918.9L630.015,12918.8L630.072,12918.7L630.126,12918.6L630.178,12918.4L630.227,12918.3L630.273,12918.2L630.316,12918.1L630.357,12918L630.395,12917.9L630.431,12917.8L630.463,12917.6L630.492,12917.5L630.519,12917.4L630.543,12917.3L630.563,12917.1L630.581,12917L630.595,12916.9L630.606,12916.8L630.614,12916.6L630.619,12916.5L630.621,12916.4L630.619,12916.2L630.614,12916.1L630.606,12916L630.595,12915.9L630.581,12915.7L630.563,12915.6L630.543,12915.5L630.519,12915.4L630.492,12915.2L630.463,12915.1L630.431,12915L630.395,12914.9L630.357,12914.8L630.316,12914.6L630.273,12914.5L630.227,12914.4L630.178,12914.3L630.126,12914.2L630.072,12914.1L630.015,12914L629.956,12913.9L629.895,12913.8L629.831,12913.7L629.764,12913.6L629.695,12913.5L629.624,12913.4L629.551,12913.3L629.475,12913.2L629.398,12913.1L629.318,12913L629.236,12912.9L629.152,12912.8L629.066,12912.7L628.978,12912.7L628.887,12912.6L628.796,12912.5L628.702,12912.4L628.606,12912.4L628.509,12912.3L628.41,12912.2L628.309,12912.1L628.206,12912.1L628.102,12912L627.996,12912L627.889,12911.9L627.78,12911.8L627.67,12911.8L627.558,12911.7L627.445,12911.7L627.33,12911.7L627.214,12911.6L627.097,12911.6L626.979,12911.5L626.859,12911.5L626.739,12911.5L626.617,12911.5L626.494,12911.4L626.37,12911.4L626.245,12911.4L626.119,12911.4L625.993,12911.4L625.865,12911.4L625.736,12911.4L625.607,12911.4L625.478,12911.4L625.349,12911.4L625.221,12911.4L625.095,12911.4L624.969,12911.4L624.844,12911.4L624.72,12911.4L624.597,12911.5L624.475,12911.5L624.355,12911.5L624.235,12911.5L624.117,12911.6L624,12911.6L623.884,12911.7L623.769,12911.7L623.656,12911.7L623.544,12911.8L623.434,12911.8L623.325,12911.9L623.218,12912L623.112,12912L623.008,12912.1L622.905,12912.1L622.805,12912.2L622.705,12912.3L622.608,12912.4L622.512,12912.4L622.418,12912.5L622.327,12912.6L622.237,12912.7L622.148,12912.7L622.062,12912.8L621.978,12912.9L621.896,12913L621.816,12913.1L621.739,12913.2L621.663,12913.3L621.59,12913.4L621.519,12913.5L621.45,12913.6L621.383,12913.7L621.319,12913.8L621.258,12913.9L621.199,12914L621.142,12914.1L621.088,12914.2L621.036,12914.3L620.987,12914.4L620.941,12914.5L620.898,12914.6L620.857,12914.8L620.819,12914.9L620.783,12915L620.751,12915.1L620.722,12915.2L620.695,12915.4L620.671,12915.5L620.651,12915.6L620.633,12915.7L620.619,12915.9L620.608,12916L620.6,12916.1L620.595,12916.2L620.593,12916.4L620.595,12916.5L620.6,12916.6L620.608,12916.8L620.619,12916.9L620.633,12917L620.651,12917.1L620.671,12917.3L620.695,12917.4L620.722,12917.5L620.751,12917.6L620.783,12917.8L620.819,12917.9L620.857,12918L620.898,12918.1L620.941,12918.2L620.987,12918.3L621.036,12918.4L621.088,12918.6L621.142,12918.7L621.199,12918.8L621.258,12918.9L621.319,12919L621.383,12919.1L621.45,12919.2L621.519,12919.3L621.59,12919.4L621.663,12919.5L621.739,12919.6L621.816,12919.7L621.896,12919.8L621.978,12919.8L622.062,12919.9L622.148,12920L622.237,12920.1L622.327,12920.2L622.418,12920.3L622.512,12920.3L622.608,12920.4L622.705,12920.5L622.805,12920.5L622.905,12920.6L623.008,12920.7L623.112,12920.7L623.218,12920.8L623.325,12920.9L623.434,12920.9L623.544,12921L623.656,12921L623.769,12921.1L623.884,12921.1L624,12921.1L624.117,12921.2L624.235,12921.2L624.355,12921.2L624.475,12921.3L624.597,12921.3L624.72,12921.3L624.844,12921.3L624.969,12921.4L625.095,12921.4L625.221,12921.4L625.349,12921.4L625.478,12921.4L625.607,12921.4Z" style="fill:white;fill-opacity:0.501961;"/>
        </g>
        <g transform="matrix(1.58025,1.55027e-16,1.55027e-16,0.947301,-369.823,885.214)">
            <rect x="627.017" y="13016.8" width="18.984" height="2.111" style="fill:white;fill-opacity:0.498039;"/>
        </g>
        <g transform="matrix(1.00479,-4.93038e-32,-4.93038e-32,1.00479,-2.94837,-63.6947)">
            <path d="M614.057,13251.2L614.057,13207.5L657.847,13207.5L657.847,13251.2L614.057,13251.2ZM616.047,13249.2L655.857,13249.2L655.857,13209.5L616.047,13209.5L616.047,13249.2Z" style="fill:white;fill-opacity:0.501961;"/>
        </g>
    </g>
</svg>
