<?xml version="1.0" standalone="no"?>
<!DOCTYPE svg PUBLIC "-//W3C//DTD SVG 1.1//EN" "http://www.w3.org/Graphics/SVG/1.1/DTD/svg11.dtd">
<svg width="100%" height="100%" viewBox="0 0 39 39" version="1.1" xmlns="http://www.w3.org/2000/svg" xmlns:xlink="http://www.w3.org/1999/xlink" xml:space="preserve" style="fill-rule:evenodd;clip-rule:evenodd;stroke-linejoin:round;stroke-miterlimit:1.41421;">
    <g transform="matrix(1,0,0,1,-616.536,-12908.5)">
        <g>
            <g transform="matrix(1,0,0,1,-0.593129,0.646814)">
                <path d="M625.527,12923.4L625.431,12923.4L625.335,12923.4L625.239,12923.4L625.16,12923.4L625.064,12923.4L624.969,12923.4L624.905,12923.4L624.81,12923.4L624.714,12923.3L624.635,12923.3L624.541,12923.3L624.446,12923.3L624.367,12923.3L624.289,12923.3L624.195,12923.3L624.101,12923.2L624.023,12923.2L623.945,12923.2L623.852,12923.2L623.76,12923.2L623.683,12923.1L623.606,12923.1L623.529,12923.1L623.438,12923.1L623.347,12923L623.286,12923L623.196,12923L623.106,12922.9L623.031,12922.9L622.956,12922.9L622.874,12922.8L622.72,12922.8L622.567,12922.7L622.408,12922.6L622.258,12922.5L622.116,12922.5L621.969,12922.4L621.825,12922.3L621.682,12922.2L621.542,12922.1L621.408,12922L621.277,12921.9L621.143,12921.8L621.017,12921.7L620.892,12921.6L620.765,12921.5L620.645,12921.3L620.528,12921.2L620.417,12921.1L620.305,12921L620.192,12920.8L620.089,12920.7L619.989,12920.6L619.888,12920.4L619.79,12920.3L619.698,12920.2L619.61,12920L619.524,12919.9L619.441,12919.7L619.361,12919.6L619.285,12919.4L619.214,12919.3L619.146,12919.1L619.112,12919L619.082,12919L619.05,12918.9L619.019,12918.8L618.989,12918.7L618.962,12918.6L618.935,12918.5L618.909,12918.5L618.884,12918.4L618.859,12918.3L618.836,12918.2L618.814,12918.1L618.793,12918L618.773,12918L618.753,12917.9L618.736,12917.8L618.719,12917.7L618.703,12917.6L618.687,12917.5L618.674,12917.4L618.661,12917.4L618.649,12917.3L618.639,12917.2L618.629,12917.1L618.621,12917L618.613,12916.9L618.607,12916.8L618.602,12916.7L618.598,12916.6L618.595,12916.6L618.594,12916.5L618.593,12916.4L618.594,12916.3L618.595,12916.2L618.598,12916.1L618.602,12916L618.607,12915.9L618.613,12915.8L618.621,12915.8L618.629,12915.7L618.639,12915.6L618.649,12915.5L618.661,12915.4L618.674,12915.3L618.688,12915.2L618.703,12915.1L618.718,12915.1L618.736,12915L618.754,12914.9L618.773,12914.8L618.792,12914.7L618.815,12914.6L618.836,12914.5L618.859,12914.5L618.884,12914.4L618.909,12914.3L618.935,12914.2L618.961,12914.1L618.991,12914L619.021,12914L619.05,12913.9L619.079,12913.8L619.112,12913.7L619.147,12913.6L619.213,12913.5L619.286,12913.3L619.362,12913.2L619.44,12913L619.522,12912.9L619.61,12912.7L619.701,12912.6L619.793,12912.4L619.885,12912.3L619.986,12912.2L620.092,12912L620.196,12911.9L620.301,12911.8L620.413,12911.7L620.528,12911.5L620.65,12911.4L620.769,12911.3L620.887,12911.2L621.017,12911.1L621.143,12911L621.272,12910.9L621.408,12910.8L621.547,12910.6L621.682,12910.6L621.825,12910.5L621.969,12910.4L622.11,12910.3L622.265,12910.2L622.415,12910.1L622.56,12910.1L622.713,12910L622.874,12909.9L622.956,12909.9L623.031,12909.8L623.12,12909.8L623.196,12909.8L623.271,12909.8L623.362,12909.7L623.438,12909.7L623.515,12909.7L623.606,12909.6L623.698,12909.6L623.775,12909.6L623.852,12909.6L623.93,12909.6L624.023,12909.5L624.117,12909.5L624.195,12909.5L624.273,12909.5L624.367,12909.5L624.462,12909.4L624.541,12909.4L624.62,12909.4L624.714,12909.4L624.81,12909.4L624.889,12909.4L624.984,12909.4L625.064,12909.4L625.16,12909.4L625.255,12909.4L625.335,12909.4L625.431,12909.4L625.511,12909.4L625.607,12909.4L625.783,12909.4L625.879,12909.4L626.055,12909.4L626.23,12909.4L626.325,12909.4L626.404,12909.4L626.5,12909.4L626.594,12909.4L626.673,12909.4L626.752,12909.4L626.847,12909.5L626.941,12909.5L627.019,12909.5L627.097,12909.5L627.191,12909.5L627.284,12909.6L627.362,12909.6L627.439,12909.6L627.516,12909.6L627.608,12909.6L627.699,12909.7L627.776,12909.7L627.852,12909.7L627.943,12909.8L628.018,12909.8L628.094,12909.8L628.183,12909.8L628.258,12909.9L628.34,12909.9L628.501,12910L628.654,12910.1L628.799,12910.1L628.949,12910.2L629.104,12910.3L629.245,12910.4L629.389,12910.5L629.532,12910.6L629.667,12910.6L629.806,12910.8L629.942,12910.9L630.071,12911L630.198,12911.1L630.327,12911.2L630.445,12911.3L630.564,12911.4L630.686,12911.5L630.801,12911.7L630.913,12911.8L631.018,12911.9L631.122,12912L631.228,12912.2L631.329,12912.3L631.421,12912.4L631.513,12912.6L631.604,12912.7L631.692,12912.9L631.775,12913L631.852,12913.2L631.928,12913.3L632.001,12913.5L632.067,12913.6L632.102,12913.7L632.135,12913.8L632.164,12913.9L632.193,12914L632.223,12914L632.253,12914.1L632.279,12914.2L632.305,12914.3L632.33,12914.4L632.355,12914.5L632.378,12914.5L632.399,12914.6L632.422,12914.7L632.441,12914.8L632.46,12914.9L632.479,12915L632.496,12915.1L632.511,12915.1L632.526,12915.2L632.54,12915.3L632.553,12915.4L632.565,12915.5L632.575,12915.6L632.585,12915.7L632.593,12915.8L632.601,12915.8L632.607,12915.9L632.612,12916L632.616,12916.1L632.619,12916.2L632.62,12916.3L632.621,12916.4L632.62,12916.5L632.619,12916.6L632.616,12916.6L632.612,12916.7L632.607,12916.8L632.601,12916.9L632.593,12917L632.585,12917.1L632.575,12917.2L632.565,12917.3L632.553,12917.4L632.54,12917.4L632.527,12917.5L632.511,12917.6L632.495,12917.7L632.479,12917.8L632.461,12917.9L632.441,12918L632.421,12918L632.4,12918.1L632.378,12918.2L632.355,12918.3L632.33,12918.4L632.305,12918.5L632.279,12918.5L632.252,12918.6L632.225,12918.7L632.195,12918.8L632.164,12918.9L632.132,12919L632.102,12919L632.068,12919.1L632,12919.3L631.929,12919.4L631.854,12919.6L631.773,12919.7L631.69,12919.9L631.604,12920L631.516,12920.2L631.424,12920.3L631.326,12920.4L631.225,12920.6L631.125,12920.7L631.022,12920.8L630.909,12921L630.797,12921.1L630.686,12921.2L630.569,12921.3L630.449,12921.5L630.322,12921.6L630.198,12921.7L630.071,12921.8L629.937,12921.9L629.806,12922L629.673,12922.1L629.532,12922.2L629.389,12922.3L629.245,12922.4L629.098,12922.5L628.956,12922.5L628.806,12922.6L628.647,12922.7L628.494,12922.8L628.34,12922.8L628.258,12922.9L628.183,12922.9L628.108,12922.9L628.018,12923L627.928,12923L627.867,12923L627.776,12923.1L627.685,12923.1L627.608,12923.1L627.531,12923.1L627.454,12923.2L627.362,12923.2L627.269,12923.2L627.191,12923.2L627.113,12923.2L627.019,12923.3L626.925,12923.3L626.847,12923.3L626.768,12923.3L626.673,12923.3L626.579,12923.3L626.5,12923.3L626.404,12923.4L626.309,12923.4L626.245,12923.4L626.15,12923.4L626.054,12923.4L625.975,12923.4L625.879,12923.4L625.783,12923.4L625.687,12923.4L625.527,12923.4ZM625.607,12921.4L625.672,12921.4L625.736,12921.4L625.801,12921.4L625.865,12921.4L625.929,12921.4L625.993,12921.4L626.056,12921.4L626.119,12921.4L626.182,12921.4L626.245,12921.4L626.308,12921.4L626.37,12921.3L626.432,12921.3L626.494,12921.3L626.556,12921.3L626.617,12921.3L626.678,12921.3L626.739,12921.3L626.799,12921.3L626.859,12921.2L626.919,12921.2L626.979,12921.2L627.038,12921.2L627.097,12921.2L627.156,12921.2L627.214,12921.1L627.272,12921.1L627.33,12921.1L627.388,12921.1L627.445,12921.1L627.501,12921L627.558,12921L627.67,12921L627.78,12920.9L627.889,12920.9L627.996,12920.8L628.102,12920.7L628.206,12920.7L628.309,12920.6L628.41,12920.5L628.509,12920.5L628.606,12920.4L628.702,12920.3L628.796,12920.3L628.887,12920.2L628.978,12920.1L629.066,12920L629.152,12919.9L629.236,12919.8L629.318,12919.8L629.398,12919.7L629.475,12919.6L629.551,12919.5L629.624,12919.4L629.695,12919.3L629.764,12919.2L629.831,12919.1L629.895,12919L629.956,12918.9L630.015,12918.8L630.072,12918.7L630.126,12918.6L630.178,12918.4L630.227,12918.3L630.25,12918.3L630.273,12918.2L630.295,12918.2L630.316,12918.1L630.337,12918L630.357,12918L630.377,12917.9L630.395,12917.9L630.413,12917.8L630.431,12917.8L630.447,12917.7L630.463,12917.6L630.478,12917.6L630.492,12917.5L630.506,12917.5L630.519,12917.4L630.531,12917.3L630.543,12917.3L630.553,12917.2L630.563,12917.1L630.572,12917.1L630.581,12917L630.588,12917L630.595,12916.9L630.601,12916.8L630.606,12916.8L630.611,12916.7L630.614,12916.6L630.617,12916.6L630.619,12916.5L630.62,12916.4L630.621,12916.4L630.62,12916.3L630.619,12916.2L630.617,12916.2L630.614,12916.1L630.611,12916.1L630.606,12916L630.601,12915.9L630.595,12915.9L630.588,12915.8L630.581,12915.7L630.572,12915.7L630.563,12915.6L630.553,12915.6L630.543,12915.5L630.531,12915.4L630.519,12915.4L630.506,12915.3L630.492,12915.2L630.478,12915.2L630.463,12915.1L630.447,12915.1L630.431,12915L630.413,12914.9L630.395,12914.9L630.377,12914.8L630.357,12914.8L630.337,12914.7L630.316,12914.6L630.295,12914.6L630.273,12914.5L630.25,12914.5L630.227,12914.4L630.178,12914.3L630.126,12914.2L630.072,12914.1L630.015,12914L629.956,12913.9L629.895,12913.8L629.831,12913.7L629.764,12913.6L629.695,12913.5L629.624,12913.4L629.551,12913.3L629.475,12913.2L629.398,12913.1L629.318,12913L629.236,12912.9L629.152,12912.8L629.066,12912.7L628.978,12912.7L628.887,12912.6L628.796,12912.5L628.702,12912.4L628.606,12912.4L628.509,12912.3L628.41,12912.2L628.309,12912.1L628.206,12912.1L628.102,12912L627.996,12912L627.889,12911.9L627.78,12911.8L627.67,12911.8L627.558,12911.7L627.501,12911.7L627.445,12911.7L627.388,12911.7L627.33,12911.7L627.272,12911.6L627.214,12911.6L627.156,12911.6L627.097,12911.6L627.038,12911.6L626.979,12911.5L626.919,12911.5L626.859,12911.5L626.799,12911.5L626.739,12911.5L626.678,12911.5L626.617,12911.5L626.556,12911.4L626.494,12911.4L626.432,12911.4L626.37,12911.4L626.308,12911.4L626.245,12911.4L626.182,12911.4L626.119,12911.4L626.056,12911.4L625.993,12911.4L625.929,12911.4L625.865,12911.4L625.801,12911.4L625.736,12911.4L625.672,12911.4L625.607,12911.4L625.542,12911.4L625.478,12911.4L625.413,12911.4L625.349,12911.4L625.285,12911.4L625.221,12911.4L625.158,12911.4L625.095,12911.4L625.032,12911.4L624.969,12911.4L624.906,12911.4L624.844,12911.4L624.782,12911.4L624.72,12911.4L624.658,12911.4L624.597,12911.5L624.536,12911.5L624.475,12911.5L624.415,12911.5L624.355,12911.5L624.295,12911.5L624.235,12911.5L624.176,12911.6L624.117,12911.6L624.058,12911.6L624,12911.6L623.942,12911.6L623.884,12911.7L623.826,12911.7L623.769,12911.7L623.713,12911.7L623.656,12911.7L623.544,12911.8L623.434,12911.8L623.325,12911.9L623.218,12912L623.112,12912L623.008,12912.1L622.905,12912.1L622.805,12912.2L622.705,12912.3L622.608,12912.4L622.512,12912.4L622.418,12912.5L622.327,12912.6L622.237,12912.7L622.148,12912.7L622.062,12912.8L621.978,12912.9L621.896,12913L621.816,12913.1L621.739,12913.2L621.663,12913.3L621.59,12913.4L621.519,12913.5L621.45,12913.6L621.383,12913.7L621.319,12913.8L621.258,12913.9L621.199,12914L621.142,12914.1L621.088,12914.2L621.036,12914.3L620.987,12914.4L620.964,12914.5L620.941,12914.5L620.919,12914.6L620.898,12914.6L620.877,12914.7L620.857,12914.8L620.837,12914.8L620.819,12914.9L620.801,12914.9L620.783,12915L620.767,12915.1L620.751,12915.1L620.736,12915.2L620.722,12915.2L620.708,12915.3L620.695,12915.4L620.683,12915.4L620.671,12915.5L620.661,12915.6L620.651,12915.6L620.642,12915.7L620.633,12915.7L620.626,12915.8L620.619,12915.9L620.613,12915.9L620.608,12916L620.603,12916.1L620.6,12916.1L620.597,12916.2L620.595,12916.2L620.594,12916.3L620.593,12916.4L620.594,12916.4L620.595,12916.5L620.597,12916.6L620.6,12916.6L620.603,12916.7L620.608,12916.8L620.613,12916.8L620.619,12916.9L620.626,12917L620.633,12917L620.642,12917.1L620.651,12917.1L620.661,12917.2L620.671,12917.3L620.683,12917.3L620.695,12917.4L620.708,12917.5L620.722,12917.5L620.736,12917.6L620.751,12917.6L620.767,12917.7L620.783,12917.8L620.801,12917.8L620.819,12917.9L620.837,12917.9L620.857,12918L620.877,12918L620.898,12918.1L620.919,12918.2L620.941,12918.2L620.964,12918.3L620.987,12918.3L621.036,12918.4L621.088,12918.6L621.142,12918.7L621.199,12918.8L621.258,12918.9L621.319,12919L621.383,12919.1L621.45,12919.2L621.519,12919.3L621.59,12919.4L621.663,12919.5L621.739,12919.6L621.816,12919.7L621.896,12919.8L621.978,12919.8L622.062,12919.9L622.148,12920L622.237,12920.1L622.327,12920.2L622.418,12920.3L622.512,12920.3L622.608,12920.4L622.705,12920.5L622.805,12920.5L622.905,12920.6L623.008,12920.7L623.112,12920.7L623.218,12920.8L623.325,12920.9L623.434,12920.9L623.544,12921L623.656,12921L623.713,12921L623.769,12921.1L623.826,12921.1L623.884,12921.1L623.942,12921.1L624,12921.1L624.058,12921.2L624.117,12921.2L624.176,12921.2L624.235,12921.2L624.295,12921.2L624.355,12921.2L624.415,12921.3L624.475,12921.3L624.536,12921.3L624.597,12921.3L624.658,12921.3L624.72,12921.3L624.782,12921.3L624.844,12921.3L624.906,12921.4L624.969,12921.4L625.032,12921.4L625.095,12921.4L625.158,12921.4L625.221,12921.4L625.285,12921.4L625.349,12921.4L625.413,12921.4L625.478,12921.4L625.542,12921.4L625.607,12921.4Z" style="fill:white;fill-opacity:0.501961;"/>
            </g>
            <g transform="matrix(1,0,0,1,21.4069,0.646814)">
                <path d="M625.527,12923.4L625.431,12923.4L625.335,12923.4L625.239,12923.4L625.16,12923.4L625.064,12923.4L624.969,12923.4L624.905,12923.4L624.81,12923.4L624.714,12923.3L624.635,12923.3L624.541,12923.3L624.446,12923.3L624.367,12923.3L624.289,12923.3L624.195,12923.3L624.101,12923.2L624.023,12923.2L623.945,12923.2L623.852,12923.2L623.76,12923.2L623.683,12923.1L623.606,12923.1L623.529,12923.1L623.438,12923.1L623.347,12923L623.286,12923L623.196,12923L623.106,12922.9L623.031,12922.9L622.956,12922.9L622.874,12922.8L622.72,12922.8L622.567,12922.7L622.408,12922.6L622.258,12922.5L622.116,12922.5L621.969,12922.4L621.825,12922.3L621.682,12922.2L621.542,12922.1L621.409,12922L621.277,12921.9L621.143,12921.8L621.017,12921.7L620.892,12921.6L620.765,12921.5L620.645,12921.3L620.528,12921.2L620.417,12921.1L620.305,12921L620.192,12920.8L620.089,12920.7L619.989,12920.6L619.888,12920.4L619.79,12920.3L619.698,12920.2L619.61,12920L619.524,12919.9L619.441,12919.7L619.361,12919.6L619.285,12919.4L619.214,12919.3L619.146,12919.1L619.112,12919L619.082,12919L619.05,12918.9L619.019,12918.8L618.989,12918.7L618.962,12918.6L618.935,12918.5L618.909,12918.5L618.884,12918.4L618.859,12918.3L618.836,12918.2L618.814,12918.1L618.793,12918L618.773,12918L618.753,12917.9L618.736,12917.8L618.719,12917.7L618.703,12917.6L618.687,12917.5L618.674,12917.4L618.661,12917.4L618.649,12917.3L618.639,12917.2L618.629,12917.1L618.621,12917L618.614,12916.9L618.607,12916.8L618.602,12916.7L618.598,12916.6L618.595,12916.6L618.594,12916.5L618.593,12916.4L618.594,12916.3L618.595,12916.2L618.598,12916.1L618.602,12916L618.607,12915.9L618.614,12915.8L618.621,12915.8L618.629,12915.7L618.639,12915.6L618.649,12915.5L618.661,12915.4L618.674,12915.3L618.688,12915.2L618.703,12915.1L618.718,12915.1L618.736,12915L618.754,12914.9L618.773,12914.8L618.792,12914.7L618.815,12914.6L618.836,12914.5L618.859,12914.5L618.884,12914.4L618.909,12914.3L618.935,12914.2L618.961,12914.1L618.991,12914L619.021,12914L619.05,12913.9L619.079,12913.8L619.112,12913.7L619.147,12913.6L619.213,12913.5L619.286,12913.3L619.362,12913.2L619.44,12913L619.522,12912.9L619.61,12912.7L619.701,12912.6L619.793,12912.4L619.885,12912.3L619.986,12912.2L620.092,12912L620.196,12911.9L620.301,12911.8L620.413,12911.7L620.528,12911.5L620.65,12911.4L620.769,12911.3L620.887,12911.2L621.017,12911.1L621.143,12911L621.272,12910.9L621.409,12910.8L621.547,12910.6L621.682,12910.6L621.825,12910.5L621.969,12910.4L622.11,12910.3L622.265,12910.2L622.415,12910.1L622.56,12910.1L622.713,12910L622.874,12909.9L622.956,12909.9L623.031,12909.8L623.12,12909.8L623.196,12909.8L623.271,12909.8L623.362,12909.7L623.438,12909.7L623.515,12909.7L623.606,12909.6L623.698,12909.6L623.775,12909.6L623.852,12909.6L623.93,12909.6L624.023,12909.5L624.117,12909.5L624.195,12909.5L624.273,12909.5L624.367,12909.5L624.462,12909.4L624.541,12909.4L624.62,12909.4L624.714,12909.4L624.81,12909.4L624.889,12909.4L624.984,12909.4L625.064,12909.4L625.16,12909.4L625.255,12909.4L625.335,12909.4L625.431,12909.4L625.511,12909.4L625.607,12909.4L625.783,12909.4L625.879,12909.4L626.055,12909.4L626.23,12909.4L626.325,12909.4L626.405,12909.4L626.5,12909.4L626.594,12909.4L626.673,12909.4L626.752,12909.4L626.847,12909.5L626.941,12909.5L627.019,12909.5L627.097,12909.5L627.191,12909.5L627.284,12909.6L627.361,12909.6L627.439,12909.6L627.516,12909.6L627.608,12909.6L627.699,12909.7L627.776,12909.7L627.852,12909.7L627.943,12909.8L628.018,12909.8L628.094,12909.8L628.183,12909.8L628.258,12909.9L628.34,12909.9L628.501,12910L628.654,12910.1L628.799,12910.1L628.949,12910.2L629.104,12910.3L629.245,12910.4L629.389,12910.5L629.532,12910.6L629.667,12910.6L629.806,12910.8L629.942,12910.9L630.071,12911L630.198,12911.1L630.327,12911.2L630.445,12911.3L630.565,12911.4L630.686,12911.5L630.801,12911.7L630.913,12911.8L631.018,12911.9L631.122,12912L631.228,12912.2L631.329,12912.3L631.421,12912.4L631.513,12912.6L631.604,12912.7L631.692,12912.9L631.775,12913L631.852,12913.2L631.928,12913.3L632.001,12913.5L632.067,12913.6L632.102,12913.7L632.135,12913.8L632.164,12913.9L632.193,12914L632.223,12914L632.253,12914.1L632.279,12914.2L632.305,12914.3L632.33,12914.4L632.355,12914.5L632.378,12914.5L632.399,12914.6L632.422,12914.7L632.441,12914.8L632.46,12914.9L632.478,12915L632.496,12915.1L632.511,12915.1L632.526,12915.2L632.54,12915.3L632.553,12915.4L632.565,12915.5L632.575,12915.6L632.585,12915.7L632.593,12915.8L632.601,12915.8L632.607,12915.9L632.612,12916L632.616,12916.1L632.619,12916.2L632.62,12916.3L632.621,12916.4L632.62,12916.5L632.619,12916.6L632.616,12916.6L632.612,12916.7L632.607,12916.8L632.601,12916.9L632.593,12917L632.585,12917.1L632.575,12917.2L632.565,12917.3L632.553,12917.4L632.54,12917.4L632.526,12917.5L632.511,12917.6L632.495,12917.7L632.478,12917.8L632.461,12917.9L632.441,12918L632.421,12918L632.4,12918.1L632.378,12918.2L632.355,12918.3L632.33,12918.4L632.305,12918.5L632.279,12918.5L632.252,12918.6L632.225,12918.7L632.195,12918.8L632.164,12918.9L632.132,12919L632.102,12919L632.068,12919.1L632,12919.3L631.929,12919.4L631.854,12919.6L631.773,12919.7L631.69,12919.9L631.604,12920L631.515,12920.2L631.424,12920.3L631.326,12920.4L631.225,12920.6L631.125,12920.7L631.022,12920.8L630.909,12921L630.797,12921.1L630.686,12921.2L630.569,12921.3L630.449,12921.5L630.322,12921.6L630.198,12921.7L630.071,12921.8L629.937,12921.9L629.806,12922L629.673,12922.1L629.532,12922.2L629.389,12922.3L629.245,12922.4L629.098,12922.5L628.956,12922.5L628.806,12922.6L628.648,12922.7L628.494,12922.8L628.34,12922.8L628.258,12922.9L628.183,12922.9L628.108,12922.9L628.018,12923L627.928,12923L627.867,12923L627.776,12923.1L627.685,12923.1L627.608,12923.1L627.531,12923.1L627.454,12923.2L627.361,12923.2L627.269,12923.2L627.191,12923.2L627.113,12923.2L627.019,12923.3L626.925,12923.3L626.847,12923.3L626.768,12923.3L626.673,12923.3L626.579,12923.3L626.5,12923.3L626.405,12923.4L626.309,12923.4L626.245,12923.4L626.15,12923.4L626.054,12923.4L625.975,12923.4L625.879,12923.4L625.783,12923.4L625.687,12923.4L625.527,12923.4ZM625.607,12921.4L625.672,12921.4L625.736,12921.4L625.801,12921.4L625.865,12921.4L625.929,12921.4L625.993,12921.4L626.056,12921.4L626.119,12921.4L626.182,12921.4L626.245,12921.4L626.308,12921.4L626.37,12921.3L626.432,12921.3L626.494,12921.3L626.556,12921.3L626.617,12921.3L626.678,12921.3L626.739,12921.3L626.799,12921.3L626.859,12921.2L626.919,12921.2L626.979,12921.2L627.038,12921.2L627.097,12921.2L627.156,12921.2L627.214,12921.1L627.272,12921.1L627.33,12921.1L627.388,12921.1L627.445,12921.1L627.501,12921L627.558,12921L627.67,12921L627.78,12920.9L627.889,12920.9L627.996,12920.8L628.102,12920.7L628.206,12920.7L628.309,12920.6L628.41,12920.5L628.509,12920.5L628.606,12920.4L628.702,12920.3L628.796,12920.3L628.887,12920.2L628.978,12920.1L629.066,12920L629.152,12919.9L629.236,12919.8L629.318,12919.8L629.398,12919.7L629.475,12919.6L629.551,12919.5L629.624,12919.4L629.695,12919.3L629.764,12919.2L629.831,12919.1L629.895,12919L629.956,12918.9L630.015,12918.8L630.072,12918.7L630.126,12918.6L630.178,12918.4L630.227,12918.3L630.25,12918.3L630.273,12918.2L630.295,12918.2L630.316,12918.1L630.337,12918L630.357,12918L630.377,12917.9L630.395,12917.9L630.413,12917.8L630.431,12917.8L630.447,12917.7L630.463,12917.6L630.478,12917.6L630.492,12917.5L630.506,12917.5L630.519,12917.4L630.531,12917.3L630.543,12917.3L630.553,12917.2L630.563,12917.1L630.572,12917.1L630.581,12917L630.588,12917L630.595,12916.9L630.601,12916.8L630.606,12916.8L630.611,12916.7L630.614,12916.6L630.617,12916.6L630.619,12916.5L630.62,12916.4L630.621,12916.4L630.62,12916.3L630.619,12916.2L630.617,12916.2L630.614,12916.1L630.611,12916.1L630.606,12916L630.601,12915.9L630.595,12915.9L630.588,12915.8L630.581,12915.7L630.572,12915.7L630.563,12915.6L630.553,12915.6L630.543,12915.5L630.531,12915.4L630.519,12915.4L630.506,12915.3L630.492,12915.2L630.478,12915.2L630.463,12915.1L630.447,12915.1L630.431,12915L630.413,12914.9L630.395,12914.9L630.377,12914.8L630.357,12914.8L630.337,12914.7L630.316,12914.6L630.295,12914.6L630.273,12914.5L630.25,12914.5L630.227,12914.4L630.178,12914.3L630.126,12914.2L630.072,12914.1L630.015,12914L629.956,12913.9L629.895,12913.8L629.831,12913.7L629.764,12913.6L629.695,12913.5L629.624,12913.4L629.551,12913.3L629.475,12913.2L629.398,12913.1L629.318,12913L629.236,12912.9L629.152,12912.8L629.066,12912.7L628.978,12912.7L628.887,12912.6L628.796,12912.5L628.702,12912.4L628.606,12912.4L628.509,12912.3L628.41,12912.2L628.309,12912.1L628.206,12912.1L628.102,12912L627.996,12912L627.889,12911.9L627.78,12911.8L627.67,12911.8L627.558,12911.7L627.501,12911.7L627.445,12911.7L627.388,12911.7L627.33,12911.7L627.272,12911.6L627.214,12911.6L627.156,12911.6L627.097,12911.6L627.038,12911.6L626.979,12911.5L626.919,12911.5L626.859,12911.5L626.799,12911.5L626.739,12911.5L626.678,12911.5L626.617,12911.5L626.556,12911.4L626.494,12911.4L626.432,12911.4L626.37,12911.4L626.308,12911.4L626.245,12911.4L626.182,12911.4L626.119,12911.4L626.056,12911.4L625.993,12911.4L625.929,12911.4L625.865,12911.4L625.801,12911.4L625.736,12911.4L625.672,12911.4L625.607,12911.4L625.542,12911.4L625.478,12911.4L625.413,12911.4L625.349,12911.4L625.285,12911.4L625.221,12911.4L625.158,12911.4L625.095,12911.4L625.032,12911.4L624.969,12911.4L624.906,12911.4L624.844,12911.4L624.782,12911.4L624.72,12911.4L624.658,12911.4L624.597,12911.5L624.536,12911.5L624.475,12911.5L624.415,12911.5L624.355,12911.5L624.295,12911.5L624.235,12911.5L624.176,12911.6L624.117,12911.6L624.058,12911.6L624,12911.6L623.942,12911.6L623.884,12911.7L623.826,12911.7L623.769,12911.7L623.713,12911.7L623.656,12911.7L623.544,12911.8L623.434,12911.8L623.325,12911.9L623.218,12912L623.112,12912L623.008,12912.1L622.905,12912.1L622.805,12912.2L622.705,12912.3L622.608,12912.4L622.512,12912.4L622.418,12912.5L622.327,12912.6L622.237,12912.7L622.148,12912.7L622.062,12912.8L621.978,12912.9L621.896,12913L621.816,12913.1L621.739,12913.2L621.663,12913.3L621.59,12913.4L621.519,12913.5L621.45,12913.6L621.383,12913.7L621.319,12913.8L621.258,12913.9L621.199,12914L621.142,12914.1L621.088,12914.2L621.036,12914.3L620.987,12914.4L620.964,12914.5L620.941,12914.5L620.919,12914.6L620.898,12914.6L620.877,12914.7L620.857,12914.8L620.837,12914.8L620.819,12914.9L620.801,12914.9L620.783,12915L620.767,12915.1L620.751,12915.1L620.736,12915.2L620.722,12915.2L620.708,12915.3L620.695,12915.4L620.683,12915.4L620.671,12915.5L620.661,12915.6L620.651,12915.6L620.642,12915.7L620.633,12915.7L620.626,12915.8L620.619,12915.9L620.613,12915.9L620.608,12916L620.603,12916.1L620.6,12916.1L620.597,12916.2L620.595,12916.2L620.594,12916.3L620.593,12916.4L620.594,12916.4L620.595,12916.5L620.597,12916.6L620.6,12916.6L620.603,12916.7L620.608,12916.8L620.613,12916.8L620.619,12916.9L620.626,12917L620.633,12917L620.642,12917.1L620.651,12917.1L620.661,12917.2L620.671,12917.3L620.683,12917.3L620.695,12917.4L620.708,12917.5L620.722,12917.5L620.736,12917.6L620.751,12917.6L620.767,12917.7L620.783,12917.8L620.801,12917.8L620.819,12917.9L620.837,12917.9L620.857,12918L620.877,12918L620.898,12918.1L620.919,12918.2L620.941,12918.2L620.964,12918.3L620.987,12918.3L621.036,12918.4L621.088,12918.6L621.142,12918.7L621.199,12918.8L621.258,12918.9L621.319,12919L621.383,12919.1L621.45,12919.2L621.519,12919.3L621.59,12919.4L621.663,12919.5L621.739,12919.6L621.816,12919.7L621.896,12919.8L621.978,12919.8L622.062,12919.9L622.148,12920L622.237,12920.1L622.327,12920.2L622.418,12920.3L622.512,12920.3L622.608,12920.4L622.705,12920.5L622.805,12920.5L622.905,12920.6L623.008,12920.7L623.112,12920.7L623.218,12920.8L623.325,12920.9L623.434,12920.9L623.544,12921L623.656,12921L623.713,12921L623.769,12921.1L623.826,12921.1L623.884,12921.1L623.942,12921.1L624,12921.1L624.058,12921.2L624.117,12921.2L624.176,12921.2L624.235,12921.2L624.295,12921.2L624.355,12921.2L624.415,12921.3L624.475,12921.3L624.536,12921.3L624.597,12921.3L624.658,12921.3L624.72,12921.3L624.782,12921.3L624.844,12921.3L624.906,12921.4L624.969,12921.4L625.032,12921.4L625.095,12921.4L625.158,12921.4L625.221,12921.4L625.285,12921.4L625.349,12921.4L625.413,12921.4L625.478,12921.4L625.542,12921.4L625.607,12921.4Z" style="fill:white;fill-opacity:0.501961;"/>
            </g>
            <g transform="matrix(1,0,0,1,21.4069,22.6468)">
                <path d="M625.527,12923.4L625.431,12923.4L625.335,12923.4L625.239,12923.4L625.16,12923.4L625.08,12923.4L624.984,12923.4L624.889,12923.4L624.794,12923.4L624.714,12923.3L624.635,12923.3L624.541,12923.3L624.446,12923.3L624.367,12923.3L624.289,12923.3L624.195,12923.3L624.101,12923.2L624.023,12923.2L623.945,12923.2L623.852,12923.2L623.775,12923.2L623.683,12923.1L623.606,12923.1L623.529,12923.1L623.438,12923.1L623.362,12923L623.271,12923L623.181,12923L623.106,12922.9L623.045,12922.9L622.956,12922.9L622.86,12922.8L622.72,12922.8L622.567,12922.7L622.415,12922.6L622.265,12922.6L622.11,12922.5L621.963,12922.4L621.825,12922.3L621.682,12922.2L621.547,12922.1L621.409,12922L621.272,12921.9L621.148,12921.8L621.017,12921.7L620.887,12921.6L620.765,12921.5L620.645,12921.3L620.532,12921.2L620.417,12921.1L620.301,12921L620.196,12920.8L620.089,12920.7L619.986,12920.6L619.888,12920.4L619.793,12920.3L619.698,12920.2L619.608,12920L619.524,12919.9L619.441,12919.7L619.361,12919.6L619.285,12919.4L619.214,12919.3L619.148,12919.1L619.112,12919L619.079,12918.9L619.05,12918.9L619.019,12918.8L618.989,12918.7L618.962,12918.6L618.936,12918.6L618.909,12918.5L618.884,12918.4L618.859,12918.3L618.835,12918.2L618.814,12918.1L618.793,12918L618.773,12918L618.754,12917.9L618.736,12917.8L618.718,12917.7L618.703,12917.6L618.687,12917.5L618.674,12917.4L618.661,12917.4L618.649,12917.3L618.639,12917.2L618.629,12917.1L618.621,12917L618.614,12916.9L618.607,12916.8L618.602,12916.7L618.598,12916.6L618.595,12916.6L618.594,12916.5L618.593,12916.4L618.594,12916.3L618.595,12916.2L618.598,12916.1L618.602,12916L618.607,12915.9L618.614,12915.8L618.621,12915.8L618.629,12915.7L618.639,12915.6L618.649,12915.5L618.661,12915.4L618.674,12915.3L618.688,12915.2L618.702,12915.1L618.718,12915.1L618.736,12915L618.754,12914.9L618.773,12914.8L618.793,12914.7L618.814,12914.6L618.835,12914.5L618.859,12914.5L618.884,12914.4L618.909,12914.3L618.936,12914.2L618.962,12914.1L618.989,12914L619.019,12914L619.05,12913.9L619.079,12913.8L619.112,12913.7L619.148,12913.6L619.214,12913.5L619.285,12913.3L619.361,12913.2L619.441,12913L619.524,12912.9L619.608,12912.7L619.698,12912.6L619.793,12912.4L619.888,12912.3L619.986,12912.2L620.089,12912L620.196,12911.9L620.301,12911.8L620.413,12911.7L620.532,12911.5L620.65,12911.4L620.765,12911.3L620.887,12911.2L621.017,12911.1L621.143,12911L621.272,12910.9L621.409,12910.8L621.547,12910.6L621.688,12910.6L621.825,12910.5L621.963,12910.4L622.11,12910.3L622.265,12910.2L622.415,12910.1L622.56,12910.1L622.72,12910L622.867,12909.9L622.956,12909.9L623.031,12909.8L623.106,12909.8L623.196,12909.8L623.271,12909.8L623.362,12909.7L623.438,12909.7L623.515,12909.7L623.606,12909.6L623.698,12909.6L623.775,12909.6L623.852,12909.6L623.945,12909.6L624.023,12909.5L624.101,12909.5L624.195,12909.5L624.289,12909.5L624.367,12909.5L624.446,12909.4L624.541,12909.4L624.635,12909.4L624.714,12909.4L624.794,12909.4L624.889,12909.4L624.984,12909.4L625.08,12909.4L625.16,12909.4L625.239,12909.4L625.335,12909.4L625.431,12909.4L625.511,12909.4L625.607,12909.4L625.783,12909.4L625.879,12909.4L625.975,12909.4L626.134,12909.4L626.23,12909.4L626.325,12909.4L626.42,12909.4L626.5,12909.4L626.579,12909.4L626.673,12909.4L626.768,12909.4L626.847,12909.5L626.925,12909.5L627.019,12909.5L627.113,12909.5L627.191,12909.5L627.269,12909.6L627.361,12909.6L627.439,12909.6L627.516,12909.6L627.608,12909.6L627.699,12909.7L627.776,12909.7L627.852,12909.7L627.943,12909.8L628.018,12909.8L628.108,12909.8L628.183,12909.8L628.258,12909.9L628.347,12909.9L628.494,12910L628.654,12910.1L628.799,12910.1L628.949,12910.2L629.104,12910.3L629.251,12910.4L629.389,12910.5L629.526,12910.6L629.667,12910.6L629.806,12910.8L629.942,12910.9L630.071,12911L630.198,12911.1L630.327,12911.2L630.449,12911.3L630.565,12911.4L630.682,12911.5L630.801,12911.7L630.913,12911.8L631.018,12911.9L631.125,12912L631.228,12912.2L631.326,12912.3L631.421,12912.4L631.515,12912.6L631.607,12912.7L631.69,12912.9L631.773,12913L631.854,12913.2L631.929,12913.3L632,12913.5L632.066,12913.6L632.102,12913.7L632.135,12913.8L632.164,12913.9L632.195,12914L632.225,12914L632.252,12914.1L632.278,12914.2L632.305,12914.3L632.33,12914.4L632.355,12914.5L632.379,12914.5L632.4,12914.6L632.421,12914.7L632.441,12914.8L632.46,12914.9L632.478,12915L632.496,12915.1L632.512,12915.1L632.526,12915.2L632.54,12915.3L632.553,12915.4L632.565,12915.5L632.575,12915.6L632.585,12915.7L632.593,12915.8L632.601,12915.8L632.607,12915.9L632.612,12916L632.616,12916.1L632.619,12916.2L632.62,12916.3L632.621,12916.4L632.62,12916.5L632.619,12916.6L632.616,12916.6L632.612,12916.7L632.607,12916.8L632.601,12916.9L632.593,12917L632.585,12917.1L632.575,12917.2L632.565,12917.3L632.553,12917.4L632.54,12917.4L632.526,12917.5L632.511,12917.6L632.496,12917.7L632.478,12917.8L632.46,12917.9L632.441,12918L632.421,12918L632.4,12918.1L632.379,12918.2L632.355,12918.3L632.33,12918.4L632.305,12918.5L632.278,12918.6L632.252,12918.6L632.225,12918.7L632.195,12918.8L632.164,12918.9L632.135,12918.9L632.102,12919L632.066,12919.1L632,12919.3L631.929,12919.4L631.854,12919.6L631.773,12919.7L631.69,12919.9L631.607,12920L631.515,12920.2L631.421,12920.3L631.326,12920.4L631.228,12920.6L631.125,12920.7L631.018,12920.8L630.913,12921L630.797,12921.1L630.682,12921.2L630.569,12921.3L630.449,12921.5L630.327,12921.6L630.198,12921.7L630.066,12921.8L629.942,12921.9L629.806,12922L629.667,12922.1L629.532,12922.2L629.389,12922.3L629.251,12922.4L629.104,12922.5L628.949,12922.6L628.799,12922.6L628.648,12922.7L628.494,12922.8L628.354,12922.8L628.258,12922.9L628.169,12922.9L628.108,12922.9L628.033,12923L627.943,12923L627.852,12923L627.776,12923.1L627.685,12923.1L627.608,12923.1L627.531,12923.1L627.439,12923.2L627.361,12923.2L627.269,12923.2L627.191,12923.2L627.113,12923.2L627.019,12923.3L626.925,12923.3L626.847,12923.3L626.768,12923.3L626.673,12923.3L626.579,12923.3L626.5,12923.3L626.42,12923.4L626.325,12923.4L626.23,12923.4L626.134,12923.4L626.054,12923.4L625.975,12923.4L625.879,12923.4L625.783,12923.4L625.687,12923.4L625.527,12923.4ZM625.607,12921.4L625.672,12921.4L625.736,12921.4L625.801,12921.4L625.865,12921.4L625.929,12921.4L625.993,12921.4L626.056,12921.4L626.119,12921.4L626.182,12921.4L626.245,12921.4L626.308,12921.4L626.37,12921.3L626.432,12921.3L626.494,12921.3L626.556,12921.3L626.617,12921.3L626.678,12921.3L626.739,12921.3L626.799,12921.3L626.859,12921.2L626.919,12921.2L626.979,12921.2L627.038,12921.2L627.097,12921.2L627.156,12921.2L627.214,12921.1L627.272,12921.1L627.33,12921.1L627.388,12921.1L627.445,12921.1L627.501,12921L627.558,12921L627.67,12921L627.78,12920.9L627.889,12920.9L627.996,12920.8L628.102,12920.7L628.206,12920.7L628.309,12920.6L628.41,12920.5L628.509,12920.5L628.606,12920.4L628.702,12920.3L628.796,12920.3L628.887,12920.2L628.978,12920.1L629.066,12920L629.152,12919.9L629.236,12919.8L629.318,12919.8L629.398,12919.7L629.475,12919.6L629.551,12919.5L629.624,12919.4L629.695,12919.3L629.764,12919.2L629.831,12919.1L629.895,12919L629.956,12918.9L630.015,12918.8L630.072,12918.7L630.126,12918.6L630.178,12918.4L630.227,12918.3L630.25,12918.3L630.273,12918.2L630.295,12918.2L630.316,12918.1L630.337,12918L630.357,12918L630.377,12917.9L630.395,12917.9L630.413,12917.8L630.431,12917.8L630.447,12917.7L630.463,12917.6L630.478,12917.6L630.492,12917.5L630.506,12917.5L630.519,12917.4L630.531,12917.3L630.543,12917.3L630.553,12917.2L630.563,12917.1L630.572,12917.1L630.581,12917L630.588,12917L630.595,12916.9L630.601,12916.8L630.606,12916.8L630.611,12916.7L630.614,12916.6L630.617,12916.6L630.619,12916.5L630.62,12916.4L630.621,12916.4L630.62,12916.3L630.619,12916.2L630.617,12916.2L630.614,12916.1L630.611,12916.1L630.606,12916L630.601,12915.9L630.595,12915.9L630.588,12915.8L630.581,12915.7L630.572,12915.7L630.563,12915.6L630.553,12915.6L630.543,12915.5L630.531,12915.4L630.519,12915.4L630.506,12915.3L630.492,12915.2L630.478,12915.2L630.463,12915.1L630.447,12915.1L630.431,12915L630.413,12914.9L630.395,12914.9L630.377,12914.8L630.357,12914.8L630.337,12914.7L630.316,12914.6L630.295,12914.6L630.273,12914.5L630.25,12914.5L630.227,12914.4L630.178,12914.3L630.126,12914.2L630.072,12914.1L630.015,12914L629.956,12913.9L629.895,12913.8L629.831,12913.7L629.764,12913.6L629.695,12913.5L629.624,12913.4L629.551,12913.3L629.475,12913.2L629.398,12913.1L629.318,12913L629.236,12912.9L629.152,12912.8L629.066,12912.7L628.978,12912.7L628.887,12912.6L628.796,12912.5L628.702,12912.4L628.606,12912.4L628.509,12912.3L628.41,12912.2L628.309,12912.1L628.206,12912.1L628.102,12912L627.996,12912L627.889,12911.9L627.78,12911.8L627.67,12911.8L627.558,12911.7L627.501,12911.7L627.445,12911.7L627.388,12911.7L627.33,12911.7L627.272,12911.6L627.214,12911.6L627.156,12911.6L627.097,12911.6L627.038,12911.6L626.979,12911.5L626.919,12911.5L626.859,12911.5L626.799,12911.5L626.739,12911.5L626.678,12911.5L626.617,12911.5L626.556,12911.4L626.494,12911.4L626.432,12911.4L626.37,12911.4L626.308,12911.4L626.245,12911.4L626.182,12911.4L626.119,12911.4L626.056,12911.4L625.993,12911.4L625.929,12911.4L625.865,12911.4L625.801,12911.4L625.736,12911.4L625.672,12911.4L625.607,12911.4L625.542,12911.4L625.478,12911.4L625.413,12911.4L625.349,12911.4L625.285,12911.4L625.221,12911.4L625.158,12911.4L625.095,12911.4L625.032,12911.4L624.969,12911.4L624.906,12911.4L624.844,12911.4L624.782,12911.4L624.72,12911.4L624.658,12911.4L624.597,12911.5L624.536,12911.5L624.475,12911.5L624.415,12911.5L624.355,12911.5L624.295,12911.5L624.235,12911.5L624.176,12911.6L624.117,12911.6L624.058,12911.6L624,12911.6L623.942,12911.6L623.884,12911.7L623.826,12911.7L623.769,12911.7L623.713,12911.7L623.656,12911.7L623.544,12911.8L623.434,12911.8L623.325,12911.9L623.218,12912L623.112,12912L623.008,12912.1L622.905,12912.1L622.805,12912.2L622.705,12912.3L622.608,12912.4L622.512,12912.4L622.418,12912.5L622.327,12912.6L622.237,12912.7L622.148,12912.7L622.062,12912.8L621.978,12912.9L621.896,12913L621.816,12913.1L621.739,12913.2L621.663,12913.3L621.59,12913.4L621.519,12913.5L621.45,12913.6L621.383,12913.7L621.319,12913.8L621.258,12913.9L621.199,12914L621.142,12914.1L621.088,12914.2L621.036,12914.3L620.987,12914.4L620.964,12914.5L620.941,12914.5L620.919,12914.6L620.898,12914.6L620.877,12914.7L620.857,12914.8L620.837,12914.8L620.819,12914.9L620.801,12914.9L620.783,12915L620.767,12915.1L620.751,12915.1L620.736,12915.2L620.722,12915.2L620.708,12915.3L620.695,12915.4L620.683,12915.4L620.671,12915.5L620.661,12915.6L620.651,12915.6L620.642,12915.7L620.633,12915.7L620.626,12915.8L620.619,12915.9L620.613,12915.9L620.608,12916L620.603,12916.1L620.6,12916.1L620.597,12916.2L620.595,12916.2L620.594,12916.3L620.593,12916.4L620.594,12916.4L620.595,12916.5L620.597,12916.6L620.6,12916.6L620.603,12916.7L620.608,12916.8L620.613,12916.8L620.619,12916.9L620.626,12917L620.633,12917L620.642,12917.1L620.651,12917.1L620.661,12917.2L620.671,12917.3L620.683,12917.3L620.695,12917.4L620.708,12917.5L620.722,12917.5L620.736,12917.6L620.751,12917.6L620.767,12917.7L620.783,12917.8L620.801,12917.8L620.819,12917.9L620.837,12917.9L620.857,12918L620.877,12918L620.898,12918.1L620.919,12918.2L620.941,12918.2L620.964,12918.3L620.987,12918.3L621.036,12918.4L621.088,12918.6L621.142,12918.7L621.199,12918.8L621.258,12918.9L621.319,12919L621.383,12919.1L621.45,12919.2L621.519,12919.3L621.59,12919.4L621.663,12919.5L621.739,12919.6L621.816,12919.7L621.896,12919.8L621.978,12919.8L622.062,12919.9L622.148,12920L622.237,12920.1L622.327,12920.2L622.418,12920.3L622.512,12920.3L622.608,12920.4L622.705,12920.5L622.805,12920.5L622.905,12920.6L623.008,12920.7L623.112,12920.7L623.218,12920.8L623.325,12920.9L623.434,12920.9L623.544,12921L623.656,12921L623.713,12921L623.769,12921.1L623.826,12921.1L623.884,12921.1L623.942,12921.1L624,12921.1L624.058,12921.2L624.117,12921.2L624.176,12921.2L624.235,12921.2L624.295,12921.2L624.355,12921.2L624.415,12921.3L624.475,12921.3L624.536,12921.3L624.597,12921.3L624.658,12921.3L624.72,12921.3L624.782,12921.3L624.844,12921.3L624.906,12921.4L624.969,12921.4L625.032,12921.4L625.095,12921.4L625.158,12921.4L625.221,12921.4L625.285,12921.4L625.349,12921.4L625.413,12921.4L625.478,12921.4L625.542,12921.4L625.607,12921.4Z" style="fill:white;fill-opacity:0.501961;"/>
            </g>
            <g transform="matrix(1,0,0,1,-0.593129,22.6468)">
                <path d="M625.527,12923.4L625.431,12923.4L625.335,12923.4L625.239,12923.4L625.16,12923.4L625.08,12923.4L624.984,12923.4L624.889,12923.4L624.794,12923.4L624.714,12923.3L624.635,12923.3L624.541,12923.3L624.446,12923.3L624.367,12923.3L624.289,12923.3L624.195,12923.3L624.101,12923.2L624.023,12923.2L623.945,12923.2L623.852,12923.2L623.775,12923.2L623.683,12923.1L623.606,12923.1L623.529,12923.1L623.438,12923.1L623.362,12923L623.271,12923L623.181,12923L623.106,12922.9L623.045,12922.9L622.956,12922.9L622.86,12922.8L622.72,12922.8L622.567,12922.7L622.415,12922.6L622.265,12922.6L622.11,12922.5L621.963,12922.4L621.825,12922.3L621.682,12922.2L621.547,12922.1L621.408,12922L621.272,12921.9L621.148,12921.8L621.017,12921.7L620.887,12921.6L620.765,12921.5L620.645,12921.3L620.532,12921.2L620.417,12921.1L620.301,12921L620.196,12920.8L620.089,12920.7L619.986,12920.6L619.888,12920.4L619.793,12920.3L619.698,12920.2L619.608,12920L619.524,12919.9L619.441,12919.7L619.361,12919.6L619.285,12919.4L619.214,12919.3L619.148,12919.1L619.112,12919L619.079,12918.9L619.05,12918.9L619.019,12918.8L618.989,12918.7L618.962,12918.6L618.936,12918.6L618.909,12918.5L618.884,12918.4L618.859,12918.3L618.835,12918.2L618.814,12918.1L618.793,12918L618.773,12918L618.754,12917.9L618.736,12917.8L618.718,12917.7L618.703,12917.6L618.687,12917.5L618.674,12917.4L618.661,12917.4L618.649,12917.3L618.639,12917.2L618.629,12917.1L618.621,12917L618.613,12916.9L618.607,12916.8L618.602,12916.7L618.598,12916.6L618.595,12916.6L618.594,12916.5L618.593,12916.4L618.594,12916.3L618.595,12916.2L618.598,12916.1L618.602,12916L618.607,12915.9L618.613,12915.8L618.621,12915.8L618.629,12915.7L618.639,12915.6L618.649,12915.5L618.661,12915.4L618.674,12915.3L618.688,12915.2L618.702,12915.1L618.718,12915.1L618.736,12915L618.754,12914.9L618.773,12914.8L618.793,12914.7L618.814,12914.6L618.835,12914.5L618.859,12914.5L618.884,12914.4L618.909,12914.3L618.936,12914.2L618.962,12914.1L618.989,12914L619.019,12914L619.05,12913.9L619.079,12913.8L619.112,12913.7L619.148,12913.6L619.214,12913.5L619.285,12913.3L619.361,12913.2L619.441,12913L619.524,12912.9L619.608,12912.7L619.698,12912.6L619.793,12912.4L619.888,12912.3L619.986,12912.2L620.089,12912L620.196,12911.9L620.301,12911.8L620.413,12911.7L620.532,12911.5L620.65,12911.4L620.765,12911.3L620.887,12911.2L621.017,12911.1L621.143,12911L621.272,12910.9L621.408,12910.8L621.547,12910.6L621.688,12910.6L621.825,12910.5L621.963,12910.4L622.11,12910.3L622.265,12910.2L622.415,12910.1L622.56,12910.1L622.72,12910L622.867,12909.9L622.956,12909.9L623.031,12909.8L623.106,12909.8L623.196,12909.8L623.271,12909.8L623.362,12909.7L623.438,12909.7L623.515,12909.7L623.606,12909.6L623.698,12909.6L623.775,12909.6L623.852,12909.6L623.945,12909.6L624.023,12909.5L624.101,12909.5L624.195,12909.5L624.289,12909.5L624.367,12909.5L624.446,12909.4L624.541,12909.4L624.635,12909.4L624.714,12909.4L624.794,12909.4L624.889,12909.4L624.984,12909.4L625.08,12909.4L625.16,12909.4L625.239,12909.4L625.335,12909.4L625.431,12909.4L625.511,12909.4L625.607,12909.4L625.783,12909.4L625.879,12909.4L625.975,12909.4L626.134,12909.4L626.23,12909.4L626.325,12909.4L626.42,12909.4L626.5,12909.4L626.579,12909.4L626.673,12909.4L626.768,12909.4L626.847,12909.5L626.925,12909.5L627.019,12909.5L627.113,12909.5L627.191,12909.5L627.269,12909.6L627.362,12909.6L627.439,12909.6L627.516,12909.6L627.608,12909.6L627.699,12909.7L627.776,12909.7L627.852,12909.7L627.943,12909.8L628.018,12909.8L628.108,12909.8L628.183,12909.8L628.258,12909.9L628.347,12909.9L628.494,12910L628.654,12910.1L628.799,12910.1L628.949,12910.2L629.104,12910.3L629.251,12910.4L629.389,12910.5L629.526,12910.6L629.667,12910.6L629.806,12910.8L629.942,12910.9L630.071,12911L630.198,12911.1L630.327,12911.2L630.449,12911.3L630.564,12911.4L630.682,12911.5L630.801,12911.7L630.913,12911.8L631.018,12911.9L631.125,12912L631.228,12912.2L631.326,12912.3L631.421,12912.4L631.516,12912.6L631.607,12912.7L631.69,12912.9L631.773,12913L631.854,12913.2L631.929,12913.3L632,12913.5L632.066,12913.6L632.102,12913.7L632.135,12913.8L632.164,12913.9L632.195,12914L632.225,12914L632.252,12914.1L632.278,12914.2L632.305,12914.3L632.33,12914.4L632.355,12914.5L632.379,12914.5L632.4,12914.6L632.421,12914.7L632.441,12914.8L632.46,12914.9L632.479,12915L632.496,12915.1L632.512,12915.1L632.526,12915.2L632.54,12915.3L632.553,12915.4L632.565,12915.5L632.575,12915.6L632.585,12915.7L632.593,12915.8L632.601,12915.8L632.607,12915.9L632.612,12916L632.616,12916.1L632.619,12916.2L632.62,12916.3L632.621,12916.4L632.62,12916.5L632.619,12916.6L632.616,12916.6L632.612,12916.7L632.607,12916.8L632.601,12916.9L632.593,12917L632.585,12917.1L632.575,12917.2L632.565,12917.3L632.553,12917.4L632.54,12917.4L632.527,12917.5L632.511,12917.6L632.496,12917.7L632.479,12917.8L632.46,12917.9L632.441,12918L632.421,12918L632.4,12918.1L632.379,12918.2L632.355,12918.3L632.33,12918.4L632.305,12918.5L632.278,12918.6L632.252,12918.6L632.225,12918.7L632.195,12918.8L632.164,12918.9L632.135,12918.9L632.102,12919L632.066,12919.1L632,12919.3L631.929,12919.4L631.854,12919.6L631.773,12919.7L631.69,12919.9L631.607,12920L631.516,12920.2L631.421,12920.3L631.326,12920.4L631.228,12920.6L631.125,12920.7L631.018,12920.8L630.913,12921L630.797,12921.1L630.682,12921.2L630.569,12921.3L630.449,12921.5L630.327,12921.6L630.198,12921.7L630.066,12921.8L629.942,12921.9L629.806,12922L629.667,12922.1L629.532,12922.2L629.389,12922.3L629.251,12922.4L629.104,12922.5L628.949,12922.6L628.799,12922.6L628.647,12922.7L628.494,12922.8L628.354,12922.8L628.258,12922.9L628.169,12922.9L628.108,12922.9L628.033,12923L627.943,12923L627.852,12923L627.776,12923.1L627.685,12923.1L627.608,12923.1L627.531,12923.1L627.439,12923.2L627.362,12923.2L627.269,12923.2L627.191,12923.2L627.113,12923.2L627.019,12923.3L626.925,12923.3L626.847,12923.3L626.768,12923.3L626.673,12923.3L626.579,12923.3L626.5,12923.3L626.42,12923.4L626.325,12923.4L626.23,12923.4L626.134,12923.4L626.054,12923.4L625.975,12923.4L625.879,12923.4L625.783,12923.4L625.687,12923.4L625.527,12923.4ZM625.607,12921.4L625.672,12921.4L625.736,12921.4L625.801,12921.4L625.865,12921.4L625.929,12921.4L625.993,12921.4L626.056,12921.4L626.119,12921.4L626.182,12921.4L626.245,12921.4L626.308,12921.4L626.37,12921.3L626.432,12921.3L626.494,12921.3L626.556,12921.3L626.617,12921.3L626.678,12921.3L626.739,12921.3L626.799,12921.3L626.859,12921.2L626.919,12921.2L626.979,12921.2L627.038,12921.2L627.097,12921.2L627.156,12921.2L627.214,12921.1L627.272,12921.1L627.33,12921.1L627.388,12921.1L627.445,12921.1L627.501,12921L627.558,12921L627.67,12921L627.78,12920.9L627.889,12920.9L627.996,12920.8L628.102,12920.7L628.206,12920.7L628.309,12920.6L628.41,12920.5L628.509,12920.5L628.606,12920.4L628.702,12920.3L628.796,12920.3L628.887,12920.2L628.978,12920.1L629.066,12920L629.152,12919.9L629.236,12919.8L629.318,12919.8L629.398,12919.7L629.475,12919.6L629.551,12919.5L629.624,12919.4L629.695,12919.3L629.764,12919.2L629.831,12919.1L629.895,12919L629.956,12918.9L630.015,12918.8L630.072,12918.7L630.126,12918.6L630.178,12918.4L630.227,12918.3L630.25,12918.3L630.273,12918.2L630.295,12918.2L630.316,12918.1L630.337,12918L630.357,12918L630.377,12917.9L630.395,12917.9L630.413,12917.8L630.431,12917.8L630.447,12917.7L630.463,12917.6L630.478,12917.6L630.492,12917.5L630.506,12917.5L630.519,12917.4L630.531,12917.3L630.543,12917.3L630.553,12917.2L630.563,12917.1L630.572,12917.1L630.581,12917L630.588,12917L630.595,12916.9L630.601,12916.8L630.606,12916.8L630.611,12916.7L630.614,12916.6L630.617,12916.6L630.619,12916.5L630.62,12916.4L630.621,12916.4L630.62,12916.3L630.619,12916.2L630.617,12916.2L630.614,12916.1L630.611,12916.1L630.606,12916L630.601,12915.9L630.595,12915.9L630.588,12915.8L630.581,12915.7L630.572,12915.7L630.563,12915.6L630.553,12915.6L630.543,12915.5L630.531,12915.4L630.519,12915.4L630.506,12915.3L630.492,12915.2L630.478,12915.2L630.463,12915.1L630.447,12915.1L630.431,12915L630.413,12914.9L630.395,12914.9L630.377,12914.8L630.357,12914.8L630.337,12914.7L630.316,12914.6L630.295,12914.6L630.273,12914.5L630.25,12914.5L630.227,12914.4L630.178,12914.3L630.126,12914.2L630.072,12914.1L630.015,12914L629.956,12913.9L629.895,12913.8L629.831,12913.7L629.764,12913.6L629.695,12913.5L629.624,12913.4L629.551,12913.3L629.475,12913.2L629.398,12913.1L629.318,12913L629.236,12912.9L629.152,12912.8L629.066,12912.7L628.978,12912.7L628.887,12912.6L628.796,12912.5L628.702,12912.4L628.606,12912.4L628.509,12912.3L628.41,12912.2L628.309,12912.1L628.206,12912.1L628.102,12912L627.996,12912L627.889,12911.9L627.78,12911.8L627.67,12911.8L627.558,12911.7L627.501,12911.7L627.445,12911.7L627.388,12911.7L627.33,12911.7L627.272,12911.6L627.214,12911.6L627.156,12911.6L627.097,12911.6L627.038,12911.6L626.979,12911.5L626.919,12911.5L626.859,12911.5L626.799,12911.5L626.739,12911.5L626.678,12911.5L626.617,12911.5L626.556,12911.4L626.494,12911.4L626.432,12911.4L626.37,12911.4L626.308,12911.4L626.245,12911.4L626.182,12911.4L626.119,12911.4L626.056,12911.4L625.993,12911.4L625.929,12911.4L625.865,12911.4L625.801,12911.4L625.736,12911.4L625.672,12911.4L625.607,12911.4L625.542,12911.4L625.478,12911.4L625.413,12911.4L625.349,12911.4L625.285,12911.4L625.221,12911.4L625.158,12911.4L625.095,12911.4L625.032,12911.4L624.969,12911.4L624.906,12911.4L624.844,12911.4L624.782,12911.4L624.72,12911.4L624.658,12911.4L624.597,12911.5L624.536,12911.5L624.475,12911.5L624.415,12911.5L624.355,12911.5L624.295,12911.5L624.235,12911.5L624.176,12911.6L624.117,12911.6L624.058,12911.6L624,12911.6L623.942,12911.6L623.884,12911.7L623.826,12911.7L623.769,12911.7L623.713,12911.7L623.656,12911.7L623.544,12911.8L623.434,12911.8L623.325,12911.9L623.218,12912L623.112,12912L623.008,12912.1L622.905,12912.1L622.805,12912.2L622.705,12912.3L622.608,12912.4L622.512,12912.4L622.418,12912.5L622.327,12912.6L622.237,12912.7L622.148,12912.7L622.062,12912.8L621.978,12912.9L621.896,12913L621.816,12913.1L621.739,12913.2L621.663,12913.3L621.59,12913.4L621.519,12913.5L621.45,12913.6L621.383,12913.7L621.319,12913.8L621.258,12913.9L621.199,12914L621.142,12914.1L621.088,12914.2L621.036,12914.3L620.987,12914.4L620.964,12914.5L620.941,12914.5L620.919,12914.6L620.898,12914.6L620.877,12914.7L620.857,12914.8L620.837,12914.8L620.819,12914.9L620.801,12914.9L620.783,12915L620.767,12915.1L620.751,12915.1L620.736,12915.2L620.722,12915.2L620.708,12915.3L620.695,12915.4L620.683,12915.4L620.671,12915.5L620.661,12915.6L620.651,12915.6L620.642,12915.7L620.633,12915.7L620.626,12915.8L620.619,12915.9L620.613,12915.9L620.608,12916L620.603,12916.1L620.6,12916.1L620.597,12916.2L620.595,12916.2L620.594,12916.3L620.593,12916.4L620.594,12916.4L620.595,12916.5L620.597,12916.6L620.6,12916.6L620.603,12916.7L620.608,12916.8L620.613,12916.8L620.619,12916.9L620.626,12917L620.633,12917L620.642,12917.1L620.651,12917.1L620.661,12917.2L620.671,12917.3L620.683,12917.3L620.695,12917.4L620.708,12917.5L620.722,12917.5L620.736,12917.6L620.751,12917.6L620.767,12917.7L620.783,12917.8L620.801,12917.8L620.819,12917.9L620.837,12917.9L620.857,12918L620.877,12918L620.898,12918.1L620.919,12918.2L620.941,12918.2L620.964,12918.3L620.987,12918.3L621.036,12918.4L621.088,12918.6L621.142,12918.7L621.199,12918.8L621.258,12918.9L621.319,12919L621.383,12919.1L621.45,12919.2L621.519,12919.3L621.59,12919.4L621.663,12919.5L621.739,12919.6L621.816,12919.7L621.896,12919.8L621.978,12919.8L622.062,12919.9L622.148,12920L622.237,12920.1L622.327,12920.2L622.418,12920.3L622.512,12920.3L622.608,12920.4L622.705,12920.5L622.805,12920.5L622.905,12920.6L623.008,12920.7L623.112,12920.7L623.218,12920.8L623.325,12920.9L623.434,12920.9L623.544,12921L623.656,12921L623.713,12921L623.769,12921.1L623.826,12921.1L623.884,12921.1L623.942,12921.1L624,12921.1L624.058,12921.2L624.117,12921.2L624.176,12921.2L624.235,12921.2L624.295,12921.2L624.355,12921.2L624.415,12921.3L624.475,12921.3L624.536,12921.3L624.597,12921.3L624.658,12921.3L624.72,12921.3L624.782,12921.3L624.844,12921.3L624.906,12921.4L624.969,12921.4L625.032,12921.4L625.095,12921.4L625.158,12921.4L625.221,12921.4L625.285,12921.4L625.349,12921.4L625.413,12921.4L625.478,12921.4L625.542,12921.4L625.607,12921.4Z" style="fill:white;fill-opacity:0.501961;"/>
            </g>
        </g>
    </g>
</svg>
