<?xml version="1.0" standalone="no"?>
<!DOCTYPE svg PUBLIC "-//W3C//DTD SVG 1.1//EN" "http://www.w3.org/Graphics/SVG/1.1/DTD/svg11.dtd">
<svg width="100%" height="100%" viewBox="0 0 40 34" version="1.1" xmlns="http://www.w3.org/2000/svg" xmlns:xlink="http://www.w3.org/1999/xlink" xml:space="preserve" style="fill-rule:evenodd;clip-rule:evenodd;stroke-linejoin:round;stroke-miterlimit:1.41421;">
    <g transform="matrix(1,0,0,1,-617,-13777)">
        <g transform="matrix(1.05201,-1.1002e-17,-1.1002e-17,1.09693,-31.8784,-1335.81)">
            <path d="M619.635,13808.4L619.562,13808.4L619.489,13808.4L619.417,13808.4L619.345,13808.4L619.274,13808.4L619.204,13808.4L619.134,13808.4L619.064,13808.4L618.995,13808.3L618.927,13808.3L618.859,13808.3L618.792,13808.3L618.726,13808.3L618.661,13808.2L618.596,13808.2L618.532,13808.2L618.469,13808.2L618.406,13808.1L618.345,13808.1L618.284,13808.1L618.224,13808L618.165,13808L618.107,13808L618.05,13807.9L617.994,13807.9L617.939,13807.9L617.885,13807.8L617.832,13807.8L617.78,13807.7L617.729,13807.7L617.679,13807.7L617.631,13807.6L617.583,13807.6L617.537,13807.5L617.492,13807.5L617.448,13807.4L617.405,13807.4L617.363,13807.3L617.323,13807.3L617.284,13807.2L617.247,13807.2L617.211,13807.1L617.176,13807L617.142,13807L617.11,13806.9L617.08,13806.9L617.051,13806.8L617.023,13806.7L616.997,13806.7L616.972,13806.6L616.949,13806.6L616.927,13806.5L616.908,13806.4L616.889,13806.4L616.873,13806.3L616.858,13806.2L616.844,13806.2L616.833,13806.1L616.823,13806L616.815,13806L616.808,13805.9L616.804,13805.8L616.801,13805.8L616.8,13805.7L616.8,13780.1L616.801,13780.1L616.804,13780L616.808,13779.9L616.815,13779.9L616.823,13779.8L616.833,13779.7L616.844,13779.6L616.858,13779.6L616.873,13779.5L616.889,13779.4L616.908,13779.4L616.927,13779.3L616.949,13779.3L616.972,13779.2L616.997,13779.1L617.023,13779.1L617.051,13779L617.08,13779L617.11,13778.9L617.142,13778.8L617.176,13778.8L617.211,13778.7L617.247,13778.7L617.284,13778.6L617.323,13778.6L617.363,13778.5L617.405,13778.5L617.448,13778.4L617.492,13778.3L617.537,13778.3L617.583,13778.3L617.631,13778.2L617.679,13778.2L617.729,13778.1L617.78,13778.1L617.832,13778L617.885,13778L617.939,13778L617.994,13777.9L618.05,13777.9L618.107,13777.8L618.165,13777.8L618.224,13777.8L618.284,13777.7L618.345,13777.7L618.406,13777.7L618.469,13777.6L618.532,13777.6L618.596,13777.6L618.661,13777.6L618.726,13777.6L618.792,13777.5L618.859,13777.5L618.927,13777.5L618.995,13777.5L619.064,13777.5L619.134,13777.5L619.204,13777.4L619.274,13777.4L619.345,13777.4L619.417,13777.4L619.489,13777.4L619.562,13777.4L619.635,13777.4L651.987,13777.4L652.06,13777.4L652.133,13777.4L652.205,13777.4L652.277,13777.4L652.348,13777.4L652.419,13777.4L652.489,13777.5L652.558,13777.5L652.627,13777.5L652.695,13777.5L652.763,13777.5L652.83,13777.5L652.896,13777.6L652.962,13777.6L653.026,13777.6L653.09,13777.6L653.154,13777.6L653.216,13777.7L653.277,13777.7L653.338,13777.7L653.398,13777.8L653.457,13777.8L653.515,13777.8L653.572,13777.9L653.628,13777.9L653.683,13778L653.737,13778L653.79,13778L653.842,13778.1L653.893,13778.1L653.943,13778.2L653.992,13778.2L654.039,13778.3L654.085,13778.3L654.131,13778.3L654.175,13778.4L654.217,13778.5L654.259,13778.5L654.299,13778.6L654.338,13778.6L654.375,13778.7L654.412,13778.7L654.447,13778.8L654.48,13778.8L654.512,13778.9L654.543,13779L654.572,13779L654.599,13779.1L654.626,13779.1L654.65,13779.2L654.673,13779.3L654.695,13779.3L654.715,13779.4L654.733,13779.4L654.75,13779.5L654.765,13779.6L654.778,13779.6L654.79,13779.7L654.8,13779.8L654.808,13779.9L654.814,13779.9L654.819,13780L654.821,13780.1L654.822,13780.1L654.822,13805.7L654.821,13805.8L654.819,13805.8L654.814,13805.9L654.808,13806L654.8,13806L654.79,13806.1L654.778,13806.2L654.765,13806.2L654.75,13806.3L654.733,13806.4L654.715,13806.4L654.695,13806.5L654.673,13806.6L654.65,13806.6L654.626,13806.7L654.599,13806.7L654.572,13806.8L654.543,13806.9L654.512,13806.9L654.48,13807L654.447,13807L654.412,13807.1L654.375,13807.2L654.338,13807.2L654.299,13807.3L654.259,13807.3L654.217,13807.4L654.175,13807.4L654.131,13807.5L654.085,13807.5L654.039,13807.6L653.992,13807.6L653.943,13807.7L653.893,13807.7L653.842,13807.7L653.79,13807.8L653.737,13807.8L653.683,13807.9L653.628,13807.9L653.572,13807.9L653.515,13808L653.457,13808L653.398,13808L653.338,13808.1L653.277,13808.1L653.216,13808.1L653.154,13808.2L653.09,13808.2L653.026,13808.2L652.962,13808.2L652.896,13808.3L652.83,13808.3L652.763,13808.3L652.695,13808.3L652.627,13808.3L652.558,13808.4L652.489,13808.4L652.419,13808.4L652.348,13808.4L652.277,13808.4L652.205,13808.4L652.133,13808.4L652.06,13808.4L651.987,13808.4L619.635,13808.4ZM619.648,13806.6L651.975,13806.6L652.011,13806.6L652.033,13806.6L652.067,13806.6L652.088,13806.6L652.108,13806.6L652.127,13806.6L652.145,13806.6L652.187,13806.6L652.203,13806.6L652.219,13806.6L652.246,13806.5L652.26,13806.5L652.285,13806.5L652.31,13806.5L652.322,13806.5L652.345,13806.5L652.378,13806.5L652.389,13806.5L652.409,13806.5L652.439,13806.5L652.449,13806.5L652.467,13806.5L652.485,13806.4L652.502,13806.4L652.528,13806.4L652.544,13806.4L652.567,13806.4L652.582,13806.4L652.596,13806.4L652.616,13806.3L652.629,13806.3L652.649,13806.3L652.661,13806.3L652.678,13806.3L652.695,13806.3L652.706,13806.3L652.721,13806.2L652.735,13806.2L652.75,13806.2L652.763,13806.2L652.775,13806.2L652.787,13806.1L652.801,13806.1L652.812,13806.1L652.819,13806.1L652.828,13806.1L652.84,13806.1L652.848,13806L652.856,13806L652.865,13806L652.873,13806L652.879,13806L652.885,13805.9L652.893,13805.9L652.898,13805.9L652.902,13805.9L652.906,13805.8L652.91,13805.8L652.914,13805.8L652.916,13805.8L652.918,13805.8L652.92,13805.7L652.921,13805.7L652.921,13805.7L652.921,13780.1L652.921,13780.1L652.92,13780.1L652.918,13780.1L652.916,13780L652.914,13780L652.91,13780L652.906,13780L652.902,13779.9L652.898,13779.9L652.893,13779.9L652.885,13779.9L652.879,13779.9L652.873,13779.8L652.865,13779.8L652.856,13779.8L652.848,13779.8L652.84,13779.8L652.828,13779.7L652.819,13779.7L652.812,13779.7L652.801,13779.7L652.787,13779.7L652.775,13779.6L652.763,13779.6L652.75,13779.6L652.735,13779.6L652.721,13779.6L652.706,13779.6L652.695,13779.5L652.678,13779.5L652.661,13779.5L652.649,13779.5L652.629,13779.5L652.616,13779.5L652.596,13779.5L652.582,13779.4L652.567,13779.4L652.544,13779.4L652.528,13779.4L652.502,13779.4L652.485,13779.4L652.467,13779.4L652.449,13779.3L652.439,13779.3L652.409,13779.3L652.389,13779.3L652.378,13779.3L652.345,13779.3L652.322,13779.3L652.31,13779.3L652.285,13779.3L652.26,13779.3L652.246,13779.3L652.219,13779.3L652.203,13779.3L652.187,13779.3L652.145,13779.2L652.127,13779.2L652.108,13779.2L652.088,13779.2L652.067,13779.2L652.033,13779.2L652.011,13779.2L651.975,13779.2L619.648,13779.2L619.612,13779.2L619.589,13779.2L619.555,13779.2L619.534,13779.2L619.514,13779.2L619.496,13779.2L619.477,13779.2L619.436,13779.3L619.419,13779.3L619.403,13779.3L619.377,13779.3L619.362,13779.3L619.337,13779.3L619.313,13779.3L619.3,13779.3L619.277,13779.3L619.244,13779.3L619.234,13779.3L619.213,13779.3L619.183,13779.3L619.174,13779.3L619.155,13779.4L619.138,13779.4L619.12,13779.4L619.095,13779.4L619.079,13779.4L619.055,13779.4L619.041,13779.4L619.027,13779.5L619.006,13779.5L618.993,13779.5L618.973,13779.5L618.961,13779.5L618.944,13779.5L618.927,13779.5L618.916,13779.6L618.901,13779.6L618.887,13779.6L618.873,13779.6L618.86,13779.6L618.847,13779.6L618.835,13779.7L618.821,13779.7L618.81,13779.7L618.803,13779.7L618.794,13779.7L618.783,13779.8L618.774,13779.8L618.766,13779.8L618.757,13779.8L618.749,13779.8L618.743,13779.9L618.737,13779.9L618.73,13779.9L618.725,13779.9L618.72,13779.9L618.716,13780L618.712,13780L618.709,13780L618.706,13780L618.704,13780.1L618.702,13780.1L618.702,13780.1L618.701,13780.1L618.701,13805.7L618.702,13805.7L618.702,13805.7L618.704,13805.8L618.706,13805.8L618.709,13805.8L618.712,13805.8L618.716,13805.8L618.72,13805.9L618.725,13805.9L618.73,13805.9L618.737,13805.9L618.743,13806L618.749,13806L618.757,13806L618.766,13806L618.774,13806L618.783,13806.1L618.794,13806.1L618.803,13806.1L618.81,13806.1L618.821,13806.1L618.835,13806.1L618.847,13806.2L618.86,13806.2L618.873,13806.2L618.887,13806.2L618.901,13806.2L618.916,13806.3L618.927,13806.3L618.944,13806.3L618.961,13806.3L618.973,13806.3L618.993,13806.3L619.006,13806.3L619.027,13806.4L619.041,13806.4L619.055,13806.4L619.079,13806.4L619.095,13806.4L619.12,13806.4L619.138,13806.4L619.155,13806.5L619.174,13806.5L619.183,13806.5L619.213,13806.5L619.234,13806.5L619.244,13806.5L619.277,13806.5L619.3,13806.5L619.313,13806.5L619.337,13806.5L619.362,13806.5L619.377,13806.5L619.403,13806.6L619.419,13806.6L619.436,13806.6L619.477,13806.6L619.496,13806.6L619.514,13806.6L619.534,13806.6L619.555,13806.6L619.589,13806.6L619.612,13806.6L619.648,13806.6Z" style="fill:white;fill-opacity:0.501961;"/>
        </g>
        <path d="M654.98,13779.8L638.817,13795.9L638.818,13795.9L637.404,13797.3L619.313,13779.2C619.483,13779.1 619.71,13779 619.958,13779L621.891,13779L637.403,13794.5L652.916,13779L654.042,13779C654.504,13779 654.89,13779.3 654.98,13779.8Z" style="fill:white;fill-opacity:0.501961;"/>
    </g>
</svg>
