<?xml version="1.0" standalone="no"?>
<!DOCTYPE svg PUBLIC "-//W3C//DTD SVG 1.1//EN" "http://www.w3.org/Graphics/SVG/1.1/DTD/svg11.dtd">
<svg width="100%" height="100%" viewBox="0 0 45 40" version="1.1" xmlns="http://www.w3.org/2000/svg" xmlns:xlink="http://www.w3.org/1999/xlink" xml:space="preserve" style="fill-rule:evenodd;clip-rule:evenodd;stroke-linejoin:round;stroke-miterlimit:1.41421;">
    <g transform="matrix(1,0,0,1,-563.513,-12808.5)">
        <g>
            <g transform="matrix(0.647571,0,0,0.64521,168.434,4545.63)">
                <path d="M612.354,12822.7L612.354,12808.8L626.223,12808.8L626.223,12822.7L612.354,12822.7ZM615.442,12819.6L623.134,12819.6L623.134,12811.9L615.442,12811.9L615.442,12819.6Z" style="fill:white;fill-opacity:0.498039;"/>
            </g>
            <g transform="matrix(0.647571,0,0,0.64521,168.434,4559.63)">
                <path d="M612.354,12822.7L612.354,12808.8L626.223,12808.8L626.223,12822.7L612.354,12822.7ZM615.442,12819.6L623.134,12819.6L623.134,12811.9L615.442,12811.9L615.442,12819.6Z" style="fill:white;fill-opacity:0.501961;"/>
            </g>
            <g transform="matrix(0.647571,0,0,0.64521,168.434,4573.63)">
                <path d="M612.354,12822.7L612.354,12808.8L626.223,12808.8L626.223,12822.7L612.354,12822.7ZM615.442,12819.6L623.134,12819.6L623.134,12811.9L615.442,12811.9L615.442,12819.6Z" style="fill:white;fill-opacity:0.501961;"/>
            </g>
            <g transform="matrix(1,7.6646e-17,7.6646e-17,0.687069,-50.2402,4009.76)">
                <rect x="629.253" y="12814.2" width="28.962" height="2.911" style="fill:white;fill-opacity:0.501961;"/>
            </g>
            <g transform="matrix(1,7.6646e-17,7.6646e-17,0.687069,-50.2402,4023.76)">
                <rect x="629.253" y="12814.2" width="28.962" height="2.911" style="fill:white;fill-opacity:0.501961;"/>
            </g>
            <g transform="matrix(1,7.6646e-17,7.6646e-17,0.687069,-50.2402,4037.76)">
                <rect x="629.253" y="12814.2" width="28.962" height="2.911" style="fill:white;fill-opacity:0.501961;"/>
            </g>
        </g>
    </g>
</svg>
