<?xml version="1.0" standalone="no"?>
<!DOCTYPE svg PUBLIC "-//W3C//DTD SVG 1.1//EN" "http://www.w3.org/Graphics/SVG/1.1/DTD/svg11.dtd">
<svg width="100%" height="100%" viewBox="0 0 45 45" version="1.1" xmlns="http://www.w3.org/2000/svg" xmlns:xlink="http://www.w3.org/1999/xlink" xml:space="preserve" style="fill-rule:evenodd;clip-rule:evenodd;stroke-linejoin:round;stroke-miterlimit:1.41421;">
    <g transform="matrix(1,0,0,1,-534,-13107)">
        <g transform="matrix(1,0,0,1,-80,0)">
            <path d="M636.023,13107C648.178,13107 658.047,13116.9 658.047,13129C658.047,13141.2 648.178,13151 636.023,13151C623.868,13151 614,13141.2 614,13129C614,13116.9 623.868,13107 636.023,13107ZM635,13109.1C624.452,13109.6 616.051,13118.3 616.051,13129C616.051,13140 625,13149 636.023,13149C640.771,13149 645.135,13147.3 648.564,13144.6L635,13131L635.001,13131L635,13131L635,13109.1ZM650.057,13143.2C653.282,13140 655.43,13135.8 655.899,13131L637.828,13131L650.057,13143.2ZM637,13129L655.995,13129C655.983,13118.3 647.562,13109.6 637,13109.1L637,13129Z" style="fill:white;fill-opacity:0.498039;"/>
        </g>
    </g>
</svg>
