<?xml version="1.0" standalone="no"?><!DOCTYPE svg PUBLIC "-//W3C//DTD SVG 1.1//EN" "http://www.w3.org/Graphics/SVG/1.1/DTD/svg11.dtd"><svg width="100%" height="100%" viewBox="0 0 34 34" version="1.1" xmlns="http://www.w3.org/2000/svg" xmlns:xlink="http://www.w3.org/1999/xlink" xml:space="preserve" style="fill-rule:evenodd;clip-rule:evenodd;stroke-linejoin:round;stroke-miterlimit:1.41421;"><path d="M32.25,9.919c-2.717,-6.011 -8.718,-9.919 -15.375,-9.919c-9.314,0 -16.875,7.561 -16.875,16.875c0,9.314 7.561,16.875 16.875,16.875c7.747,0 14.499,-5.275 16.374,-12.793l-1.552,-0.386c-1.696,6.805 -7.809,11.58 -14.822,11.58c-8.431,0 -15.276,-6.845 -15.276,-15.276c0,-8.431 6.845,-15.276 15.276,-15.276c5.997,0 11.406,3.504 13.883,8.901l-9.008,0l0,1.5l12,0c0,0 0,-12 0,-12l-1.5,0l0,9.919Z" style="fill:#fff;fill-opacity:0.498039;"/></svg>