<?xml version="1.0" standalone="no"?>
<!DOCTYPE svg PUBLIC "-//W3C//DTD SVG 1.1//EN" "http://www.w3.org/Graphics/SVG/1.1/DTD/svg11.dtd">
<svg width="100%" height="100%" viewBox="0 0 45 45" version="1.1" xmlns="http://www.w3.org/2000/svg" xmlns:xlink="http://www.w3.org/1999/xlink" xml:space="preserve" style="fill-rule:evenodd;clip-rule:evenodd;stroke-linejoin:round;stroke-miterlimit:1.41421;">
    <g transform="matrix(1,0,0,1,-613,-13305)">
        <path d="M644.774,13307C652.789,13310.6 658,13318.6 658,13327.5C658,13339.9 647.918,13350 635.5,13350C623.082,13350 613,13339.9 613,13327.5C613,13317.2 620.034,13308.2 630.057,13305.7L630.572,13307.7C621.499,13310 615.132,13318.1 615.132,13327.5C615.132,13338.7 624.258,13347.9 635.5,13347.9C646.742,13347.9 655.868,13338.7 655.868,13327.5C655.868,13319.5 651.196,13312.3 644,13309L644,13321L642,13321L642,13305C642,13305 658,13305 658,13305L658,13307L644.774,13307ZM634,13330L648,13330L648,13332L632,13332L632,13316L634,13316L634,13330Z" style="fill:white;fill-opacity:0.498039;"/>
    </g>
</svg>
