<?xml version="1.0" standalone="no"?>
<!DOCTYPE svg PUBLIC "-//W3C//DTD SVG 1.1//EN" "http://www.w3.org/Graphics/SVG/1.1/DTD/svg11.dtd">
<svg width="100%" height="100%" viewBox="0 0 46 46" version="1.1" xmlns="http://www.w3.org/2000/svg" xmlns:xlink="http://www.w3.org/1999/xlink" xml:space="preserve" style="fill-rule:evenodd;clip-rule:evenodd;stroke-linejoin:round;stroke-miterlimit:1.41421;">
    <g transform="matrix(1,0,0,1,-613,-13505)">
        <g>
            <g transform="matrix(1.09302,5.75326e-19,5.75326e-19,1.09067,-61.9807,-1008.91)">
                <path d="M638.578,13307.3C650.192,13307.3 659.621,13316.7 659.621,13328.4C659.621,13340 650.192,13349.5 638.578,13349.5C626.964,13349.5 617.535,13340 617.535,13328.4C617.535,13316.7 626.964,13307.3 638.578,13307.3ZM638.578,13309.3C649.091,13309.3 657.627,13317.8 657.627,13328.4C657.627,13338.9 649.091,13347.5 638.578,13347.5C628.065,13347.5 619.529,13338.9 619.529,13328.4C619.529,13317.8 628.065,13309.3 638.578,13309.3Z" style="fill:white;fill-opacity:0.498039;"/>
            </g>
            <g transform="matrix(0.712841,3.75213e-19,3.75213e-19,0.711309,180.795,4047.41)">
                <path d="M659.621,13328.4C659.621,13316.7 650.199,13307.3 638.578,13307.3C626.956,13307.3 617.535,13316.7 617.535,13328.4L620.267,13328.4C620.267,13318.2 628.465,13310 638.578,13310C648.691,13310 656.889,13318.2 656.889,13328.4L659.621,13328.4Z" style="fill:white;fill-opacity:0.498039;"/>
            </g>
            <path d="M640.243,13532.4C640.723,13533.1 641,13534 641,13535C641,13537.8 638.76,13540 636,13540C633.24,13540 631,13537.8 631,13535C631,13532.2 633.24,13530 636,13530C637.058,13530 638.04,13530.3 638.848,13530.9L642.964,13526.8L644.395,13528.2L640.243,13532.4ZM636,13531.9C637.737,13531.9 639.147,13533.3 639.147,13535C639.147,13536.7 637.737,13538.1 636,13538.1C634.263,13538.1 632.853,13536.7 632.853,13535C632.853,13533.3 634.263,13531.9 636,13531.9Z" style="fill:white;fill-opacity:0.498039;"/>
        </g>
    </g>
</svg>
