<?xml version="1.0" standalone="no"?>
<!DOCTYPE svg PUBLIC "-//W3C//DTD SVG 1.1//EN" "http://www.w3.org/Graphics/SVG/1.1/DTD/svg11.dtd">
<svg width="100%" height="100%" viewBox="0 0 335 233" version="1.1" xmlns="http://www.w3.org/2000/svg" xmlns:xlink="http://www.w3.org/1999/xlink" xml:space="preserve" style="fill-rule:evenodd;clip-rule:evenodd;stroke-linejoin:round;stroke-miterlimit:1.41421;">
    <g transform="matrix(1,0,0,1,-2212.97,-9166.64)">
        <g transform="matrix(1.94835,0,0,1.94835,-3254.07,-13900.2)">
            <path d="M2913.95,11865.7L2932.29,11865.7L2932.29,11910.7L2887.32,11910.7L2887.32,11881.8L2923.64,11881.8L2913.95,11865.7ZM2882.15,11902.3C2879.78,11903.2 2877.22,11903.7 2874.55,11903.7C2862.13,11903.7 2852.05,11893.6 2852.05,11881.2C2852.05,11869 2861.79,11859 2873.91,11858.7L2859.96,11881.8L2882.15,11881.8L2882.15,11902.3ZM2891.78,11839.2L2914.28,11876.5L2869.28,11876.5L2891.78,11839.2Z" style="fill:white;"/>
        </g>
        <g id="NEWS" transform="matrix(1,0,0,1,2208.84,9398.51)">
            <path d="M18.816,0L4.128,0L4.128,-33.552L17.184,-33.552C19.456,-33.552 21.416,-33.28 23.064,-32.736C24.712,-32.192 25.952,-31.456 26.784,-30.528C28.288,-28.8 29.04,-26.848 29.04,-24.672C29.04,-22.048 28.192,-20.096 26.496,-18.816C25.92,-18.368 25.52,-18.088 25.296,-17.976C25.072,-17.864 24.672,-17.68 24.096,-17.424C26.176,-16.976 27.832,-16.04 29.064,-14.616C30.296,-13.192 30.912,-11.424 30.912,-9.312C30.912,-6.976 30.112,-4.912 28.512,-3.12C26.656,-1.04 23.424,0 18.816,0ZM11.616,-19.968L15.168,-19.968C17.248,-19.968 18.792,-20.192 19.8,-20.64C20.808,-21.088 21.312,-22.056 21.312,-23.544C21.312,-25.032 20.848,-26.016 19.92,-26.496C18.992,-26.976 17.424,-27.216 15.216,-27.216L11.616,-27.216L11.616,-19.968ZM11.616,-6.336L16.752,-6.336C18.896,-6.336 20.504,-6.6 21.576,-7.128C22.648,-7.656 23.184,-8.696 23.184,-10.248C23.184,-11.8 22.616,-12.824 21.48,-13.32C20.344,-13.816 18.528,-14.064 16.032,-14.064L11.616,-14.064L11.616,-6.336Z" style="fill:white;fill-rule:nonzero;"/>
            <path d="M64.944,0L61.824,-7.248L47.76,-7.248L44.64,0L36.672,0L51.168,-33.552L58.416,-33.552L72.912,0L64.944,0ZM54.816,-23.568L50.592,-13.824L58.992,-13.824L54.816,-23.568Z" style="fill:white;fill-rule:nonzero;"/>
            <path d="M94.56,-6.336C96.672,-6.336 98.344,-7.112 99.576,-8.664C100.808,-10.216 101.424,-12.336 101.424,-15.024L101.424,-33.552L108.912,-33.552L108.912,-14.784C108.912,-9.92 107.568,-6.184 104.88,-3.576C102.192,-0.968 98.752,0.336 94.56,0.336C90.368,0.336 86.92,-0.976 84.216,-3.6C81.512,-6.224 80.16,-9.952 80.16,-14.784L80.16,-33.552L87.648,-33.552L87.648,-15.024C87.648,-12.336 88.272,-10.216 89.52,-8.664C90.768,-7.112 92.448,-6.336 94.56,-6.336Z" style="fill:white;fill-rule:nonzero;"/>
            <path d="M141.36,-33.552L148.848,-33.552L148.848,0L141.36,0L141.36,-13.2L128.016,-13.2L128.016,0L120.528,0L120.528,-33.552L128.016,-33.552L128.016,-19.536L141.36,-19.536L141.36,-33.552Z" style="fill:white;fill-rule:nonzero;"/>
            <path d="M184.848,0L181.728,-7.248L167.664,-7.248L164.544,0L156.576,0L171.072,-33.552L178.32,-33.552L192.816,0L184.848,0ZM174.72,-23.568L170.496,-13.824L178.896,-13.824L174.72,-23.568Z" style="fill:white;fill-rule:nonzero;"/>
            <path d="M214.464,-6.336C216.576,-6.336 218.248,-7.112 219.48,-8.664C220.712,-10.216 221.328,-12.336 221.328,-15.024L221.328,-33.552L228.816,-33.552L228.816,-14.784C228.816,-9.92 227.472,-6.184 224.784,-3.576C222.096,-0.968 218.656,0.336 214.464,0.336C210.272,0.336 206.824,-0.976 204.12,-3.6C201.416,-6.224 200.064,-9.952 200.064,-14.784L200.064,-33.552L207.552,-33.552L207.552,-15.024C207.552,-12.336 208.176,-10.216 209.424,-8.664C210.672,-7.112 212.352,-6.336 214.464,-6.336Z" style="fill:white;fill-rule:nonzero;"/>
            <path d="M248.28,-26.856C247.56,-26.264 247.2,-25.48 247.2,-24.504C247.2,-23.528 247.64,-22.752 248.52,-22.176C249.4,-21.6 251.432,-20.92 254.616,-20.136C257.8,-19.352 260.272,-18.176 262.032,-16.608C263.792,-15.04 264.672,-12.752 264.672,-9.744C264.672,-6.736 263.544,-4.296 261.288,-2.424C259.032,-0.552 256.064,0.384 252.384,0.384C247.072,0.384 242.288,-1.584 238.032,-5.52L242.496,-10.992C246.112,-7.824 249.456,-6.24 252.528,-6.24C253.904,-6.24 254.984,-6.536 255.768,-7.128C256.552,-7.72 256.944,-8.52 256.944,-9.528C256.944,-10.536 256.528,-11.336 255.696,-11.928C254.864,-12.52 253.216,-13.12 250.752,-13.728C246.848,-14.656 243.992,-15.864 242.184,-17.352C240.376,-18.84 239.472,-21.176 239.472,-24.36C239.472,-27.544 240.616,-30 242.904,-31.728C245.192,-33.456 248.048,-34.32 251.472,-34.32C253.712,-34.32 255.952,-33.936 258.192,-33.168C260.432,-32.4 262.384,-31.312 264.048,-29.904L260.256,-24.432C257.344,-26.64 254.336,-27.744 251.232,-27.744C249.984,-27.744 249,-27.448 248.28,-26.856Z" style="fill:white;fill-rule:nonzero;"/>
            <path d="M305.328,-6.336C307.44,-6.336 309.112,-7.112 310.344,-8.664C311.576,-10.216 312.192,-12.336 312.192,-15.024L312.192,-33.552L319.68,-33.552L319.68,-14.784C319.68,-9.92 318.336,-6.184 315.648,-3.576C312.96,-0.968 309.52,0.336 305.328,0.336C301.136,0.336 297.688,-0.976 294.984,-3.6C292.28,-6.224 290.928,-9.952 290.928,-14.784L290.928,-33.552L298.416,-33.552L298.416,-15.024C298.416,-12.336 299.04,-10.216 300.288,-8.664C301.536,-7.112 303.216,-6.336 305.328,-6.336Z" style="fill:white;fill-rule:nonzero;"/>
            <rect x="331.296" y="-33.552" width="7.488" height="33.552" style="fill:white;fill-rule:nonzero;"/>
        </g>
    </g>
</svg>
