<?xml version="1.0" encoding="UTF-8" standalone="no"?><!DOCTYPE svg PUBLIC "-//W3C//DTD SVG 1.1//EN" "http://www.w3.org/Graphics/SVG/1.1/DTD/svg11.dtd"><svg width="100%" height="100%" viewBox="0 0 80 80" version="1.1" xmlns="http://www.w3.org/2000/svg" xmlns:xlink="http://www.w3.org/1999/xlink" xml:space="preserve" style="fill-rule:evenodd;clip-rule:evenodd;stroke-linejoin:round;stroke-miterlimit:1.41421;"><circle cx="40" cy="40" r="40" style="fill:#8f8f8f;"/><path d="M14.612,46.618l0,-12.793l2.855,0l0,10.249l5.454,0l0,2.544l-8.309,0Z" style="fill:#f5f5f5;fill-rule:nonzero;"/><path d="M33.354,37.229c-0.732,-0.805 -1.632,-1.208 -2.7,-1.208c-1.067,0 -1.967,0.403 -2.699,1.208c-0.732,0.805 -1.098,1.778 -1.098,2.919c0,1.141 0.366,2.111 1.098,2.91c0.732,0.8 1.632,1.199 2.699,1.199c1.068,0 1.968,-0.399 2.7,-1.199c0.732,-0.799 1.098,-1.769 1.098,-2.91c0,-1.141 -0.366,-2.114 -1.098,-2.919Zm-2.709,9.517c-1.891,0 -3.483,-0.631 -4.777,-1.894c-1.293,-1.263 -1.94,-2.834 -1.94,-4.713c0,-1.879 0.647,-3.45 1.94,-4.713c1.294,-1.263 2.886,-1.894 4.777,-1.894c1.891,0 3.484,0.631 4.777,1.894c1.294,1.263 1.94,2.834 1.94,4.713c0,1.879 -0.646,3.45 -1.94,4.713c-1.293,1.263 -2.886,1.894 -4.777,1.894Z" style="fill:#f5f5f5;fill-rule:nonzero;"/><path d="M48.088,40.103l2.873,0l0,4.539c-1.269,1.415 -3.026,2.123 -5.271,2.123c-1.879,0 -3.456,-0.623 -4.731,-1.867c-1.275,-1.245 -1.913,-2.816 -1.913,-4.713c0,-1.898 0.65,-3.481 1.949,-4.75c1.3,-1.269 2.868,-1.903 4.704,-1.903c1.837,0 3.432,0.604 4.786,1.812l-1.482,2.141c-0.574,-0.5 -1.101,-0.845 -1.583,-1.034c-0.482,-0.189 -1.004,-0.284 -1.565,-0.284c-1.086,0 -2.001,0.37 -2.746,1.108c-0.744,0.738 -1.116,1.711 -1.116,2.919c0,1.208 0.357,2.175 1.071,2.901c0.713,0.726 1.564,1.089 2.553,1.089c0.988,0 1.812,-0.189 2.471,-0.567l0,-3.514Z" style="fill:#f5f5f5;fill-rule:nonzero;"/><path d="M62.199,37.229c-0.732,-0.805 -1.632,-1.208 -2.699,-1.208c-1.068,0 -1.968,0.403 -2.7,1.208c-0.732,0.805 -1.098,1.778 -1.098,2.919c0,1.141 0.366,2.111 1.098,2.91c0.732,0.8 1.632,1.199 2.7,1.199c1.067,0 1.967,-0.399 2.699,-1.199c0.732,-0.799 1.098,-1.769 1.098,-2.91c0,-1.141 -0.366,-2.114 -1.098,-2.919Zm-2.709,9.517c-1.891,0 -3.483,-0.631 -4.777,-1.894c-1.293,-1.263 -1.94,-2.834 -1.94,-4.713c0,-1.879 0.647,-3.45 1.94,-4.713c1.294,-1.263 2.886,-1.894 4.777,-1.894c1.892,0 3.484,0.631 4.777,1.894c1.294,1.263 1.94,2.834 1.94,4.713c0,1.879 -0.646,3.45 -1.94,4.713c-1.293,1.263 -2.885,1.894 -4.777,1.894Z" style="fill:#f5f5f5;fill-rule:nonzero;"/></svg>