<?xml version="1.0" encoding="UTF-8" standalone="no"?><!DOCTYPE svg PUBLIC "-//W3C//DTD SVG 1.1//EN" "http://www.w3.org/Graphics/SVG/1.1/DTD/svg11.dtd"><svg width="100%" height="100%" viewBox="0 0 301 56" version="1.1" xmlns="http://www.w3.org/2000/svg" xmlns:xlink="http://www.w3.org/1999/xlink" xml:space="preserve" style="fill-rule:evenodd;clip-rule:evenodd;stroke-linejoin:round;stroke-miterlimit:1.41421;"><path d="M48.232,20.649l14.29,0l0,35.063l-35.04,0l0,-22.518l28.3,0l-7.55,-12.545Zm-24.778,28.518c-1.847,0.701 -3.842,1.091 -5.922,1.091c-9.678,0 -17.532,-7.87 -17.532,-17.532c0,-9.506 7.589,-17.298 17.033,-17.532l-10.87,18l17.291,0l0,15.973Zm7.503,-49.167l17.532,29.064l-35.064,0l17.532,-29.064Z" style="fill-opacity:0.368627;"/><path d="M112.092,38.591l-9.518,0l0,-21.74l8.46,0c1.473,0 2.743,0.176 3.81,0.528c1.068,0.353 1.872,0.83 2.411,1.431c0.974,1.12 1.462,2.385 1.462,3.795c0,1.7 -0.55,2.965 -1.649,3.794c-0.373,0.29 -0.632,0.472 -0.777,0.544c-0.145,0.073 -0.405,0.192 -0.778,0.358c1.348,0.29 2.421,0.897 3.219,1.82c0.799,0.922 1.198,2.068 1.198,3.437c0,1.513 -0.519,2.851 -1.555,4.012c-1.203,1.348 -3.297,2.021 -6.283,2.021Zm-4.666,-12.938l2.302,0c1.348,0 2.348,-0.145 3.001,-0.436c0.654,-0.29 0.98,-0.917 0.98,-1.881c0,-0.965 -0.3,-1.602 -0.902,-1.913c-0.601,-0.311 -1.617,-0.467 -3.048,-0.467l-2.333,0l0,4.697Zm0,8.833l3.328,0c1.39,0 2.432,-0.171 3.126,-0.513c0.695,-0.342 1.042,-1.016 1.042,-2.022c0,-1.006 -0.368,-1.669 -1.104,-1.991c-0.736,-0.321 -1.913,-0.482 -3.53,-0.482l-2.862,0l0,5.008Z" style="fill-opacity:0.443137;fill-rule:nonzero;"/><path d="M139.244,38.591l-2.021,-4.696l-9.113,0l-2.022,4.696l-5.163,0l9.393,-21.74l4.696,0l9.393,21.74l-5.163,0Zm-6.562,-15.271l-2.737,6.314l5.443,0l-2.706,-6.314Z" style="fill-opacity:0.443137;fill-rule:nonzero;"/><path d="M155.356,34.486c1.368,0 2.451,-0.503 3.25,-1.509c0.798,-1.005 1.197,-2.379 1.197,-4.121l0,-12.005l4.852,0l0,12.161c0,3.152 -0.871,5.572 -2.612,7.262c-1.742,1.69 -3.971,2.535 -6.687,2.535c-2.717,0 -4.951,-0.85 -6.703,-2.55c-1.752,-1.701 -2.628,-4.116 -2.628,-7.247l0,-12.161l4.852,0l0,12.005c0,1.742 0.404,3.116 1.213,4.121c0.808,1.006 1.897,1.509 3.266,1.509Z" style="fill-opacity:0.443137;fill-rule:nonzero;"/><path d="M183.192,16.851l4.852,0l0,21.74l-4.852,0l0,-8.553l-8.646,0l0,8.553l-4.852,0l0,-21.74l4.852,0l0,9.082l8.646,0l0,-9.082Z" style="fill-opacity:0.443137;fill-rule:nonzero;"/><path d="M208.883,38.591l-2.022,-4.696l-9.113,0l-2.021,4.696l-5.163,0l9.393,-21.74l4.696,0l9.393,21.74l-5.163,0Zm-6.563,-15.271l-2.737,6.314l5.443,0l-2.706,-6.314Z" style="fill-opacity:0.443137;fill-rule:nonzero;"/><path d="M224.994,34.486c1.369,0 2.452,-0.503 3.25,-1.509c0.799,-1.005 1.198,-2.379 1.198,-4.121l0,-12.005l4.852,0l0,12.161c0,3.152 -0.871,5.572 -2.613,7.262c-1.742,1.69 -3.971,2.535 -6.687,2.535c-2.716,0 -4.95,-0.85 -6.702,-2.55c-1.753,-1.701 -2.629,-4.116 -2.629,-7.247l0,-12.161l4.852,0l0,12.005c0,1.742 0.405,3.116 1.213,4.121c0.809,1.006 1.898,1.509 3.266,1.509Z" style="fill-opacity:0.443137;fill-rule:nonzero;"/><path d="M244.418,21.19c-0.467,0.383 -0.7,0.891 -0.7,1.524c0,0.632 0.285,1.135 0.855,1.508c0.57,0.373 1.887,0.814 3.95,1.322c2.063,0.508 3.665,1.27 4.806,2.286c1.14,1.016 1.71,2.498 1.71,4.448c0,1.949 -0.731,3.53 -2.193,4.743c-1.461,1.213 -3.385,1.819 -5.769,1.819c-3.442,0 -6.542,-1.275 -9.3,-3.825l2.893,-3.546c2.343,2.053 4.51,3.079 6.5,3.079c0.892,0 1.592,-0.192 2.1,-0.575c0.508,-0.384 0.762,-0.902 0.762,-1.555c0,-0.654 -0.27,-1.172 -0.809,-1.556c-0.539,-0.383 -1.607,-0.772 -3.204,-1.166c-2.529,-0.601 -4.38,-1.384 -5.551,-2.348c-1.172,-0.964 -1.758,-2.478 -1.758,-4.541c0,-2.063 0.742,-3.655 2.224,-4.774c1.483,-1.12 3.333,-1.68 5.552,-1.68c1.451,0 2.903,0.249 4.354,0.747c1.452,0.497 2.717,1.202 3.795,2.115l-2.457,3.545c-1.887,-1.431 -3.836,-2.146 -5.848,-2.146c-0.808,0 -1.446,0.192 -1.912,0.576Z" style="fill-opacity:0.443137;fill-rule:nonzero;"/><path d="M268.196,21.018l0,-4.167l11.321,0l0,14.182c0,2.592 -0.669,4.531 -2.006,5.817c-1.338,1.285 -3.053,1.928 -5.148,1.928c-2.612,0 -4.893,-1.006 -6.842,-3.017l2.519,-3.483c1.306,1.41 2.675,2.115 4.106,2.115c0.684,0 1.27,-0.265 1.757,-0.794c0.487,-0.528 0.731,-1.321 0.731,-2.379l0,-10.202l-6.438,0Z" style="fill-opacity:0.443137;fill-rule:nonzero;"/><path d="M289.765,21.19c-0.466,0.383 -0.7,0.891 -0.7,1.524c0,0.632 0.285,1.135 0.856,1.508c0.57,0.373 1.887,0.814 3.95,1.322c2.063,0.508 3.665,1.27 4.805,2.286c1.14,1.016 1.711,2.498 1.711,4.448c0,1.949 -0.731,3.53 -2.193,4.743c-1.462,1.213 -3.385,1.819 -5.77,1.819c-3.442,0 -6.541,-1.275 -9.299,-3.825l2.892,-3.546c2.343,2.053 4.51,3.079 6.501,3.079c0.891,0 1.591,-0.192 2.099,-0.575c0.508,-0.384 0.762,-0.902 0.762,-1.555c0,-0.654 -0.269,-1.172 -0.808,-1.556c-0.54,-0.383 -1.607,-0.772 -3.204,-1.166c-2.53,-0.601 -4.38,-1.384 -5.552,-2.348c-1.171,-0.964 -1.757,-2.478 -1.757,-4.541c0,-2.063 0.741,-3.655 2.224,-4.774c1.482,-1.12 3.333,-1.68 5.552,-1.68c1.451,0 2.902,0.249 4.354,0.747c1.451,0.497 2.716,1.202 3.794,2.115l-2.457,3.545c-1.887,-1.431 -3.836,-2.146 -5.847,-2.146c-0.809,0 -1.446,0.192 -1.913,0.576Z" style="fill-opacity:0.443137;fill-rule:nonzero;"/></svg>